<svg width="200" height="20" viewBox="0 0 200 20" fill="none" xmlns="http://www.w3.org/2000/svg">
<path d="M186.934 15.1L187.134 13.46H191.314C192.474 13.46 193.474 13.4133 194.314 13.32C195.167 13.2133 195.867 13.06 196.414 12.86C196.96 12.66 197.367 12.4066 197.634 12.1C197.9 11.78 198.034 11.4066 198.034 10.98C198.034 10.7533 197.96 10.5066 197.814 10.24C197.667 9.9733 197.44 9.74664 197.134 9.55997C196.827 9.35997 196.42 9.25997 195.914 9.25997C195.274 9.25997 194.634 9.42664 193.994 9.75997C193.367 10.0933 192.767 10.5133 192.194 11.02C191.634 11.5133 191.134 12.02 190.694 12.54C190.254 13.06 189.9 13.5133 189.634 13.9L187.894 13.84C188.32 13.1466 188.827 12.44 189.414 11.72C190.014 10.9866 190.667 10.3133 191.374 9.69997C192.094 9.07331 192.847 8.5733 193.634 8.19997C194.42 7.8133 195.22 7.61997 196.034 7.61997C196.767 7.61997 197.394 7.7733 197.914 8.07997C198.447 8.3733 198.854 8.7733 199.134 9.27997C199.427 9.78664 199.574 10.36 199.574 11C199.574 11.6266 199.347 12.26 198.894 12.9C198.44 13.5266 197.66 14.02 196.554 14.38C195.994 14.5666 195.354 14.7133 194.634 14.82C193.914 14.9266 193.094 15 192.174 15.04C191.254 15.08 190.207 15.1 189.034 15.1H186.934ZM188.834 13.12L188.434 0.719971H190.054L190.454 11.72L188.834 13.12Z" fill="#4B4C48"/>
<path d="M180.938 15.1L181.117 13.46C181.877 13.46 182.411 13.3866 182.717 13.24C183.024 13.0933 183.198 12.8333 183.238 12.46C183.291 12.0866 183.304 11.5666 183.277 10.9L182.938 0.719971H184.598L184.917 10.86C184.944 11.54 185.051 12.0733 185.238 12.46C185.438 12.8333 185.704 13.0933 186.038 13.24C186.371 13.3866 186.737 13.46 187.137 13.46C187.417 13.46 187.618 13.54 187.738 13.7C187.871 13.8466 187.938 14.0266 187.938 14.24C187.938 14.4533 187.844 14.6533 187.658 14.84C187.471 15.0133 187.231 15.1 186.938 15.1C186.378 15.1 185.911 15.0133 185.538 14.84C185.178 14.6533 184.891 14.42 184.678 14.14C184.478 13.8466 184.344 13.54 184.277 13.22L184.697 13.26C184.564 13.66 184.344 14 184.038 14.28C183.744 14.5466 183.344 14.7533 182.837 14.9C182.331 15.0333 181.698 15.1 180.938 15.1Z" fill="#4B4C48"/>
<path d="M166.882 15.42L167.402 13.78C168.215 13.78 169.075 13.7333 169.982 13.64C170.889 13.5333 171.789 13.3533 172.682 13.1C173.589 12.8333 174.449 12.4733 175.262 12.02C176.075 11.5666 176.789 10.9933 177.402 10.3L178.662 11.04C178.542 11.3466 178.462 11.5933 178.422 11.78C178.382 11.9533 178.362 12.1133 178.362 12.26C178.362 12.46 178.435 12.6533 178.582 12.84C178.729 13.0133 179.002 13.16 179.402 13.28C179.815 13.4 180.395 13.46 181.142 13.46C181.422 13.46 181.622 13.54 181.742 13.7C181.875 13.8466 181.942 14.0266 181.942 14.24C181.942 14.4533 181.849 14.6533 181.662 14.84C181.475 15.0133 181.235 15.1 180.942 15.1C180.089 15.1 179.335 15.0133 178.682 14.84C178.042 14.6533 177.562 14.3666 177.242 13.98C176.935 13.58 176.835 13.0666 176.942 12.44L177.302 12.56C176.769 13.04 176.129 13.46 175.382 13.82C174.649 14.1666 173.829 14.46 172.922 14.7C172.029 14.94 171.069 15.12 170.042 15.24C169.029 15.36 167.975 15.42 166.882 15.42ZM166.882 15.42C165.695 15.42 164.649 15.34 163.742 15.18C162.849 15.0333 162.102 14.8 161.502 14.48C160.902 14.16 160.449 13.7466 160.142 13.24C159.835 12.72 159.682 12.0933 159.682 11.36C159.682 11.0266 159.709 10.6866 159.762 10.34C159.815 9.97997 159.882 9.61997 159.962 9.25997C160.055 8.89997 160.149 8.5533 160.242 8.21997L161.742 8.59997C161.689 8.79997 161.629 9.03997 161.562 9.31997C161.495 9.58664 161.435 9.85997 161.382 10.14C161.342 10.42 161.322 10.6733 161.322 10.9C161.322 11.5933 161.495 12.1533 161.842 12.58C162.202 12.9933 162.822 13.3 163.702 13.5C164.582 13.6866 165.815 13.78 167.402 13.78L167.802 14.78L166.882 15.42ZM168.342 19.22C168.062 19.22 167.822 19.12 167.622 18.92C167.435 18.7333 167.342 18.5066 167.342 18.24C167.342 17.9733 167.435 17.74 167.622 17.54C167.822 17.34 168.062 17.24 168.342 17.24C168.609 17.24 168.835 17.34 169.022 17.54C169.222 17.74 169.322 17.9733 169.322 18.24C169.322 18.5066 169.222 18.7333 169.022 18.92C168.835 19.12 168.609 19.22 168.342 19.22Z" fill="#4B4C48"/>
<path d="M150.531 15L150.131 0.719971H151.751L152.151 15H150.531Z" fill="#4B4C48"/>
<path d="M140.305 15.3601C139.132 15.3601 138.145 15.3134 137.345 15.2201C136.558 15.1401 135.918 15.0134 135.425 14.8401C134.932 14.6667 134.558 14.4467 134.305 14.1801C134.052 13.9134 133.878 13.5934 133.785 13.2201L134.245 13.0601C133.912 13.7001 133.552 14.1667 133.165 14.4601C132.778 14.7401 132.372 14.9201 131.945 15.0001C131.532 15.0667 131.092 15.1001 130.625 15.1001L130.825 13.4601C131.292 13.4601 131.672 13.3934 131.965 13.2601C132.272 13.1267 132.518 12.9067 132.705 12.6001C132.905 12.2934 133.078 11.8867 133.225 11.3801C133.372 10.8734 133.532 10.2467 133.705 9.50008L135.165 9.88008C135.085 10.1867 135.012 10.4801 134.945 10.7601C134.878 11.0401 134.825 11.2867 134.785 11.5001C134.758 11.7001 134.745 11.8601 134.745 11.9801C134.745 12.3001 134.818 12.5734 134.965 12.8001C135.112 13.0134 135.392 13.1934 135.805 13.3401C136.218 13.4734 136.812 13.5734 137.585 13.6401C138.372 13.6934 139.398 13.7201 140.665 13.7201C141.545 13.7201 142.332 13.6667 143.025 13.5601C143.718 13.4534 144.298 13.2934 144.765 13.0801C145.245 12.8534 145.612 12.5801 145.865 12.2601C146.118 11.9401 146.245 11.5734 146.245 11.1601C146.245 10.8667 146.172 10.5801 146.025 10.3001C145.878 10.0067 145.652 9.76008 145.345 9.56008C145.038 9.36008 144.632 9.26008 144.125 9.26008C143.485 9.26008 142.845 9.42675 142.205 9.76008C141.578 10.0934 140.978 10.5134 140.405 11.0201C139.845 11.5134 139.345 12.0201 138.905 12.5401C138.465 13.0601 138.112 13.5134 137.845 13.9001L136.105 13.8401C136.532 13.1467 137.038 12.4401 137.625 11.7201C138.225 10.9867 138.878 10.3134 139.585 9.70008C140.305 9.07341 141.058 8.57341 141.845 8.20008C142.632 7.81341 143.432 7.62008 144.245 7.62008C144.978 7.62008 145.605 7.77341 146.125 8.08008C146.658 8.37341 147.065 8.77341 147.345 9.28008C147.638 9.78675 147.785 10.3601 147.785 11.0001C147.785 11.7867 147.552 12.5134 147.085 13.1801C146.632 13.8334 145.858 14.3601 144.765 14.7601C143.672 15.1601 142.185 15.3601 140.305 15.3601ZM143.665 5.56008C143.385 5.56008 143.145 5.46675 142.945 5.28008C142.758 5.08008 142.665 4.84675 142.665 4.58008C142.665 4.31341 142.758 4.08008 142.945 3.88008C143.145 3.68008 143.385 3.58008 143.665 3.58008C143.932 3.58008 144.158 3.68008 144.345 3.88008C144.545 4.08008 144.645 4.31341 144.645 4.58008C144.645 4.84675 144.545 5.08008 144.345 5.28008C144.158 5.46675 143.932 5.56008 143.665 5.56008Z" fill="#4B4C48"/>
<path d="M130.625 15.1C129.558 15.1 128.738 14.98 128.165 14.74C127.605 14.5 127.218 14.1266 127.005 13.62C126.791 13.1133 126.671 12.46 126.645 11.66L126.245 0.719971H127.885L128.285 11.02C128.311 11.6733 128.371 12.18 128.465 12.54C128.571 12.8866 128.798 13.1266 129.145 13.26C129.505 13.3933 130.065 13.46 130.825 13.46C131.105 13.46 131.305 13.54 131.425 13.7C131.558 13.8466 131.625 14.0266 131.625 14.24C131.625 14.4533 131.531 14.6533 131.345 14.84C131.158 15.0133 130.918 15.1 130.625 15.1Z" fill="#4B4C48"/>
<path d="M115.859 15.1001L116.059 13.4601C116.393 13.4601 116.759 13.4601 117.159 13.4601C117.573 13.4467 117.986 13.4334 118.399 13.4201C118.826 13.4067 119.219 13.3801 119.579 13.3401C119.939 13.2867 120.239 13.2201 120.479 13.1401C120.959 12.9667 121.333 12.7534 121.599 12.5001C121.866 12.2334 122.053 11.8867 122.159 11.4601C122.279 11.0201 122.339 10.4601 122.339 9.78006C122.339 9.22006 122.266 8.70006 122.119 8.22006C121.973 7.74006 121.766 7.3534 121.499 7.06006C121.233 6.76673 120.913 6.62006 120.539 6.62006C120.233 6.62006 119.953 6.74006 119.699 6.98006C119.459 7.20673 119.266 7.50006 119.119 7.86006C118.986 8.22006 118.919 8.58006 118.919 8.94006C118.919 9.22006 118.973 9.46006 119.079 9.66006C119.199 9.86006 119.393 10.0201 119.659 10.1401C119.926 10.2467 120.273 10.3001 120.699 10.3001C121.086 10.3001 121.473 10.2601 121.859 10.1801C122.259 10.1001 122.599 9.9934 122.879 9.86006L122.959 11.2601C122.746 11.4067 122.506 11.5267 122.239 11.6201C121.973 11.7134 121.693 11.7801 121.399 11.8201C121.106 11.8601 120.813 11.8801 120.519 11.8801C119.839 11.8801 119.259 11.7734 118.779 11.5601C118.313 11.3334 117.953 11.0334 117.699 10.6601C117.459 10.2734 117.339 9.8334 117.339 9.34006C117.339 8.8334 117.419 8.32673 117.579 7.82006C117.739 7.30006 117.966 6.82673 118.259 6.40006C118.553 5.9734 118.906 5.6334 119.319 5.38006C119.733 5.1134 120.193 4.98006 120.699 4.98006C121.419 4.98006 122.013 5.2134 122.479 5.68006C122.959 6.14673 123.313 6.76006 123.539 7.52006C123.779 8.26673 123.899 9.06006 123.899 9.90006C123.899 10.9001 123.726 11.7601 123.379 12.4801C123.046 13.1867 122.486 13.7734 121.699 14.2401C121.393 14.4134 121.019 14.5601 120.579 14.6801C120.153 14.7867 119.679 14.8734 119.159 14.9401C118.653 15.0067 118.119 15.0467 117.559 15.0601C116.999 15.0867 116.433 15.1001 115.859 15.1001ZM120.319 2.92006C120.039 2.92006 119.799 2.82673 119.599 2.64006C119.413 2.44006 119.319 2.20673 119.319 1.94006C119.319 1.6734 119.413 1.44006 119.599 1.24006C119.799 1.04006 120.039 0.940063 120.319 0.940063C120.586 0.940063 120.813 1.04006 120.999 1.24006C121.199 1.44006 121.299 1.6734 121.299 1.94006C121.299 2.20673 121.199 2.44006 120.999 2.64006C120.813 2.82673 120.586 2.92006 120.319 2.92006Z" fill="#4B4C48"/>
<path d="M115.853 15.1C115.133 15.1 114.493 15 113.933 14.8C113.386 14.5867 112.946 14.2334 112.613 13.74C112.293 13.2334 112.113 12.5334 112.073 11.64L111.753 4.68002H113.373L113.693 11.28C113.733 11.9067 113.846 12.38 114.033 12.7C114.219 13.0067 114.479 13.2134 114.813 13.32C115.159 13.4134 115.573 13.46 116.053 13.46C116.333 13.46 116.533 13.54 116.653 13.7C116.786 13.8467 116.853 14.0267 116.853 14.24C116.853 14.4534 116.759 14.6534 116.573 14.84C116.386 15.0134 116.146 15.1 115.853 15.1ZM112.833 12.9C112.073 13.14 111.333 13.26 110.613 13.26C109.893 13.26 109.239 13.1534 108.653 12.94C108.066 12.7267 107.599 12.42 107.253 12.02C106.906 11.6067 106.733 11.1134 106.733 10.54C106.733 9.98002 106.873 9.45336 107.153 8.96002C107.446 8.46669 107.839 8.02669 108.333 7.64002C108.839 7.25336 109.419 6.93336 110.073 6.68003C110.739 6.41336 111.446 6.23336 112.193 6.14002L112.473 7.82002C111.806 7.84669 111.213 7.94002 110.693 8.10002C110.186 8.24669 109.753 8.44002 109.393 8.68002C109.046 8.92002 108.779 9.18003 108.593 9.46002C108.406 9.74002 108.313 10.0134 108.313 10.28C108.313 10.5734 108.419 10.8134 108.633 11C108.846 11.1867 109.119 11.3334 109.453 11.44C109.786 11.5334 110.153 11.5934 110.553 11.62C110.953 11.6334 111.339 11.62 111.713 11.58C112.086 11.5267 112.406 11.4534 112.673 11.36L112.833 12.9ZM112.413 2.38002C112.133 2.38002 111.893 2.28669 111.693 2.10002C111.506 1.90002 111.413 1.66669 111.413 1.40002C111.413 1.13336 111.506 0.900024 111.693 0.700024C111.893 0.500024 112.133 0.400024 112.413 0.400024C112.679 0.400024 112.906 0.500024 113.093 0.700024C113.293 0.900024 113.393 1.13336 113.393 1.40002C113.393 1.66669 113.293 1.90002 113.093 2.10002C112.906 2.28669 112.679 2.38002 112.413 2.38002ZM109.673 2.38002C109.393 2.38002 109.153 2.28669 108.953 2.10002C108.766 1.90002 108.673 1.66669 108.673 1.40002C108.673 1.13336 108.766 0.900024 108.953 0.700024C109.153 0.500024 109.393 0.400024 109.673 0.400024C109.939 0.400024 110.166 0.500024 110.353 0.700024C110.553 0.900024 110.653 1.13336 110.653 1.40002C110.653 1.66669 110.553 1.90002 110.353 2.10002C110.166 2.28669 109.939 2.38002 109.673 2.38002Z" fill="#4B4C48"/>
<path d="M88.7305 15.1L88.9105 13.46C89.6038 13.46 90.2838 13.4066 90.9505 13.3C91.6171 13.1933 92.2705 13.04 92.9105 12.84C93.5505 12.64 94.1638 12.4 94.7505 12.12C95.3505 11.8266 95.9171 11.4933 96.4505 11.12C96.1038 10.8133 95.7038 10.5466 95.2505 10.32C94.7971 10.0933 94.2971 9.91996 93.7505 9.79996C93.2171 9.66663 92.6505 9.59996 92.0505 9.59996C91.8371 9.59996 91.6371 9.60663 91.4505 9.61996C91.2638 9.6333 91.0771 9.65996 90.8905 9.69996C90.7038 9.72663 90.4905 9.76663 90.2505 9.81996L89.9305 8.29996C90.2905 8.1933 90.6505 8.11329 91.0105 8.05996C91.3705 7.99329 91.7171 7.95996 92.0505 7.95996C92.7438 7.95996 93.3705 8.04663 93.9305 8.21996C94.4905 8.37996 94.9971 8.57996 95.4505 8.81996C95.9171 9.05996 96.3505 9.29996 96.7505 9.53996C97.1638 9.77996 97.5638 9.98663 97.9505 10.16C98.3371 10.32 98.7371 10.4 99.1505 10.4H99.5705L99.7105 11.84C99.1371 11.84 98.6105 11.92 98.1305 12.08C97.6505 12.24 97.1771 12.4466 96.7105 12.7C96.2571 12.94 95.7771 13.2 95.2705 13.48C94.7638 13.7466 94.2038 14.0066 93.5905 14.26C92.9771 14.5 92.2705 14.7 91.4705 14.86C90.6838 15.02 89.7705 15.1 88.7305 15.1ZM94.3105 18.72C94.0305 18.72 93.7905 18.62 93.5905 18.42C93.4038 18.2333 93.3105 18.0066 93.3105 17.74C93.3105 17.4733 93.4038 17.24 93.5905 17.04C93.7905 16.84 94.0305 16.74 94.3105 16.74C94.5771 16.74 94.8038 16.84 94.9905 17.04C95.1905 17.24 95.2905 17.4733 95.2905 17.74C95.2905 18.0066 95.1905 18.2333 94.9905 18.42C94.8038 18.62 94.5771 18.72 94.3105 18.72Z" fill="#4B4C48"/>
<path d="M84.7337 19.3401C83.8937 19.3401 83.1338 19.1467 82.4538 18.7601C81.7738 18.3734 81.2337 17.7867 80.8337 17.0001C80.4337 16.2267 80.2337 15.2534 80.2337 14.0801C80.2337 13.0001 80.3604 12.0067 80.6137 11.1001C80.8671 10.1934 81.2004 9.41339 81.6137 8.76005C82.0404 8.09339 82.5071 7.58005 83.0137 7.22005C83.5204 6.86005 84.0204 6.68005 84.5137 6.68005C84.9537 6.68005 85.3471 6.80672 85.6937 7.06005C86.0404 7.31339 86.3137 7.66672 86.5137 8.12005C86.7137 8.57339 86.8138 9.11339 86.8138 9.74005C86.8138 10.3001 86.7271 10.8601 86.5537 11.4201C86.3804 11.9801 86.0538 12.4867 85.5738 12.9401C85.1071 13.3934 84.4337 13.7401 83.5537 13.9801L84.8538 12.8801C85.2804 12.9867 85.7071 13.0867 86.1338 13.1801C86.5738 13.2601 87.0204 13.3267 87.4737 13.3801C87.9404 13.4334 88.4271 13.4601 88.9338 13.4601C89.2138 13.4601 89.4138 13.5401 89.5338 13.7001C89.6671 13.8467 89.7337 14.0267 89.7337 14.2401C89.7337 14.4534 89.6404 14.6534 89.4538 14.8401C89.2671 15.0134 89.0271 15.1001 88.7337 15.1001C88.3737 15.1001 87.9871 15.0801 87.5738 15.0401C87.1604 15.0001 86.7471 14.9534 86.3337 14.9001C85.9204 14.8334 85.5271 14.7601 85.1537 14.6801L86.8938 14.6201C87.2271 14.9801 87.4538 15.3667 87.5738 15.7801C87.7071 16.2067 87.7404 16.6267 87.6738 17.0401C87.6204 17.4667 87.4671 17.8534 87.2138 18.2001C86.9738 18.5467 86.6471 18.8201 86.2337 19.0201C85.8204 19.2334 85.3204 19.3401 84.7337 19.3401ZM78.5938 15.1001L78.7937 13.4601C79.0737 13.4601 79.3538 13.4601 79.6338 13.4601C79.9138 13.4601 80.1804 13.4534 80.4337 13.4401L80.5137 14.9201C80.2071 14.9734 79.8871 15.0134 79.5537 15.0401C79.2337 15.0801 78.9137 15.1001 78.5938 15.1001ZM84.7738 17.7001C85.0138 17.7001 85.2471 17.6534 85.4737 17.5601C85.7137 17.4801 85.9071 17.3334 86.0537 17.1201C86.2137 16.9201 86.2937 16.6467 86.2937 16.3001C86.2937 15.9667 86.2071 15.6601 86.0338 15.3801C85.8738 15.1134 85.5871 14.8934 85.1738 14.7201C84.7604 14.5467 84.1737 14.4601 83.4137 14.4601C83.2537 14.4601 83.0737 14.4734 82.8737 14.5001C82.6871 14.5134 82.4937 14.5401 82.2937 14.5801C82.0937 14.6067 81.8871 14.6467 81.6738 14.7001V13.3401C82.1804 13.2734 82.6404 13.1734 83.0537 13.0401C83.4804 12.8934 83.8538 12.6934 84.1738 12.4401C84.4938 12.1867 84.7404 11.8534 84.9137 11.4401C85.0871 11.0267 85.1738 10.5201 85.1738 9.92005C85.1738 9.72005 85.1471 9.49339 85.0938 9.24005C85.0538 8.98672 84.9738 8.77339 84.8538 8.60005C84.7338 8.41339 84.5737 8.32005 84.3737 8.32005C84.1737 8.32005 83.9271 8.45339 83.6338 8.72005C83.3538 8.98672 83.0737 9.36005 82.7937 9.84005C82.5271 10.3201 82.3004 10.8934 82.1137 11.5601C81.9404 12.2134 81.8538 12.9334 81.8538 13.7201C81.8538 14.5867 81.9471 15.2801 82.1338 15.8001C82.3338 16.3334 82.5871 16.7334 82.8938 17.0001C83.2004 17.2801 83.5204 17.4667 83.8538 17.5601C84.1871 17.6534 84.4938 17.7001 84.7738 17.7001Z" fill="#4B4C48"/>
<path d="M78.5872 15.1C77.8672 15.1 77.2272 15 76.6672 14.8C76.1205 14.5867 75.6805 14.2334 75.3472 13.74C75.0272 13.2334 74.8472 12.5334 74.8072 11.64L74.4872 4.68002H76.1072L76.4272 11.28C76.4672 11.9067 76.5805 12.38 76.7672 12.7C76.9538 13.0067 77.2138 13.2134 77.5472 13.32C77.8938 13.4134 78.3072 13.46 78.7872 13.46C79.0672 13.46 79.2672 13.54 79.3872 13.7C79.5205 13.8467 79.5872 14.0267 79.5872 14.24C79.5872 14.4534 79.4938 14.6534 79.3072 14.84C79.1205 15.0134 78.8805 15.1 78.5872 15.1ZM75.5672 12.9C74.8072 13.14 74.0672 13.26 73.3472 13.26C72.6272 13.26 71.9738 13.1534 71.3872 12.94C70.8005 12.7267 70.3338 12.42 69.9872 12.02C69.6405 11.6067 69.4672 11.1134 69.4672 10.54C69.4672 9.98002 69.6072 9.45336 69.8872 8.96002C70.1805 8.46669 70.5738 8.02669 71.0672 7.64002C71.5738 7.25336 72.1538 6.93336 72.8072 6.68003C73.4738 6.41336 74.1805 6.23336 74.9272 6.14002L75.2072 7.82002C74.5405 7.84669 73.9472 7.94002 73.4272 8.10002C72.9205 8.24669 72.4872 8.44002 72.1272 8.68002C71.7805 8.92002 71.5138 9.18003 71.3272 9.46002C71.1405 9.74002 71.0472 10.0134 71.0472 10.28C71.0472 10.5734 71.1538 10.8134 71.3672 11C71.5805 11.1867 71.8538 11.3334 72.1872 11.44C72.5205 11.5334 72.8872 11.5934 73.2872 11.62C73.6872 11.6334 74.0738 11.62 74.4472 11.58C74.8205 11.5267 75.1405 11.4534 75.4072 11.36L75.5672 12.9ZM75.1472 2.38002C74.8672 2.38002 74.6272 2.28669 74.4272 2.10002C74.2405 1.90002 74.1472 1.66669 74.1472 1.40002C74.1472 1.13336 74.2405 0.900024 74.4272 0.700024C74.6272 0.500024 74.8672 0.400024 75.1472 0.400024C75.4138 0.400024 75.6405 0.500024 75.8272 0.700024C76.0272 0.900024 76.1272 1.13336 76.1272 1.40002C76.1272 1.66669 76.0272 1.90002 75.8272 2.10002C75.6405 2.28669 75.4138 2.38002 75.1472 2.38002ZM72.4072 2.38002C72.1272 2.38002 71.8872 2.28669 71.6872 2.10002C71.5005 1.90002 71.4072 1.66669 71.4072 1.40002C71.4072 1.13336 71.5005 0.900024 71.6872 0.700024C71.8872 0.500024 72.1272 0.400024 72.4072 0.400024C72.6738 0.400024 72.9005 0.500024 73.0872 0.700024C73.2872 0.900024 73.3872 1.13336 73.3872 1.40002C73.3872 1.66669 73.2872 1.90002 73.0872 2.10002C72.9005 2.28669 72.6738 2.38002 72.4072 2.38002Z" fill="#4B4C48"/>
<path d="M60.3165 15L59.9165 0.719971H61.5365L61.9365 15H60.3165Z" fill="#4B4C48"/>
<path d="M53.2812 15.1L53.4613 13.46C54.2213 13.46 54.7546 13.3866 55.0612 13.24C55.3679 13.0933 55.5412 12.8333 55.5812 12.46C55.6346 12.0866 55.6479 11.5666 55.6213 10.9L55.2412 0.719971H56.8613L57.2612 10.72C57.2879 11.4266 57.2613 12.0533 57.1813 12.6C57.1146 13.1466 56.9413 13.6066 56.6613 13.98C56.3946 14.3533 55.9879 14.6333 55.4412 14.82C54.9079 15.0066 54.1879 15.1 53.2812 15.1Z" fill="#4B4C48"/>
<path d="M45.8203 15.1L46.0203 13.46C46.687 13.46 47.207 13.4134 47.5803 13.32C47.9536 13.2134 48.2336 13.02 48.4203 12.74C48.6203 12.4467 48.7803 12.0267 48.9003 11.48C49.0203 10.9334 49.167 10.22 49.3403 9.34005L50.9003 9.64005C50.847 9.88005 50.787 10.1467 50.7203 10.44C50.6536 10.7334 50.5936 11.0267 50.5403 11.32C50.5003 11.6 50.4803 11.8467 50.4803 12.06C50.4803 12.26 50.4936 12.4467 50.5203 12.6201C50.547 12.7934 50.647 12.94 50.8203 13.06C50.9936 13.18 51.287 13.2801 51.7003 13.3601C52.1136 13.4267 52.707 13.46 53.4803 13.46C53.7603 13.46 53.9603 13.5401 54.0803 13.7001C54.2136 13.8467 54.2803 14.0267 54.2803 14.24C54.2803 14.4534 54.187 14.6534 54.0003 14.84C53.8136 15.0134 53.5736 15.1 53.2803 15.1C52.467 15.1 51.8203 15.06 51.3403 14.98C50.8603 14.8867 50.4936 14.7534 50.2403 14.58C50.0003 14.4067 49.827 14.1934 49.7203 13.9401C49.627 13.6734 49.5536 13.3667 49.5003 13.0201L50.1003 13.06C49.887 13.4867 49.6536 13.8334 49.4003 14.1C49.1603 14.3667 48.8803 14.5734 48.5603 14.72C48.2403 14.8667 47.8536 14.9667 47.4003 15.0201C46.9603 15.0734 46.4336 15.1 45.8203 15.1ZM51.1603 7.28005C50.8803 7.28005 50.6403 7.18672 50.4403 7.00005C50.2536 6.80005 50.1603 6.56672 50.1603 6.30005C50.1603 6.03338 50.2536 5.80005 50.4403 5.60005C50.6403 5.40005 50.8803 5.30005 51.1603 5.30005C51.427 5.30005 51.6536 5.40005 51.8403 5.60005C52.0403 5.80005 52.1403 6.03338 52.1403 6.30005C52.1403 6.56672 52.0403 6.80005 51.8403 7.00005C51.6536 7.18672 51.427 7.28005 51.1603 7.28005ZM48.4203 7.28005C48.1403 7.28005 47.9003 7.18672 47.7003 7.00005C47.5136 6.80005 47.4203 6.56672 47.4203 6.30005C47.4203 6.03338 47.5136 5.80005 47.7003 5.60005C47.9003 5.40005 48.1403 5.30005 48.4203 5.30005C48.687 5.30005 48.9136 5.40005 49.1003 5.60005C49.3003 5.80005 49.4003 6.03338 49.4003 6.30005C49.4003 6.56672 49.3003 6.80005 49.1003 7.00005C48.9136 7.18672 48.687 7.28005 48.4203 7.28005Z" fill="#4B4C48"/>
<path d="M39.4757 13.46C40.1424 13.46 40.6691 13.3933 41.0557 13.26C41.4557 13.1267 41.7424 12.9333 41.9157 12.68C42.1024 12.4133 42.1957 12.1067 42.1957 11.76C42.1957 11.4933 42.1224 11.1733 41.9757 10.8C41.8424 10.4267 41.6557 10.0133 41.4157 9.55999C41.1757 9.09333 40.8957 8.60666 40.5757 8.09999C40.2691 7.57999 39.9357 7.05333 39.5757 6.51999L40.9557 5.62C41.4757 6.40666 41.9291 7.15333 42.3157 7.85999C42.7024 8.55333 43.0291 9.20666 43.2957 9.81999C43.5624 10.42 43.7757 10.9867 43.9357 11.52C44.1224 12.1067 44.3291 12.54 44.5557 12.82C44.7957 13.1 45.0424 13.28 45.2957 13.36C45.5491 13.4267 45.7824 13.46 45.9957 13.46C46.2757 13.46 46.4824 13.54 46.6157 13.7C46.7491 13.8467 46.8157 14.0267 46.8157 14.24C46.8157 14.4533 46.7224 14.6533 46.5357 14.84C46.3491 15.0133 46.1091 15.1 45.8157 15.1C45.3757 15.1 44.9424 15.02 44.5157 14.86C44.1024 14.6867 43.7424 14.4133 43.4357 14.04C43.1291 13.6533 42.9157 13.14 42.7957 12.5L43.5957 11.86C43.5957 12.3933 43.4824 12.9133 43.2557 13.42C43.0291 13.9133 42.6157 14.32 42.0157 14.64C41.4291 14.96 40.5824 15.12 39.4757 15.12C38.9957 15.12 38.5291 15.08 38.0757 15C37.6357 14.92 37.2291 14.8067 36.8557 14.66C36.4824 14.5 36.1557 14.3133 35.8757 14.1L36.6757 12.72C36.9424 12.8933 37.3157 13.06 37.7957 13.22C38.2757 13.38 38.8357 13.46 39.4757 13.46Z" fill="#4B4C48"/>
<path d="M27.912 19.6L27.332 18.08C28.6787 17.6533 29.712 17.14 30.432 16.54C31.1654 15.9533 31.6654 15.34 31.932 14.7C32.212 14.06 32.352 13.4466 32.352 12.86C32.352 12.4866 32.312 12.1266 32.232 11.78C32.152 11.4333 32.012 11.04 31.812 10.6C31.612 10.16 31.332 9.6133 30.972 8.95997L32.432 8.21997C32.9387 9.08664 33.2987 9.90664 33.512 10.68C33.7387 11.4533 33.852 12.1333 33.852 12.72C33.852 13.56 33.712 14.32 33.432 15C33.1654 15.68 32.8054 16.28 32.352 16.8C31.912 17.3333 31.4254 17.7866 30.892 18.16C30.372 18.5333 29.8454 18.84 29.312 19.08C28.792 19.32 28.3254 19.4933 27.912 19.6Z" fill="#4B4C48"/>
<path d="M21.8554 15.1001L22.0554 13.4601C22.8421 13.4601 23.4554 13.4334 23.8954 13.3801C24.3354 13.3134 24.6488 13.1601 24.8354 12.9201C25.0221 12.6667 25.1154 12.2734 25.1154 11.7401C25.1154 11.4067 25.0621 11.0134 24.9554 10.5601C24.8488 10.0934 24.7088 9.60006 24.5354 9.08006C24.3621 8.56006 24.1754 8.04673 23.9754 7.54006L25.5954 6.94006C25.7688 7.36673 25.9288 7.8534 26.0754 8.40006C26.2354 8.94673 26.3688 9.48673 26.4754 10.0201C26.5821 10.5534 26.6354 11.0201 26.6354 11.4201C26.6354 12.0867 26.5421 12.6534 26.3554 13.1201C26.1821 13.5867 25.9021 13.9667 25.5154 14.2601C25.1288 14.5534 24.6288 14.7667 24.0154 14.9001C23.4154 15.0334 22.6954 15.1001 21.8554 15.1001ZM25.5554 18.8801C25.2754 18.8801 25.0354 18.7801 24.8354 18.5801C24.6488 18.3934 24.5554 18.1667 24.5554 17.9001C24.5554 17.6334 24.6488 17.4001 24.8354 17.2001C25.0354 17.0001 25.2754 16.9001 25.5554 16.9001C25.8221 16.9001 26.0488 17.0001 26.2354 17.2001C26.4354 17.4001 26.5354 17.6334 26.5354 17.9001C26.5354 18.1667 26.4354 18.3934 26.2354 18.5801C26.0488 18.7801 25.8221 18.8801 25.5554 18.8801ZM22.8154 18.8801C22.5354 18.8801 22.2954 18.7801 22.0954 18.5801C21.9088 18.3934 21.8154 18.1667 21.8154 17.9001C21.8154 17.6334 21.9088 17.4001 22.0954 17.2001C22.2954 17.0001 22.5354 16.9001 22.8154 16.9001C23.0821 16.9001 23.3088 17.0001 23.4954 17.2001C23.6954 17.4001 23.7954 17.6334 23.7954 17.9001C23.7954 18.1667 23.6954 18.3934 23.4954 18.5801C23.3088 18.7801 23.0821 18.8801 22.8154 18.8801Z" fill="#4B4C48"/>
<path d="M7.79998 15.42L8.31998 13.78C9.13331 13.78 9.99331 13.7333 10.9 13.64C11.8066 13.5333 12.7066 13.3533 13.6 13.1C14.5066 12.8333 15.3666 12.4733 16.18 12.02C16.9933 11.5666 17.7066 10.9933 18.32 10.3L19.58 11.04C19.46 11.3466 19.38 11.5933 19.34 11.78C19.3 11.9533 19.28 12.1133 19.28 12.26C19.28 12.46 19.3533 12.6533 19.5 12.84C19.6466 13.0133 19.92 13.16 20.32 13.28C20.7333 13.4 21.3133 13.46 22.06 13.46C22.34 13.46 22.54 13.54 22.66 13.7C22.7933 13.8466 22.86 14.0266 22.86 14.24C22.86 14.4533 22.7666 14.6533 22.58 14.84C22.3933 15.0133 22.1533 15.1 21.86 15.1C21.0066 15.1 20.2533 15.0133 19.6 14.84C18.96 14.6533 18.48 14.3666 18.16 13.98C17.8533 13.58 17.7533 13.0666 17.86 12.44L18.22 12.56C17.6866 13.04 17.0466 13.46 16.3 13.82C15.5666 14.1666 14.7466 14.46 13.84 14.7C12.9466 14.94 11.9866 15.12 10.96 15.24C9.94664 15.36 8.89331 15.42 7.79998 15.42ZM7.79998 15.42C6.61331 15.42 5.56664 15.34 4.65998 15.18C3.76664 15.0333 3.01998 14.8 2.41998 14.48C1.81998 14.16 1.36664 13.7466 1.05998 13.24C0.753309 12.72 0.599976 12.0933 0.599976 11.36C0.599976 11.0266 0.626642 10.6866 0.679976 10.34C0.733309 9.97997 0.799976 9.61997 0.879976 9.25997C0.973309 8.89997 1.06664 8.5533 1.15998 8.21997L2.65998 8.59997C2.60664 8.79997 2.54664 9.03997 2.47998 9.31997C2.41331 9.58664 2.35331 9.85997 2.29998 10.14C2.25998 10.42 2.23998 10.6733 2.23998 10.9C2.23998 11.5933 2.41331 12.1533 2.75998 12.58C3.11998 12.9933 3.73998 13.3 4.61998 13.5C5.49998 13.6866 6.73331 13.78 8.31998 13.78L8.71998 14.78L7.79998 15.42ZM9.25998 19.22C8.97998 19.22 8.73998 19.12 8.53998 18.92C8.35331 18.7333 8.25998 18.5066 8.25998 18.24C8.25998 17.9733 8.35331 17.74 8.53998 17.54C8.73998 17.34 8.97998 17.24 9.25998 17.24C9.52664 17.24 9.75331 17.34 9.93998 17.54C10.14 17.74 10.24 17.9733 10.24 18.24C10.24 18.5066 10.14 18.7333 9.93998 18.92C9.75331 19.12 9.52664 19.22 9.25998 19.22Z" fill="#4B4C48"/>
</svg>
