<svg width="156" height="30" viewBox="0 0 156 30" fill="none" xmlns="http://www.w3.org/2000/svg">
<path d="M145.097 22.6405L145.324 20.1121C145.748 20.1121 146.104 19.9887 146.392 19.7421C146.68 19.4954 146.96 19.0842 147.232 18.5087C147.505 17.9331 147.8 17.1622 148.118 16.1961C148.557 14.8804 148.989 13.8835 149.413 13.2051C149.852 12.5267 150.284 12.0642 150.708 11.8175C151.147 11.5708 151.578 11.4475 152.002 11.4475C152.517 11.4475 152.994 11.6325 153.433 12.0025C153.873 12.352 154.259 12.8248 154.592 13.4209C154.925 14.0171 155.182 14.6749 155.364 15.3944C155.561 16.0933 155.659 16.7922 155.659 17.4911C155.659 18.7245 155.5 19.7112 155.182 20.4513C154.864 21.1707 154.456 21.6949 153.956 22.0238C153.471 22.3322 152.964 22.4863 152.434 22.4863C151.965 22.4863 151.359 22.363 150.617 22.1163C149.89 21.8696 148.966 21.2427 147.846 20.2354L148.732 18.2928C149.474 18.9301 150.14 19.372 150.73 19.6187C151.336 19.8448 151.836 19.9579 152.23 19.9579C152.669 19.9579 153.017 19.8757 153.274 19.7112C153.532 19.5262 153.721 19.2693 153.842 18.9404C153.963 18.6114 154.024 18.2414 154.024 17.8303C154.024 17.2342 153.918 16.638 153.706 16.0419C153.494 15.4457 153.221 14.9524 152.888 14.5618C152.57 14.1712 152.23 13.976 151.866 13.976C151.594 13.976 151.329 14.0787 151.071 14.2843C150.814 14.4899 150.549 14.8702 150.276 15.4252C150.004 15.9802 149.693 16.7819 149.345 17.8303C148.981 18.9403 148.633 19.8243 148.3 20.4821C147.982 21.1193 147.656 21.5921 147.323 21.9005C146.99 22.2088 146.642 22.4041 146.278 22.4863C145.93 22.5891 145.536 22.6405 145.097 22.6405Z" fill="black"/>
<path d="M136.182 29.64L135.524 27.2965C136.629 26.8032 137.545 26.2379 138.272 25.6006C139.014 24.9634 139.597 24.285 140.021 23.5655C140.46 22.846 140.771 22.1163 140.952 21.3763C141.134 20.6157 141.225 19.8859 141.225 19.187C141.225 18.1797 141.058 17.1622 140.725 16.1343C140.407 15.086 140.051 14.0993 139.658 13.1742L141.316 12.0333C141.603 12.7528 141.853 13.462 142.065 14.1609C142.292 14.8598 142.489 15.5176 142.656 16.1343C142.838 16.751 142.981 17.3163 143.087 17.8303C143.299 18.7142 143.572 19.3206 143.905 19.6495C144.253 19.9579 144.723 20.112 145.313 20.112C145.631 20.112 145.859 20.2354 145.995 20.482C146.146 20.7082 146.222 20.9857 146.222 21.3146C146.222 21.6435 146.116 21.9518 145.904 22.2396C145.692 22.5069 145.419 22.6405 145.086 22.6405C144.42 22.6405 143.875 22.4863 143.451 22.178C143.042 21.849 142.732 21.4276 142.52 20.9137C142.308 20.3793 142.164 19.8242 142.088 19.2487L142.815 19.8037C142.815 21.1604 142.588 22.3938 142.133 23.5038C141.694 24.6345 141.126 25.6109 140.43 26.4331C139.733 27.276 139.006 27.9646 138.249 28.4991C137.492 29.0335 136.803 29.4138 136.182 29.64Z" fill="black"/>
<path d="M123.625 22.6404L123.83 20.112C124.617 20.112 125.389 20.0298 126.147 19.8653C126.904 19.7009 127.646 19.4645 128.373 19.1561C129.099 18.8478 129.796 18.4778 130.462 18.0461C131.144 17.5938 131.787 17.0799 132.393 16.5043C131.999 16.0315 131.545 15.6204 131.03 15.2709C130.515 14.9215 129.947 14.6543 129.327 14.4692C128.721 14.2637 128.077 14.1609 127.396 14.1609C127.154 14.1609 126.926 14.1712 126.714 14.1917C126.502 14.2123 126.29 14.2534 126.078 14.3151C125.866 14.3562 125.624 14.4179 125.352 14.5001L124.988 12.1566C125.397 11.9922 125.806 11.8688 126.215 11.7866C126.624 11.6838 127.017 11.6324 127.396 11.6324C128.183 11.6324 128.895 11.7661 129.531 12.0333C130.167 12.28 130.742 12.5883 131.257 12.9583C131.787 13.3284 132.279 13.6984 132.734 14.0684C133.203 14.4384 133.657 14.757 134.097 15.0243C134.536 15.2709 134.99 15.3943 135.459 15.3943H135.936L136.095 17.6144C135.444 17.6144 134.846 17.7377 134.301 17.9844C133.756 18.2311 133.218 18.5497 132.688 18.9403C132.173 19.3103 131.628 19.7111 131.053 20.1428C130.477 20.554 129.841 20.9548 129.145 21.3454C128.448 21.7154 127.646 22.0238 126.737 22.2704C125.844 22.5171 124.806 22.6404 123.625 22.6404Z" fill="black"/>
<path d="M115.84 22.6405L116.067 20.1121C116.703 20.1121 117.202 20.0401 117.566 19.8962C117.929 19.7318 118.202 19.4337 118.384 19.002C118.58 18.5498 118.747 17.9023 118.883 17.0594C119.02 16.2166 119.186 15.1169 119.383 13.7601L121.155 14.2227C121.094 14.5927 121.026 15.0038 120.95 15.456C120.875 15.9083 120.806 16.3605 120.746 16.8128C120.7 17.2445 120.678 17.6248 120.678 17.9537C120.678 18.3648 120.746 18.7348 120.882 19.0637C121.018 19.3926 121.314 19.6496 121.768 19.8346C122.222 20.0196 122.919 20.1121 123.858 20.1121C124.176 20.1121 124.403 20.2354 124.539 20.4821C124.69 20.7082 124.766 20.9857 124.766 21.3146C124.766 21.6435 124.66 21.9519 124.448 22.2397C124.236 22.5069 123.964 22.6405 123.63 22.6405C122.646 22.6405 121.874 22.5275 121.314 22.3014C120.753 22.0547 120.345 21.6949 120.087 21.2221C119.83 20.7288 119.656 20.1326 119.565 19.4337L120.246 19.4954C120.004 20.1532 119.739 20.6877 119.451 21.0988C119.179 21.5099 118.876 21.8286 118.543 22.0547C118.209 22.2808 117.823 22.435 117.384 22.5172C116.945 22.5994 116.43 22.6405 115.84 22.6405ZM119.701 28.3758C119.383 28.3758 119.11 28.2216 118.883 27.9133C118.671 27.6255 118.565 27.276 118.565 26.8649C118.565 26.4538 118.671 26.094 118.883 25.7857C119.11 25.4773 119.383 25.3232 119.701 25.3232C120.004 25.3232 120.261 25.4773 120.473 25.7857C120.7 26.094 120.814 26.4538 120.814 26.8649C120.814 27.276 120.7 27.6255 120.473 27.9133C120.261 28.2216 120.004 28.3758 119.701 28.3758Z" fill="black"/>
<path d="M115.839 22.6405C114.628 22.6405 113.696 22.4555 113.045 22.0855C112.409 21.7155 111.97 21.1399 111.728 20.3587C111.486 19.5776 111.349 18.5703 111.319 17.3369L110.865 0.470337H112.727L113.182 16.3502C113.212 17.3575 113.28 18.1386 113.386 18.6937C113.507 19.2281 113.765 19.5981 114.158 19.8037C114.567 20.0093 115.203 20.1121 116.066 20.1121C116.384 20.1121 116.611 20.2354 116.748 20.4821C116.899 20.7082 116.975 20.9857 116.975 21.3146C116.975 21.6435 116.869 21.9519 116.657 22.2397C116.445 22.5069 116.172 22.6405 115.839 22.6405Z" fill="black"/>
<path d="M94.1701 29.5783L93.5114 27.2348C95.0408 26.577 96.2143 25.7856 97.032 24.8606C97.8649 23.9561 98.4327 23.0105 98.7356 22.0238C99.0536 21.0371 99.2126 20.0915 99.2126 19.187C99.2126 18.6114 99.1672 18.0564 99.0763 17.5219C98.9855 16.9874 98.8265 16.381 98.5993 15.7027C98.3722 15.0243 98.0542 14.1815 97.6453 13.1742L99.3035 12.0333C99.8789 13.3695 100.288 14.6337 100.53 15.826C100.787 17.0183 100.916 18.0667 100.916 18.9711C100.916 20.2662 100.757 21.4379 100.439 22.4863C100.136 23.5347 99.7275 24.4597 99.2126 25.2614C98.7129 26.0837 98.1602 26.7826 97.5545 27.3582C96.9639 27.9338 96.3658 28.4066 95.7601 28.7766C95.1695 29.1466 94.6395 29.4138 94.1701 29.5783Z" fill="black"/>
<path d="M85.2373 29.5784L84.8285 27.0499C85.7371 26.8855 86.5699 26.6491 87.327 26.3407C88.0993 26.0529 88.758 25.6315 89.3032 25.0765C89.8635 24.5215 90.295 23.7917 90.5979 22.8872C90.9007 21.9828 91.0522 20.8521 91.0522 19.4954C91.0522 18.8582 91.0067 18.2518 90.9159 17.6762C90.825 17.08 90.6887 16.5558 90.507 16.1036C90.3253 15.6514 90.1057 15.2916 89.8483 15.0244C89.606 14.7572 89.3259 14.6235 89.0079 14.6235C88.6596 14.6235 88.3416 14.8085 88.0539 15.1786C87.7813 15.528 87.5618 15.9803 87.3952 16.5353C87.2438 17.0903 87.168 17.6453 87.168 18.2004C87.168 18.632 87.2286 19.0123 87.3498 19.3412C87.486 19.6496 87.7056 19.886 88.0085 20.0504C88.3113 20.2149 88.705 20.2971 89.1896 20.2971C89.6287 20.2971 90.0679 20.2355 90.507 20.1121C90.9613 19.9888 91.3474 19.8243 91.6654 19.6188L91.7563 21.7772C91.3929 22.1267 90.9613 22.3733 90.4616 22.5172C89.977 22.6611 89.4849 22.7331 88.9852 22.7331C88.4098 22.7331 87.8949 22.6508 87.4406 22.4864C87.0015 22.3219 86.6229 22.0855 86.3049 21.7772C86.0021 21.4483 85.7673 21.0372 85.6008 20.5438C85.4493 20.0504 85.3736 19.4749 85.3736 18.8171C85.3736 18.0359 85.4645 17.2548 85.6462 16.4736C85.8279 15.6719 86.0853 14.9422 86.4185 14.2844C86.7516 13.6265 87.1529 13.1024 87.6223 12.7118C88.0918 12.3007 88.6142 12.0951 89.1896 12.0951C89.7953 12.0951 90.3253 12.3109 90.7796 12.7426C91.2339 13.1537 91.6124 13.719 91.9153 14.4385C92.2182 15.158 92.4453 15.97 92.5967 16.8745C92.7482 17.779 92.8239 18.7143 92.8239 19.6804C92.8239 21.5922 92.5362 23.2367 91.9607 24.614C91.4004 26.0118 90.5525 27.1219 89.4167 27.9441C88.2962 28.7664 86.9031 29.3111 85.2373 29.5784ZM87.1453 8.70327L86.8728 7.03819C87.2665 6.91485 87.5845 6.81207 87.8268 6.72984C88.069 6.64762 88.3416 6.55511 88.6445 6.45233L88.5309 7.09986C88.1372 6.93541 87.7586 6.58595 87.3952 6.05148C87.0469 5.51701 86.8728 4.91059 86.8728 4.23223C86.8728 3.61554 86.9788 3.10162 87.1908 2.69049C87.4179 2.25881 87.7056 1.94018 88.0539 1.73462C88.4173 1.52905 88.8035 1.42627 89.2123 1.42627C89.3789 1.42627 89.553 1.44683 89.7347 1.48794C89.9316 1.52905 90.1133 1.59072 90.2799 1.67295L90.0982 3.21469C89.9467 3.17357 89.8029 3.13246 89.6666 3.09135C89.5303 3.05023 89.3789 3.02968 89.2123 3.02968C88.864 3.02968 88.5915 3.13246 88.3946 3.33802C88.1978 3.52303 88.0993 3.79027 88.0993 4.13973C88.0993 4.57141 88.1978 4.94143 88.3946 5.24978C88.6066 5.55812 88.8413 5.8048 89.0987 5.98981C89.3713 6.15426 89.5909 6.23649 89.7575 6.23649L88.8262 6.35983C89.235 6.21593 89.6136 6.07204 89.9619 5.92814C90.3253 5.76369 90.6509 5.60951 90.9386 5.46562L91.302 7.03819C90.9386 7.2232 90.507 7.41849 90.0073 7.62405C89.5227 7.82962 89.0306 8.0249 88.5309 8.20991C88.0312 8.39492 87.5693 8.55937 87.1453 8.70327Z" fill="black"/>
<path d="M67.3439 22.5172C67.3439 22.0239 67.3742 21.4997 67.4348 20.9447C67.5105 20.3691 67.6165 19.7627 67.7528 19.1254C67.9042 18.4676 68.0859 17.779 68.2979 17.0595L69.9333 17.9229C69.7819 18.4984 69.6456 19.0432 69.5245 19.5571C69.4185 20.071 69.3352 20.5541 69.2746 21.0063C69.2292 21.4586 69.2065 21.8903 69.2065 22.3014C69.2065 23.1031 69.3276 23.802 69.5699 24.3982C69.8273 24.9943 70.1832 25.4877 70.6375 25.8782C71.0918 26.2894 71.6218 26.5977 72.2275 26.8033C72.8332 27.0088 73.4843 27.1116 74.1809 27.1116C75.2712 27.1116 76.2252 26.9472 77.0429 26.6183C77.8606 26.3099 78.542 25.9091 79.0872 25.4157C79.6323 24.9223 80.0336 24.4084 80.291 23.874C80.5636 23.3395 80.6999 22.8667 80.6999 22.4556C80.6999 22.1678 80.5711 21.9108 80.3137 21.6847C80.0563 21.4586 79.7231 21.2427 79.3143 21.0372C78.9054 20.8316 78.4739 20.6158 78.0196 20.3896C77.5653 20.143 77.1337 19.8552 76.7249 19.5263C76.316 19.1974 75.9829 18.8068 75.7255 18.3545C75.468 17.8818 75.3393 17.3267 75.3393 16.6895C75.3393 15.8467 75.4907 15.0141 75.7936 14.1919C76.1116 13.349 76.5356 12.5782 77.0656 11.8793C77.6107 11.1803 78.2164 10.6253 78.8827 10.2142C79.549 9.78249 80.238 9.56665 80.9497 9.56665C81.5857 9.56665 82.1308 9.68999 82.5851 9.93667C83.0394 10.1628 83.365 10.3786 83.5618 10.5842L82.8123 12.7735C82.5548 12.609 82.2671 12.4548 81.9491 12.3109C81.6311 12.167 81.298 12.0951 80.9497 12.0951C80.5106 12.0951 80.0639 12.2184 79.6096 12.4651C79.1704 12.7118 78.7616 13.0407 78.383 13.4518C78.0196 13.863 77.7243 14.3152 77.4972 14.8086C77.27 15.3019 77.1564 15.7953 77.1564 16.2886C77.1564 16.6381 77.2852 16.9567 77.5426 17.2445C77.8152 17.5323 78.1634 17.7995 78.5874 18.0462C79.0114 18.2929 79.4581 18.5498 79.9276 18.8171C80.4121 19.0637 80.8664 19.3413 81.2904 19.6496C81.7144 19.9374 82.0551 20.2766 82.3126 20.6672C82.5851 21.0577 82.7214 21.5202 82.7214 22.0547C82.7214 22.8153 82.5321 23.6376 82.1536 24.5215C81.775 25.4054 81.2147 26.2277 80.4727 26.9883C79.7307 27.7694 78.8222 28.4067 77.747 28.9C76.687 29.3934 75.4605 29.6401 74.0673 29.6401C73.1133 29.6401 72.2275 29.4962 71.4098 29.2084C70.6072 28.9206 69.8955 28.4786 69.2746 27.8825C68.6689 27.3069 68.1919 26.5669 67.8436 25.6624C67.5105 24.7785 67.3439 23.7301 67.3439 22.5172Z" fill="black"/>
<path d="M51.6032 29.5783L50.9445 27.2348C52.4739 26.577 53.6475 25.7856 54.4652 24.8606C55.2981 23.9561 55.8659 23.0105 56.1688 22.0238C56.4868 21.0371 56.6458 20.0915 56.6458 19.187C56.6458 18.6114 56.6003 18.0564 56.5095 17.5219C56.4186 16.9874 56.2596 16.381 56.0325 15.7027C55.8053 15.0243 55.4873 14.1815 55.0785 13.1742L56.7366 12.0333C57.3121 13.3695 57.7209 14.6337 57.9632 15.826C58.2206 17.0183 58.3493 18.0667 58.3493 18.9711C58.3493 20.2662 58.1903 21.4379 57.8723 22.4863C57.5695 23.5347 57.1606 24.4597 56.6458 25.2614C56.1461 26.0837 55.5933 26.7826 54.9876 27.3582C54.3971 27.9338 53.7989 28.4066 53.1932 28.7766C52.6027 29.1466 52.0727 29.4138 51.6032 29.5783Z" fill="black"/>
<path d="M41.9878 23.0413C40.6553 23.0413 39.5347 22.9693 38.6262 22.8255C37.7327 22.7021 37.0059 22.5068 36.4456 22.2396C35.8853 21.9724 35.4613 21.6332 35.1736 21.222C34.8859 20.8109 34.689 20.3176 34.583 19.742L35.1055 19.4953C34.7269 20.482 34.318 21.2015 33.8789 21.6537C33.4398 22.0854 32.9779 22.3629 32.4933 22.4863C32.0239 22.5891 31.5242 22.6404 30.9942 22.6404L31.2213 20.112C31.7513 20.112 32.1829 20.0092 32.516 19.8036C32.8643 19.5981 33.1445 19.2589 33.3565 18.7861C33.5836 18.3133 33.7805 17.6863 33.947 16.9052C34.1136 16.124 34.2953 15.1579 34.4922 14.0067L36.1503 14.5926C36.0595 15.0654 35.9762 15.5176 35.9005 15.9493C35.8247 16.381 35.7642 16.7613 35.7187 17.0902C35.6885 17.3985 35.6733 17.6452 35.6733 17.8302C35.6733 18.3236 35.7566 18.745 35.9232 19.0944C36.0897 19.4234 36.4077 19.7009 36.8772 19.927C37.3466 20.1326 38.0204 20.2867 38.8987 20.3895C39.7921 20.4717 40.9581 20.5128 42.3967 20.5128C43.3961 20.5128 44.2896 20.4306 45.077 20.2662C45.8644 20.1017 46.5231 19.855 47.0531 19.5261C47.5982 19.1767 48.0147 18.7553 48.3024 18.2619C48.5901 17.7686 48.7339 17.2033 48.7339 16.566C48.7339 16.1138 48.6507 15.6718 48.4841 15.2401C48.3175 14.7879 48.0601 14.4076 47.7118 14.0992C47.3635 13.7909 46.9017 13.6367 46.3263 13.6367C45.5994 13.6367 44.8725 13.8937 44.1457 14.4076C43.434 14.9215 42.7526 15.569 42.1014 16.3502C41.4654 17.1108 40.8976 17.8919 40.3979 18.6936C39.8981 19.4953 39.4969 20.1942 39.194 20.7904L37.2179 20.6979C37.7024 19.6289 38.2779 18.5394 38.9442 17.4294C39.6256 16.2988 40.3676 15.2607 41.1701 14.3151C41.9878 13.3489 42.8434 12.578 43.7368 12.0025C44.6303 11.4063 45.5388 11.1083 46.4625 11.1083C47.2954 11.1083 48.0071 11.3447 48.5977 11.8175C49.2034 12.2697 49.6652 12.8864 49.9832 13.6675C50.3164 14.4487 50.4829 15.3326 50.4829 16.3193C50.4829 17.5322 50.2179 18.6525 49.6879 19.6803C49.1731 20.6876 48.2948 21.4996 47.0531 22.1163C45.8114 22.7329 44.123 23.0413 41.9878 23.0413ZM45.8038 7.93228C45.4858 7.93228 45.2133 7.78838 44.9861 7.50059C44.7741 7.19224 44.6681 6.83251 44.6681 6.42138C44.6681 6.01025 44.7741 5.65051 44.9861 5.34216C45.2133 5.03381 45.4858 4.87964 45.8038 4.87964C46.1067 4.87964 46.3641 5.03381 46.5761 5.34216C46.8032 5.65051 46.9168 6.01025 46.9168 6.42138C46.9168 6.83251 46.8032 7.19224 46.5761 7.50059C46.3641 7.78838 46.1067 7.93228 45.8038 7.93228Z" fill="black"/>
<path d="M21.5978 29.5784L21.189 27.0499C22.0975 26.8855 22.9304 26.6491 23.6875 26.3407C24.4598 26.0529 25.1185 25.6315 25.6637 25.0765C26.2239 24.5215 26.6555 23.7917 26.9584 22.8872C27.2612 21.9828 27.4126 20.8522 27.4126 19.4954C27.4126 18.0976 27.2234 16.9361 26.8448 16.0111C26.4662 15.0861 25.9741 14.6235 25.3684 14.6235C25.0504 14.6235 24.7551 14.788 24.4825 15.1169C24.2099 15.4458 23.9828 15.8878 23.8011 16.4428C23.6345 16.9978 23.5512 17.6042 23.5512 18.262C23.5512 18.6321 23.6118 18.9404 23.733 19.1871C23.8541 19.4132 24.0282 19.5982 24.2554 19.7421C24.4977 19.8654 24.8005 19.9579 25.1639 20.0196C25.5274 20.0813 25.9514 20.1121 26.4359 20.1121H31.2286C31.5466 20.1121 31.7738 20.2355 31.91 20.4821C32.0615 20.7083 32.1372 20.9858 32.1372 21.3147C32.1372 21.6436 32.0312 21.9519 31.8192 22.2397C31.6072 22.507 31.3346 22.6406 31.0015 22.6406H25.5728C24.8914 22.6406 24.2554 22.507 23.6648 22.2397C23.0894 21.9725 22.62 21.5614 22.2565 21.0063C21.9082 20.4307 21.7341 19.6804 21.7341 18.7554C21.7341 17.892 21.8325 17.0698 22.0294 16.2886C22.2262 15.4869 22.4912 14.7777 22.8244 14.161C23.1727 13.5238 23.574 13.0201 24.0282 12.6501C24.4977 12.2801 25.0049 12.0951 25.5501 12.0951C26.2466 12.0951 26.8675 12.3726 27.4126 12.9276C27.9578 13.4827 28.3894 14.3255 28.7073 15.4561C29.0253 16.5661 29.1843 17.9742 29.1843 19.6804C29.1843 21.5922 28.8966 23.2367 28.3212 24.614C27.7609 26.0118 26.9129 27.1219 25.7772 27.9441C24.6567 28.7664 23.2635 29.3111 21.5978 29.5784Z" fill="black"/>
<path d="M16.9578 22.4863L16.5035 0.470337H18.3433L18.7976 22.4863H16.9578Z" fill="black"/>
<path d="M0 22.5171C0 22.0237 0.0302856 21.4995 0.0908566 20.9445C0.16657 20.3689 0.27257 19.7625 0.408855 19.1253C0.560282 18.4674 0.741996 17.7788 0.953994 17.0593L2.58941 17.9227C2.43799 18.4983 2.3017 19.043 2.18056 19.5569C2.07456 20.0709 1.99127 20.5539 1.9307 21.0062C1.88527 21.4584 1.86256 21.8901 1.86256 22.3012C1.86256 23.3702 2.06699 24.2541 2.47584 24.953C2.8847 25.6519 3.44498 26.1761 4.15669 26.5256C4.8684 26.875 5.67097 27.0498 6.56439 27.0498C7.57895 27.0498 8.42695 26.8648 9.10837 26.4948C9.80494 26.1247 10.3577 25.6314 10.7665 25.0147C11.1754 24.4185 11.4631 23.7505 11.6296 23.0104C11.8114 22.2704 11.9022 21.5406 11.9022 20.8212C11.9022 20.04 11.7886 19.0944 11.5615 17.9844C11.3495 16.8743 10.9482 15.497 10.3577 13.8525L12.0612 12.6808C12.3641 13.4619 12.6366 14.2842 12.8789 15.1476C13.1363 15.9904 13.3408 16.864 13.4922 17.7685C13.6588 18.6525 13.7421 19.5569 13.7421 20.482C13.7421 21.2837 13.6663 22.1059 13.5149 22.9488C13.3786 23.7916 13.1439 24.6036 12.8108 25.3847C12.4776 26.1864 12.0309 26.8956 11.4706 27.5123C10.9255 28.1496 10.2441 28.6532 9.42637 29.0232C8.62381 29.3932 7.66224 29.5782 6.54168 29.5782C5.66339 29.5782 4.82297 29.4343 4.0204 29.1465C3.23298 28.8793 2.53641 28.4579 1.9307 27.8823C1.34013 27.3067 0.870709 26.577 0.522425 25.6931C0.174142 24.8091 0 23.7505 0 22.5171ZM6.85967 10.214C6.54168 10.214 6.2691 10.0701 6.04196 9.78233C5.82996 9.47398 5.72397 9.11424 5.72397 8.70311C5.72397 8.29198 5.82996 7.93225 6.04196 7.6239C6.2691 7.31555 6.54168 7.16138 6.85967 7.16138C7.16253 7.16138 7.41996 7.31555 7.63195 7.6239C7.8591 7.93225 7.97267 8.29198 7.97267 8.70311C7.97267 9.11424 7.8591 9.47398 7.63195 9.78233C7.41996 10.0701 7.16253 10.214 6.85967 10.214Z" fill="black"/>
</svg>
