<svg width="88" height="23" viewBox="0 0 88 23" fill="none" xmlns="http://www.w3.org/2000/svg">
<path d="M85.4392 14.28L85.0392 0H86.6592L87.0592 14.28H85.4392Z" fill="#4B4C48"/>
<path d="M78.4039 14.38L78.5839 12.74C79.3439 12.74 79.8773 12.6667 80.1839 12.52C80.4906 12.3733 80.6639 12.1133 80.7039 11.74C80.7573 11.3667 80.7706 10.8467 80.7439 10.18L80.3639 0H81.9839L82.3839 10C82.4106 10.7067 82.3839 11.3333 82.3039 11.88C82.2373 12.4267 82.0639 12.8867 81.7839 13.26C81.5173 13.6333 81.1106 13.9133 80.5639 14.1C80.0306 14.2867 79.3106 14.38 78.4039 14.38Z" fill="#4B4C48"/>
<path d="M72.0594 12.74C72.726 12.74 73.2527 12.6734 73.6394 12.54C74.0394 12.4067 74.326 12.2134 74.4994 11.96C74.686 11.6934 74.7794 11.3867 74.7794 11.04C74.7794 10.7734 74.706 10.4534 74.5594 10.08C74.426 9.70669 74.2394 9.29336 73.9994 8.84002C73.7594 8.37336 73.4794 7.88669 73.1594 7.38002C72.8527 6.86002 72.5194 6.33336 72.1594 5.80002L73.5394 4.90002C74.0594 5.68669 74.5127 6.43336 74.8994 7.14002C75.286 7.83336 75.6127 8.48669 75.8794 9.10002C76.146 9.70002 76.3594 10.2667 76.5194 10.8C76.706 11.3867 76.9127 11.82 77.1394 12.1C77.3794 12.38 77.626 12.56 77.8794 12.64C78.1327 12.7067 78.366 12.74 78.5794 12.74C78.8594 12.74 79.066 12.82 79.1994 12.98C79.3327 13.1267 79.3994 13.3067 79.3994 13.52C79.3994 13.7334 79.306 13.9334 79.1194 14.12C78.9327 14.2934 78.6927 14.38 78.3994 14.38C77.9594 14.38 77.526 14.3 77.0993 14.14C76.686 13.9667 76.326 13.6934 76.0194 13.32C75.7127 12.9334 75.4994 12.42 75.3794 11.78L76.1794 11.14C76.1794 11.6734 76.066 12.1934 75.8394 12.7C75.6127 13.1934 75.1994 13.6 74.5993 13.92C74.0127 14.24 73.166 14.4 72.0594 14.4C71.5794 14.4 71.1127 14.36 70.6594 14.28C70.2194 14.2 69.8127 14.0867 69.4394 13.94C69.066 13.78 68.7394 13.5934 68.4594 13.38L69.2594 12C69.526 12.1734 69.8994 12.34 70.3794 12.5C70.8594 12.66 71.4194 12.74 72.0594 12.74Z" fill="#4B4C48"/>
<path d="M57.7008 14.38L57.9008 12.74C58.7408 12.74 59.3875 12.7333 59.8408 12.72C60.3075 12.7067 60.6475 12.6933 60.8608 12.68C61.0741 12.6533 61.2208 12.64 61.3008 12.64C61.0608 12.5067 60.7808 12.3 60.4608 12.02C60.1408 11.7267 59.8608 11.36 59.6208 10.92C59.3808 10.4667 59.2608 9.93333 59.2608 9.32C59.2608 8.56 59.4341 7.89333 59.7808 7.32C60.1408 6.74667 60.6275 6.3 61.2408 5.98C61.8675 5.66 62.5808 5.5 63.3808 5.5C63.6875 5.5 64.0141 5.52667 64.3608 5.58C64.7075 5.63333 65.0408 5.71333 65.3608 5.82L65.0208 7.36C64.7541 7.29333 64.4741 7.24 64.1808 7.2C63.8875 7.16 63.6208 7.14 63.3808 7.14C62.9008 7.14 62.4741 7.23333 62.1008 7.42C61.7275 7.59333 61.4341 7.84 61.2208 8.16C61.0075 8.48 60.9008 8.86667 60.9008 9.32C60.9008 9.66667 60.9741 9.98667 61.1208 10.28C61.2675 10.56 61.4608 10.8133 61.7008 11.04C61.9408 11.2667 62.2075 11.4533 62.5008 11.6C62.7941 11.7467 63.0808 11.86 63.3608 11.94C63.6541 12.02 63.9141 12.0533 64.1408 12.04C64.3008 11.9867 64.4475 11.94 64.5808 11.9C64.7141 11.86 64.8608 11.8133 65.0208 11.76C65.1941 11.6933 65.4008 11.6067 65.6408 11.5C65.8941 11.3933 66.2141 11.2533 66.6008 11.08L67.1608 12.54C66.2675 12.9 65.3541 13.22 64.4208 13.5C63.5008 13.78 62.4941 14 61.4008 14.16C60.3208 14.3067 59.0875 14.38 57.7008 14.38Z" fill="#4B4C48"/>
<path d="M48.0103 22.14C47.7303 21.1134 47.4903 20.1067 47.2903 19.12C47.0903 18.1467 46.937 17.2734 46.8303 16.5C46.7236 15.7267 46.6703 15.1534 46.6703 14.78C46.6703 13.7934 46.8303 12.8934 47.1503 12.08C47.4703 11.2667 47.8836 10.5534 48.3903 9.94004C48.897 9.31337 49.4436 8.78671 50.0303 8.36004C50.617 7.92004 51.1836 7.59337 51.7303 7.38004C52.2903 7.15337 52.7636 7.04004 53.1503 7.04004C53.4836 7.04004 53.777 7.11337 54.0303 7.26004C54.2836 7.40671 54.5303 7.69337 54.7703 8.12004C55.0103 8.54671 55.2636 9.17337 55.5303 10C55.7836 10.76 56.0236 11.34 56.2503 11.74C56.477 12.1267 56.7236 12.3934 56.9903 12.54C57.257 12.6734 57.5636 12.74 57.9103 12.74C58.1903 12.74 58.3903 12.82 58.5103 12.98C58.6436 13.1267 58.7103 13.3067 58.7103 13.52C58.7103 13.7334 58.617 13.9334 58.4303 14.12C58.2436 14.2934 58.0036 14.38 57.7103 14.38C57.1903 14.38 56.7436 14.2867 56.3703 14.1C56.0103 13.9134 55.697 13.66 55.4303 13.34L55.8903 12.96C55.7303 13.3467 55.5236 13.6667 55.2703 13.92C55.0303 14.16 54.757 14.34 54.4503 14.46C54.157 14.58 53.8436 14.64 53.5103 14.64C53.1236 14.64 52.7236 14.5667 52.3103 14.42C51.897 14.2867 51.4903 14.0867 51.0903 13.82C50.6903 13.54 50.3103 13.2 49.9503 12.8C49.6036 12.4 49.297 11.9467 49.0303 11.44L49.2303 11.48C48.857 12 48.6103 12.5667 48.4903 13.18C48.3703 13.78 48.3103 14.3134 48.3103 14.78C48.3103 15.1534 48.3503 15.6267 48.4303 16.2C48.5103 16.7867 48.6103 17.4067 48.7303 18.06C48.8636 18.7134 49.0036 19.36 49.1503 20C49.3103 20.6534 49.457 21.24 49.5903 21.76L48.0103 22.14ZM53.6703 13C53.9103 13 54.1036 12.9534 54.2503 12.86C54.4103 12.7667 54.517 12.6267 54.5703 12.44C54.6236 12.2534 54.6036 12.02 54.5103 11.74C54.3503 11.26 54.2036 10.84 54.0703 10.48C53.937 10.1067 53.8036 9.80004 53.6703 9.56004C53.5503 9.30671 53.4236 9.12004 53.2903 9.00004C53.157 8.88004 53.017 8.82004 52.8703 8.82004C52.7236 8.82004 52.537 8.85337 52.3103 8.92004C52.097 8.98671 51.8636 9.08671 51.6103 9.22004C51.3703 9.35337 51.1236 9.52004 50.8703 9.72004C50.617 9.92004 50.377 10.1534 50.1503 10.42L50.1703 10.26C50.4636 10.8734 50.817 11.3867 51.2303 11.8C51.657 12.2134 52.0836 12.52 52.5103 12.72C52.9503 12.9067 53.337 13 53.6703 13Z" fill="#4B4C48"/>
<path d="M37.9197 14.28L37.5197 0H39.1397L39.5397 14.28H37.9197Z" fill="#4B4C48"/>
<path d="M30.8844 14.38L31.0644 12.74C31.8244 12.74 32.3577 12.6667 32.6644 12.52C32.9711 12.3733 33.1444 12.1133 33.1844 11.74C33.2377 11.3667 33.2511 10.8467 33.2244 10.18L32.8444 0H34.4644L34.8644 10C34.8911 10.7067 34.8644 11.3333 34.7844 11.88C34.7177 12.4267 34.5444 12.8867 34.2644 13.26C33.9977 13.6333 33.5911 13.9133 33.0444 14.1C32.5111 14.2867 31.7911 14.38 30.8844 14.38Z" fill="#4B4C48"/>
<path d="M20.9821 14.3799L21.1821 12.7399C21.5154 12.7399 21.8554 12.7399 22.2021 12.7399C22.5621 12.7266 22.9154 12.7066 23.2621 12.6799C23.6087 12.6533 23.9421 12.6199 24.2621 12.5799C24.5821 12.5399 24.8687 12.4799 25.1221 12.3999C25.5887 12.2533 26.0154 12.0599 26.4021 11.8199C26.8021 11.5799 27.1221 11.2866 27.3621 10.9399C27.6154 10.5933 27.7421 10.1933 27.7421 9.73994C27.7421 9.43328 27.6687 9.11994 27.5221 8.79994C27.3754 8.46661 27.1754 8.18661 26.9221 7.95994C26.6687 7.73328 26.3754 7.61994 26.0421 7.61994C25.7221 7.61994 25.4221 7.72661 25.1421 7.93994C24.8754 8.15328 24.6554 8.43328 24.4821 8.77994C24.3221 9.11328 24.2421 9.45994 24.2421 9.81994C24.2421 10.2466 24.3487 10.6333 24.5621 10.9799C24.7887 11.3133 25.0621 11.5999 25.3821 11.8399C25.7021 12.0799 26.0221 12.2733 26.3421 12.4199L24.4421 12.9799C24.2287 12.8199 23.9754 12.5999 23.6821 12.3199C23.4021 12.0266 23.1487 11.6666 22.9221 11.2399C22.7087 10.8133 22.6021 10.3266 22.6021 9.77994C22.6021 9.24661 22.6954 8.75328 22.8821 8.29994C23.0821 7.83328 23.3421 7.42661 23.6621 7.07994C23.9954 6.73328 24.3687 6.46661 24.7821 6.27994C25.2087 6.07994 25.6487 5.97994 26.1021 5.97994C26.7554 5.97994 27.3287 6.15994 27.8221 6.51994C28.3154 6.87994 28.6954 7.33994 28.9621 7.89994C29.2421 8.44661 29.3821 9.01994 29.3821 9.61994C29.3821 10.1933 29.2754 10.7133 29.0621 11.1799C28.8487 11.6333 28.5554 12.0399 28.1821 12.3999C27.8221 12.7599 27.3954 13.0666 26.9021 13.3199C26.4221 13.5733 25.9087 13.7799 25.3621 13.9399C25.0554 14.0333 24.7221 14.1066 24.3621 14.1599C24.0154 14.2133 23.6487 14.2533 23.2621 14.2799C22.8754 14.3199 22.4887 14.3466 22.1021 14.3599C21.7154 14.3733 21.3421 14.3799 20.9821 14.3799ZM30.8821 14.3799C30.2154 14.3799 29.5221 14.3399 28.8021 14.2599C28.0954 14.1666 27.4221 14.0533 26.7821 13.9199C26.1554 13.7733 25.6354 13.6133 25.2221 13.4399L26.6021 12.4399C27.0021 12.4933 27.4754 12.5466 28.0221 12.5999C28.5687 12.6399 29.1154 12.6733 29.6621 12.6999C30.2087 12.7266 30.6821 12.7399 31.0821 12.7399C31.3621 12.7399 31.5621 12.8199 31.6821 12.9799C31.8154 13.1266 31.8821 13.3066 31.8821 13.5199C31.8821 13.7333 31.7887 13.9333 31.6021 14.1199C31.4154 14.2933 31.1754 14.3799 30.8821 14.3799ZM25.9221 3.91994C25.6421 3.91994 25.4021 3.82661 25.2021 3.63994C25.0154 3.43994 24.9221 3.20661 24.9221 2.93994C24.9221 2.67328 25.0154 2.43994 25.2021 2.23994C25.4021 2.03994 25.6421 1.93994 25.9221 1.93994C26.1887 1.93994 26.4154 2.03994 26.6021 2.23994C26.8021 2.43994 26.9021 2.67328 26.9021 2.93994C26.9021 3.20661 26.8021 3.43994 26.6021 3.63994C26.4154 3.82661 26.1887 3.91994 25.9221 3.91994Z" fill="#4B4C48"/>
<path d="M14.1266 14.3801L14.3266 12.7401C14.8866 12.7401 15.3266 12.6934 15.6466 12.6001C15.9666 12.4934 16.2066 12.3001 16.3666 12.0201C16.5399 11.7267 16.6866 11.3067 16.8066 10.7601C16.9266 10.2134 17.0733 9.50008 17.2466 8.62008L18.8066 8.92008C18.7533 9.16008 18.6933 9.42675 18.6266 9.72008C18.5599 10.0134 18.4999 10.3067 18.4466 10.6001C18.4066 10.8801 18.3866 11.1267 18.3866 11.3401C18.3866 11.6067 18.4466 11.8467 18.5666 12.0601C18.6866 12.2734 18.9466 12.4401 19.3466 12.5601C19.7466 12.6801 20.3599 12.7401 21.1866 12.7401C21.4666 12.7401 21.6666 12.8201 21.7866 12.9801C21.9199 13.1267 21.9866 13.3067 21.9866 13.5201C21.9866 13.7334 21.8933 13.9334 21.7066 14.1201C21.5199 14.2934 21.2799 14.3801 20.9866 14.3801C20.1199 14.3801 19.4399 14.3067 18.9466 14.1601C18.4533 14.0001 18.0933 13.7667 17.8666 13.4601C17.6399 13.1401 17.4866 12.7534 17.4066 12.3001L18.0066 12.3401C17.7933 12.7667 17.5599 13.1134 17.3066 13.3801C17.0666 13.6467 16.7999 13.8534 16.5066 14.0001C16.2133 14.1467 15.8733 14.2467 15.4866 14.3001C15.0999 14.3534 14.6466 14.3801 14.1266 14.3801ZM17.2466 6.56008C16.9666 6.56008 16.7266 6.46675 16.5266 6.28008C16.3399 6.08008 16.2466 5.84674 16.2466 5.58008C16.2466 5.31341 16.3399 5.08008 16.5266 4.88008C16.7266 4.68008 16.9666 4.58008 17.2466 4.58008C17.5133 4.58008 17.7399 4.68008 17.9266 4.88008C18.1266 5.08008 18.2266 5.31341 18.2266 5.58008C18.2266 5.84674 18.1266 6.08008 17.9266 6.28008C17.7399 6.46675 17.5133 6.56008 17.2466 6.56008Z" fill="#4B4C48"/>
<path d="M0 14.3C0 13.98 0.0266667 13.64 0.08 13.28C0.146667 12.9067 0.24 12.5133 0.36 12.1C0.493333 11.6733 0.653333 11.2267 0.84 10.76L2.28 11.32C2.14667 11.6933 2.02667 12.0467 1.92 12.38C1.82667 12.7133 1.75333 13.0267 1.7 13.32C1.66 13.6133 1.64 13.8933 1.64 14.16C1.64 14.72 1.76 15.1933 2 15.58C2.25333 15.98 2.6 16.3067 3.04 16.56C3.48 16.8133 3.98 17 4.54 17.12C5.11333 17.24 5.72 17.3 6.36 17.3C7.13333 17.3 7.85333 17.2333 8.52 17.1C9.2 16.9667 9.79333 16.7733 10.3 16.52C10.82 16.28 11.2267 16 11.52 15.68C11.8133 15.3733 11.96 15.04 11.96 14.68C11.96 14.5067 11.8933 14.3467 11.76 14.2C11.6267 14.0533 11.4267 13.9133 11.16 13.78C10.8933 13.6467 10.5733 13.52 10.2 13.4C9.82667 13.2667 9.4 13.1333 8.92 13L9.3 11.34C9.99333 11.6067 10.6067 11.8333 11.14 12.02C11.6733 12.1933 12.14 12.3333 12.54 12.44C12.94 12.5467 13.2867 12.6267 13.58 12.68C13.8733 12.72 14.12 12.74 14.32 12.74C14.6 12.74 14.8 12.82 14.92 12.98C15.0533 13.1267 15.12 13.3067 15.12 13.52C15.12 13.7333 15.0267 13.9333 14.84 14.12C14.6533 14.2933 14.4133 14.38 14.12 14.38C14.04 14.38 13.96 14.38 13.88 14.38C13.8 14.38 13.7133 14.38 13.62 14.38C13.54 14.38 13.46 14.38 13.38 14.38C13.4067 14.5 13.4267 14.5933 13.44 14.66C13.4533 14.74 13.46 14.84 13.46 14.96C13.46 15.4533 13.2867 15.9333 12.94 16.4C12.6067 16.8667 12.1133 17.2867 11.46 17.66C10.8067 18.0467 10.0133 18.3533 9.08 18.58C8.16 18.8067 7.10667 18.92 5.92 18.92C4.86667 18.92 3.88667 18.7467 2.98 18.4C2.08667 18.0667 1.36667 17.56 0.82 16.88C0.273333 16.2 0 15.34 0 14.3ZM7.36 22.7C7.08 22.7 6.84 22.6 6.64 22.4C6.45333 22.2133 6.36 21.9867 6.36 21.72C6.36 21.4533 6.45333 21.22 6.64 21.02C6.84 20.82 7.08 20.72 7.36 20.72C7.62667 20.72 7.85333 20.82 8.04 21.02C8.24 21.22 8.34 21.4533 8.34 21.72C8.34 21.9867 8.24 22.2133 8.04 22.4C7.85333 22.6 7.62667 22.7 7.36 22.7ZM4.62 22.7C4.34 22.7 4.1 22.6 3.9 22.4C3.71333 22.2133 3.62 21.9867 3.62 21.72C3.62 21.4533 3.71333 21.22 3.9 21.02C4.1 20.82 4.34 20.72 4.62 20.72C4.88667 20.72 5.11333 20.82 5.3 21.02C5.5 21.22 5.6 21.4533 5.6 21.72C5.6 21.9867 5.5 22.2133 5.3 22.4C5.11333 22.6 4.88667 22.7 4.62 22.7Z" fill="#4B4C48"/>
</svg>
