<svg width="68" height="68" viewBox="0 0 68 68" fill="none" xmlns="http://www.w3.org/2000/svg">
<path d="M35.9765 31.9571C35.4474 31.4384 34.736 31.1479 33.9951 31.1479C33.2542 31.1479 32.5429 31.4384 32.0137 31.9571L23.5221 40.1657C23.2217 40.4135 22.9757 40.7207 22.7995 41.0679C22.6233 41.4152 22.5206 41.795 22.4979 42.1838C22.4751 42.5725 22.5329 42.9617 22.6674 43.3272C22.802 43.6926 23.0105 44.0263 23.28 44.3074C23.5494 44.5886 23.8739 44.8111 24.2333 44.9611C24.5926 45.1111 24.9791 45.1853 25.3684 45.1791C25.7578 45.173 26.1417 45.0865 26.4961 44.9252C26.8505 44.7639 27.1679 44.5312 27.4282 44.2417L31.1363 40.6469V56.6112C31.1363 57.3619 31.4345 58.0819 31.9653 58.6127C32.4961 59.1436 33.2161 59.4418 33.9668 59.4418C34.7175 59.4418 35.4375 59.1436 35.9683 58.6127C36.4992 58.0819 36.7974 57.3619 36.7974 56.6112V40.7884L40.4488 44.4681C40.7119 44.7334 41.025 44.944 41.3699 45.0877C41.7148 45.2314 42.0848 45.3054 42.4585 45.3054C42.8322 45.3054 43.2021 45.2314 43.5471 45.0877C43.892 44.944 44.205 44.7334 44.4682 44.4681C44.7335 44.205 44.9441 43.8919 45.0878 43.547C45.2315 43.2021 45.3055 42.8321 45.3055 42.4584C45.3055 42.0848 45.2315 41.7148 45.0878 41.3699C44.9441 41.0249 44.7335 40.7119 44.4682 40.4487L35.9765 31.9571Z" fill="#231F20"/>
<path d="M50.0159 19.8138C48.8609 16.4768 46.6944 13.5827 43.8179 11.5344C40.9414 9.48601 37.4979 8.38525 33.9667 8.38525C30.4354 8.38525 26.9919 9.48601 24.1154 11.5344C21.2389 13.5827 19.0724 16.4768 17.9174 19.8138C15.3743 20.1545 12.9716 21.18 10.9664 22.7808C8.9612 24.3816 7.42888 26.4974 6.53338 28.9019C5.63788 31.3063 5.41289 33.909 5.88247 36.4315C6.35205 38.954 7.49854 41.3014 9.1993 43.2225C9.40474 43.5844 9.68743 43.8965 10.0273 44.1367C10.3671 44.3768 10.7557 44.5391 11.1654 44.6119C11.5751 44.6848 11.9958 44.6664 12.3975 44.5581C12.7993 44.4498 13.1723 44.2542 13.4899 43.9853C13.8074 43.7164 14.0618 43.3809 14.2349 43.0024C14.408 42.624 14.4955 42.2121 14.4912 41.796C14.487 41.3799 14.391 40.9699 14.2102 40.5951C14.0294 40.2203 13.7682 39.89 13.4451 39.6277C12.35 38.4034 11.6335 36.8877 11.3825 35.2644C11.1314 33.6411 11.3566 31.9798 12.0306 30.4818C12.7047 28.9839 13.7988 27.7136 15.1802 26.8249C16.5617 25.9362 18.1713 25.4673 19.8139 25.475H20.0969C20.7591 25.4883 21.405 25.269 21.9222 24.8553C22.4394 24.4415 22.7952 23.8595 22.9275 23.2105C23.4472 20.651 24.8358 18.3499 26.858 16.6971C28.8802 15.0443 31.4116 14.1414 34.0233 14.1414C36.635 14.1414 39.1664 15.0443 41.1885 16.6971C43.2107 18.3499 44.5993 20.651 45.119 23.2105C45.2514 23.8595 45.6071 24.4415 46.1243 24.8553C46.6415 25.269 47.2874 25.4883 47.9496 25.475H48.1194C49.762 25.4673 51.3716 25.9362 52.7531 26.8249C54.1345 27.7136 55.2286 28.9839 55.9027 30.4818C56.5768 31.9798 56.8019 33.6411 56.5508 35.2644C56.2998 36.8877 55.5833 38.4034 54.4882 39.6277C54.2388 39.9073 54.0475 40.2337 53.9252 40.5878C53.803 40.9419 53.7522 41.3168 53.7759 41.6906C53.7996 42.0645 53.8973 42.43 54.0633 42.7658C54.2293 43.1017 54.4603 43.4012 54.7429 43.6471C55.2589 44.1022 55.9231 44.3538 56.6111 44.3548C57.013 44.3542 57.4102 44.2682 57.7762 44.1022C58.1423 43.9363 58.4688 43.6943 58.734 43.3924C60.4819 41.4745 61.6689 39.113 62.1653 36.566C62.6616 34.019 62.4482 31.3846 61.5482 28.9508C60.6483 26.5169 59.0966 24.3774 57.0627 22.7659C55.0288 21.1545 52.5911 20.1333 50.0159 19.8138Z" fill="#231F20"/>
</svg>
