<svg width="51" height="47" viewBox="0 0 51 47" fill="none" xmlns="http://www.w3.org/2000/svg">
<path d="M42.5 23.1671C41.9364 23.1671 41.3959 23.3734 40.9974 23.7407C40.5989 24.1079 40.375 24.606 40.375 25.1254V36.0333C40.375 36.345 40.2407 36.6438 40.0016 36.8642C39.7625 37.0845 39.4381 37.2083 39.1 37.2083H11.9C11.5618 37.2083 11.2375 37.0845 10.9984 36.8642C10.7593 36.6438 10.625 36.345 10.625 36.0333V10.9667C10.625 10.655 10.7593 10.3562 10.9984 10.1358C11.2375 9.91546 11.5618 9.79167 11.9 9.79167H32.2362C32.7998 9.79167 33.3403 9.58534 33.7389 9.21808C34.1374 8.85083 34.3612 8.35272 34.3612 7.83333C34.3612 7.31395 34.1374 6.81584 33.7389 6.44858C33.3403 6.08132 32.7998 5.875 32.2362 5.875H11.9C10.4364 5.88016 9.03435 6.41826 7.99942 7.37201C6.96449 8.32577 6.3806 9.61786 6.375 10.9667V36.0333C6.3806 37.3821 6.96449 38.6742 7.99942 39.628C9.03435 40.5817 10.4364 41.1198 11.9 41.125H39.1C40.5636 41.1198 41.9657 40.5817 43.0006 39.628C44.0355 38.6742 44.6194 37.3821 44.625 36.0333V25.1254C44.625 24.606 44.4011 24.1079 44.0026 23.7407C43.6041 23.3734 43.0636 23.1671 42.5 23.1671Z" fill="#4B4C48"/>
<path d="M22.78 21.541C22.3812 21.2105 21.8616 21.0312 21.3253 21.039C20.7891 21.0468 20.2759 21.2412 19.8887 21.5832C19.5015 21.9252 19.2689 22.3894 19.2376 22.8828C19.2063 23.3762 19.3786 23.8623 19.72 24.2435L24.4375 28.8064C24.635 28.9973 24.8723 29.1495 25.1352 29.2539C25.3981 29.3582 25.6812 29.4125 25.9675 29.4135C26.2522 29.415 26.5344 29.3638 26.7972 29.2629C27.06 29.162 27.2982 29.0134 27.4975 28.826L41.905 15.1176C42.1003 14.9325 42.2542 14.7137 42.3577 14.4737C42.4613 14.2338 42.5126 13.9773 42.5087 13.7191C42.5047 13.4609 42.4456 13.2059 42.3347 12.9687C42.2239 12.7316 42.0634 12.5168 41.8625 12.3368C41.6615 12.1568 41.4241 12.015 41.1637 11.9195C40.9034 11.8241 40.6251 11.7768 40.3449 11.7805C40.0647 11.7841 39.788 11.8386 39.5307 11.9407C39.2733 12.0429 39.0403 12.1908 38.845 12.376L25.9887 24.6351L22.78 21.541Z" fill="#4B4C48"/>
</svg>
