<svg width="151" height="23" viewBox="0 0 151 23" fill="none" xmlns="http://www.w3.org/2000/svg">
<path d="M138.066 15.1L138.266 13.46H142.446C143.606 13.46 144.606 13.4133 145.446 13.32C146.3 13.2133 147 13.06 147.546 12.86C148.093 12.66 148.5 12.4066 148.766 12.1C149.033 11.78 149.166 11.4066 149.166 10.98C149.166 10.7533 149.093 10.5066 148.946 10.24C148.8 9.9733 148.573 9.74664 148.266 9.55997C147.96 9.35997 147.553 9.25997 147.046 9.25997C146.406 9.25997 145.766 9.42664 145.126 9.75997C144.5 10.0933 143.9 10.5133 143.326 11.02C142.766 11.5133 142.266 12.02 141.826 12.54C141.386 13.06 141.033 13.5133 140.766 13.9L139.026 13.84C139.453 13.1466 139.96 12.44 140.546 11.72C141.146 10.9866 141.8 10.3133 142.506 9.69997C143.226 9.07331 143.98 8.5733 144.766 8.19997C145.553 7.8133 146.353 7.61997 147.166 7.61997C147.9 7.61997 148.526 7.7733 149.046 8.07997C149.58 8.3733 149.986 8.7733 150.266 9.27997C150.56 9.78664 150.706 10.36 150.706 11C150.706 11.6266 150.48 12.26 150.026 12.9C149.573 13.5266 148.793 14.02 147.686 14.38C147.126 14.5666 146.486 14.7133 145.766 14.82C145.046 14.9266 144.226 15 143.306 15.04C142.386 15.08 141.34 15.1 140.166 15.1H138.066ZM139.966 13.12L139.566 0.719971H141.186L141.586 11.72L139.966 13.12Z" fill="#4B4C48"/>
<path d="M132.07 15.1L132.25 13.46C133.01 13.46 133.544 13.3866 133.85 13.24C134.157 13.0933 134.33 12.8333 134.37 12.46C134.424 12.0866 134.437 11.5666 134.41 10.9L134.07 0.719971H135.73L136.05 10.86C136.077 11.54 136.184 12.0733 136.37 12.46C136.57 12.8333 136.837 13.0933 137.17 13.24C137.504 13.3866 137.87 13.46 138.27 13.46C138.55 13.46 138.75 13.54 138.87 13.7C139.004 13.8466 139.07 14.0266 139.07 14.24C139.07 14.4533 138.977 14.6533 138.79 14.84C138.604 15.0133 138.364 15.1 138.07 15.1C137.51 15.1 137.044 15.0133 136.67 14.84C136.31 14.6533 136.024 14.42 135.81 14.14C135.61 13.8466 135.477 13.54 135.41 13.22L135.83 13.26C135.697 13.66 135.477 14 135.17 14.28C134.877 14.5466 134.477 14.7533 133.97 14.9C133.464 15.0333 132.83 15.1 132.07 15.1Z" fill="#4B4C48"/>
<path d="M118.015 15.42L118.535 13.78C119.348 13.78 120.208 13.7333 121.115 13.64C122.021 13.5333 122.921 13.3533 123.815 13.1C124.721 12.8333 125.581 12.4733 126.395 12.02C127.208 11.5666 127.921 10.9933 128.535 10.3L129.795 11.04C129.675 11.3466 129.595 11.5933 129.555 11.78C129.515 11.9533 129.495 12.1133 129.495 12.26C129.495 12.46 129.568 12.6533 129.715 12.84C129.861 13.0133 130.135 13.16 130.535 13.28C130.948 13.4 131.528 13.46 132.275 13.46C132.555 13.46 132.755 13.54 132.875 13.7C133.008 13.8466 133.075 14.0266 133.075 14.24C133.075 14.4533 132.981 14.6533 132.795 14.84C132.608 15.0133 132.368 15.1 132.075 15.1C131.221 15.1 130.468 15.0133 129.815 14.84C129.175 14.6533 128.695 14.3666 128.375 13.98C128.068 13.58 127.968 13.0666 128.075 12.44L128.435 12.56C127.901 13.04 127.261 13.46 126.515 13.82C125.781 14.1666 124.961 14.46 124.055 14.7C123.161 14.94 122.201 15.12 121.175 15.24C120.161 15.36 119.108 15.42 118.015 15.42ZM118.015 15.42C116.828 15.42 115.781 15.34 114.875 15.18C113.981 15.0333 113.235 14.8 112.635 14.48C112.035 14.16 111.581 13.7466 111.275 13.24C110.968 12.72 110.815 12.0933 110.815 11.36C110.815 11.0266 110.841 10.6866 110.895 10.34C110.948 9.97997 111.015 9.61997 111.095 9.25997C111.188 8.89997 111.281 8.5533 111.375 8.21997L112.875 8.59997C112.821 8.79997 112.761 9.03997 112.695 9.31997C112.628 9.58664 112.568 9.85997 112.515 10.14C112.475 10.42 112.455 10.6733 112.455 10.9C112.455 11.5933 112.628 12.1533 112.975 12.58C113.335 12.9933 113.955 13.3 114.835 13.5C115.715 13.6866 116.948 13.78 118.535 13.78L118.935 14.78L118.015 15.42ZM119.475 19.22C119.195 19.22 118.955 19.12 118.755 18.92C118.568 18.7333 118.475 18.5066 118.475 18.24C118.475 17.9733 118.568 17.74 118.755 17.54C118.955 17.34 119.195 17.24 119.475 17.24C119.741 17.24 119.968 17.34 120.155 17.54C120.355 17.74 120.455 17.9733 120.455 18.24C120.455 18.5066 120.355 18.7333 120.155 18.92C119.968 19.12 119.741 19.22 119.475 19.22Z" fill="#4B4C48"/>
<path d="M101.664 15L101.264 0.719971H102.884L103.284 15H101.664Z" fill="#4B4C48"/>
<path d="M94.6289 15.1L94.8089 13.46C95.5689 13.46 96.1022 13.3866 96.4089 13.24C96.7156 13.0933 96.8889 12.8333 96.9289 12.46C96.9822 12.0866 96.9956 11.5666 96.9689 10.9L96.5889 0.719971H98.2089L98.6089 10.72C98.6356 11.4266 98.6089 12.0533 98.5289 12.6C98.4622 13.1466 98.2889 13.6066 98.0089 13.98C97.7422 14.3533 97.3356 14.6333 96.7889 14.82C96.2556 15.0066 95.5356 15.1 94.6289 15.1Z" fill="#4B4C48"/>
<path d="M87.168 15.1L87.368 13.46C88.0346 13.46 88.5546 13.4134 88.928 13.32C89.3013 13.2134 89.5813 13.02 89.768 12.74C89.968 12.4467 90.128 12.0267 90.248 11.48C90.368 10.9334 90.5146 10.22 90.688 9.34005L92.248 9.64005C92.1946 9.88005 92.1346 10.1467 92.068 10.44C92.0013 10.7334 91.9413 11.0267 91.888 11.32C91.848 11.6 91.828 11.8467 91.828 12.06C91.828 12.26 91.8413 12.4467 91.868 12.6201C91.8946 12.7934 91.9946 12.94 92.168 13.06C92.3413 13.18 92.6346 13.2801 93.048 13.3601C93.4613 13.4267 94.0546 13.46 94.828 13.46C95.108 13.46 95.308 13.5401 95.428 13.7001C95.5613 13.8467 95.628 14.0267 95.628 14.24C95.628 14.4534 95.5346 14.6534 95.348 14.84C95.1613 15.0134 94.9213 15.1 94.628 15.1C93.8146 15.1 93.168 15.06 92.688 14.98C92.208 14.8867 91.8413 14.7534 91.588 14.58C91.348 14.4067 91.1746 14.1934 91.068 13.9401C90.9746 13.6734 90.9013 13.3667 90.848 13.0201L91.448 13.06C91.2346 13.4867 91.0013 13.8334 90.748 14.1C90.508 14.3667 90.228 14.5734 89.908 14.72C89.588 14.8667 89.2013 14.9667 88.748 15.0201C88.308 15.0734 87.7813 15.1 87.168 15.1ZM92.508 7.28005C92.228 7.28005 91.988 7.18672 91.788 7.00005C91.6013 6.80005 91.508 6.56672 91.508 6.30005C91.508 6.03338 91.6013 5.80005 91.788 5.60005C91.988 5.40005 92.228 5.30005 92.508 5.30005C92.7746 5.30005 93.0013 5.40005 93.188 5.60005C93.388 5.80005 93.488 6.03338 93.488 6.30005C93.488 6.56672 93.388 6.80005 93.188 7.00005C93.0013 7.18672 92.7746 7.28005 92.508 7.28005ZM89.768 7.28005C89.488 7.28005 89.248 7.18672 89.048 7.00005C88.8613 6.80005 88.768 6.56672 88.768 6.30005C88.768 6.03338 88.8613 5.80005 89.048 5.60005C89.248 5.40005 89.488 5.30005 89.768 5.30005C90.0346 5.30005 90.2613 5.40005 90.448 5.60005C90.648 5.80005 90.748 6.03338 90.748 6.30005C90.748 6.56672 90.648 6.80005 90.448 7.00005C90.2613 7.18672 90.0346 7.28005 89.768 7.28005Z" fill="#4B4C48"/>
<path d="M77.2656 15.1L77.4656 13.46C77.799 13.46 78.139 13.46 78.4856 13.46C78.8456 13.4467 79.199 13.4267 79.5456 13.4C79.8923 13.3734 80.2256 13.34 80.5456 13.3C80.8656 13.26 81.1523 13.2 81.4056 13.12C81.8723 12.9734 82.299 12.78 82.6856 12.54C83.0856 12.3 83.4056 12.0067 83.6456 11.66C83.899 11.3134 84.0256 10.9134 84.0256 10.46C84.0256 10.1534 83.9523 9.84003 83.8056 9.52003C83.659 9.1867 83.459 8.9067 83.2056 8.68003C82.9523 8.45337 82.659 8.34004 82.3256 8.34004C82.0056 8.34004 81.7056 8.4467 81.4256 8.66004C81.159 8.87337 80.939 9.15337 80.7656 9.50004C80.6056 9.83337 80.5256 10.18 80.5256 10.54C80.5256 10.9667 80.6323 11.3534 80.8456 11.7C81.0723 12.0334 81.3456 12.32 81.6656 12.56C81.9856 12.8 82.3056 12.9934 82.6256 13.14L80.7256 13.7C80.5123 13.54 80.259 13.32 79.9656 13.04C79.6856 12.7467 79.4323 12.3867 79.2056 11.96C78.9923 11.5334 78.8856 11.0467 78.8856 10.5C78.8856 9.9667 78.979 9.47337 79.1656 9.02003C79.3656 8.55337 79.6256 8.1467 79.9456 7.80003C80.279 7.45337 80.6523 7.1867 81.0656 7.00004C81.4923 6.80003 81.9323 6.70004 82.3856 6.70004C83.039 6.70004 83.6123 6.88003 84.1056 7.24004C84.599 7.60003 84.979 8.06003 85.2456 8.62004C85.5256 9.1667 85.6656 9.74004 85.6656 10.34C85.6656 10.9134 85.559 11.4334 85.3456 11.9C85.1323 12.3534 84.839 12.76 84.4656 13.12C84.1056 13.48 83.679 13.7867 83.1856 14.04C82.7056 14.2934 82.1923 14.5 81.6456 14.66C81.339 14.7534 81.0056 14.8267 80.6456 14.88C80.299 14.9334 79.9323 14.9734 79.5456 15C79.159 15.04 78.7723 15.0667 78.3856 15.08C77.999 15.0934 77.6256 15.1 77.2656 15.1ZM87.1656 15.1C86.499 15.1 85.8056 15.06 85.0856 14.98C84.379 14.8867 83.7056 14.7734 83.0656 14.64C82.439 14.4934 81.919 14.3334 81.5056 14.16L82.8856 13.16C83.2856 13.2134 83.759 13.2667 84.3056 13.32C84.8523 13.36 85.399 13.3934 85.9456 13.42C86.4923 13.4467 86.9656 13.46 87.3656 13.46C87.6456 13.46 87.8456 13.54 87.9656 13.7C88.099 13.8467 88.1656 14.0267 88.1656 14.24C88.1656 14.4534 88.0723 14.6534 87.8856 14.84C87.699 15.0134 87.459 15.1 87.1656 15.1ZM83.6056 4.64003C83.3256 4.64003 83.0856 4.5467 82.8856 4.36003C82.699 4.16003 82.6056 3.9267 82.6056 3.66003C82.6056 3.39337 82.699 3.16003 82.8856 2.96003C83.0856 2.76003 83.3256 2.66003 83.6056 2.66003C83.8723 2.66003 84.099 2.76003 84.2856 2.96003C84.4856 3.16003 84.5856 3.39337 84.5856 3.66003C84.5856 3.9267 84.4856 4.16003 84.2856 4.36003C84.099 4.5467 83.8723 4.64003 83.6056 4.64003ZM80.8656 4.64003C80.5856 4.64003 80.3456 4.5467 80.1456 4.36003C79.959 4.16003 79.8656 3.9267 79.8656 3.66003C79.8656 3.39337 79.959 3.16003 80.1456 2.96003C80.3456 2.76003 80.5856 2.66003 80.8656 2.66003C81.1323 2.66003 81.359 2.76003 81.5456 2.96003C81.7456 3.16003 81.8456 3.39337 81.8456 3.66003C81.8456 3.9267 81.7456 4.16003 81.5456 4.36003C81.359 4.5467 81.1323 4.64003 80.8656 4.64003Z" fill="#4B4C48"/>
<path d="M70.9211 13.46C71.5877 13.46 72.1144 13.3933 72.501 13.26C72.901 13.1267 73.1877 12.9333 73.361 12.68C73.5477 12.4133 73.641 12.1067 73.641 11.76C73.641 11.4933 73.5677 11.1733 73.4211 10.8C73.2877 10.4267 73.101 10.0133 72.861 9.55999C72.621 9.09333 72.341 8.60666 72.021 8.09999C71.7144 7.57999 71.381 7.05333 71.021 6.51999L72.401 5.62C72.921 6.40666 73.3744 7.15333 73.761 7.85999C74.1477 8.55333 74.4744 9.20666 74.7411 9.81999C75.0077 10.42 75.2211 10.9867 75.3811 11.52C75.5677 12.1067 75.7744 12.54 76.001 12.82C76.241 13.1 76.4877 13.28 76.7411 13.36C76.9944 13.4267 77.2277 13.46 77.441 13.46C77.721 13.46 77.9277 13.54 78.0611 13.7C78.1944 13.8467 78.261 14.0267 78.261 14.24C78.261 14.4533 78.1677 14.6533 77.981 14.84C77.7944 15.0133 77.5544 15.1 77.261 15.1C76.821 15.1 76.3877 15.02 75.961 14.86C75.5477 14.6867 75.1877 14.4133 74.8811 14.04C74.5744 13.6533 74.3611 13.14 74.2411 12.5L75.041 11.86C75.041 12.3933 74.9277 12.9133 74.701 13.42C74.4744 13.9133 74.061 14.32 73.461 14.64C72.8744 14.96 72.0277 15.12 70.9211 15.12C70.4411 15.12 69.9744 15.08 69.521 15C69.081 14.92 68.6744 14.8067 68.301 14.66C67.9277 14.5 67.601 14.3133 67.321 14.1L68.121 12.72C68.3877 12.8933 68.7611 13.06 69.2411 13.22C69.7211 13.38 70.2811 13.46 70.9211 13.46Z" fill="#4B4C48"/>
<path d="M60.6445 15.1001L60.8445 13.4601C61.6312 13.4601 62.2445 13.4334 62.6845 13.3801C63.1245 13.3134 63.4378 13.1601 63.6245 12.9201C63.8112 12.6667 63.9045 12.2734 63.9045 11.7401C63.9045 11.4067 63.8512 11.0134 63.7445 10.5601C63.6378 10.0934 63.4978 9.60006 63.3245 9.08006C63.1512 8.56006 62.9645 8.04673 62.7645 7.54006L64.3845 6.94006C64.5578 7.36673 64.7178 7.8534 64.8645 8.40006C65.0245 8.94673 65.1578 9.48673 65.2645 10.0201C65.3712 10.5534 65.4245 11.0201 65.4245 11.4201C65.4245 12.0867 65.3312 12.6534 65.1445 13.1201C64.9712 13.5867 64.6912 13.9667 64.3045 14.2601C63.9178 14.5534 63.4178 14.7667 62.8045 14.9001C62.2045 15.0334 61.4845 15.1001 60.6445 15.1001ZM64.3445 18.8801C64.0645 18.8801 63.8245 18.7801 63.6245 18.5801C63.4378 18.3934 63.3445 18.1667 63.3445 17.9001C63.3445 17.6334 63.4378 17.4001 63.6245 17.2001C63.8245 17.0001 64.0645 16.9001 64.3445 16.9001C64.6112 16.9001 64.8378 17.0001 65.0245 17.2001C65.2245 17.4001 65.3245 17.6334 65.3245 17.9001C65.3245 18.1667 65.2245 18.3934 65.0245 18.5801C64.8378 18.7801 64.6112 18.8801 64.3445 18.8801ZM61.6045 18.8801C61.3245 18.8801 61.0845 18.7801 60.8845 18.5801C60.6978 18.3934 60.6045 18.1667 60.6045 17.9001C60.6045 17.6334 60.6978 17.4001 60.8845 17.2001C61.0845 17.0001 61.3245 16.9001 61.6045 16.9001C61.8712 16.9001 62.0978 17.0001 62.2845 17.2001C62.4845 17.4001 62.5845 17.6334 62.5845 17.9001C62.5845 18.1667 62.4845 18.3934 62.2845 18.5801C62.0978 18.7801 61.8712 18.8801 61.6045 18.8801Z" fill="#4B4C48"/>
<path d="M50.954 22.86C50.674 21.8333 50.434 20.8267 50.234 19.84C50.034 18.8667 49.8807 17.9933 49.774 17.22C49.6673 16.4467 49.614 15.8733 49.614 15.5C49.614 14.5133 49.774 13.6133 50.094 12.8C50.414 11.9867 50.8273 11.2733 51.334 10.66C51.8407 10.0333 52.3873 9.50668 52.974 9.08001C53.5607 8.64001 54.1273 8.31334 54.674 8.10001C55.234 7.87334 55.7073 7.76001 56.094 7.76001C56.4273 7.76001 56.7207 7.83334 56.974 7.98001C57.2273 8.12668 57.474 8.41334 57.714 8.84001C57.954 9.26668 58.2073 9.89334 58.474 10.72C58.7273 11.48 58.9673 12.06 59.194 12.46C59.4207 12.8467 59.6673 13.1133 59.934 13.26C60.2007 13.3933 60.5073 13.46 60.854 13.46C61.134 13.46 61.334 13.54 61.454 13.7C61.5873 13.8467 61.654 14.0267 61.654 14.24C61.654 14.4533 61.5607 14.6533 61.374 14.84C61.1873 15.0133 60.9473 15.1 60.654 15.1C60.134 15.1 59.6873 15.0067 59.314 14.82C58.954 14.6333 58.6407 14.38 58.374 14.06L58.834 13.68C58.674 14.0667 58.4673 14.3867 58.214 14.64C57.974 14.88 57.7007 15.06 57.394 15.18C57.1007 15.3 56.7873 15.36 56.454 15.36C56.0673 15.36 55.6673 15.2867 55.254 15.14C54.8407 15.0067 54.434 14.8067 54.034 14.54C53.634 14.26 53.254 13.92 52.894 13.52C52.5473 13.12 52.2407 12.6667 51.974 12.16L52.174 12.2C51.8007 12.72 51.554 13.2867 51.434 13.9C51.314 14.5 51.254 15.0333 51.254 15.5C51.254 15.8733 51.294 16.3467 51.374 16.92C51.454 17.5067 51.554 18.1267 51.674 18.78C51.8073 19.4333 51.9473 20.08 52.094 20.72C52.254 21.3733 52.4007 21.96 52.534 22.48L50.954 22.86ZM56.614 13.72C56.854 13.72 57.0473 13.6733 57.194 13.58C57.354 13.4867 57.4607 13.3467 57.514 13.16C57.5673 12.9733 57.5473 12.74 57.454 12.46C57.294 11.98 57.1473 11.56 57.014 11.2C56.8807 10.8267 56.7473 10.52 56.614 10.28C56.494 10.0267 56.3673 9.84001 56.234 9.72001C56.1007 9.60001 55.9607 9.54001 55.814 9.54001C55.6673 9.54001 55.4807 9.57334 55.254 9.64001C55.0407 9.70668 54.8073 9.80668 54.554 9.94001C54.314 10.0733 54.0673 10.24 53.814 10.44C53.5607 10.64 53.3207 10.8733 53.094 11.14L53.114 10.98C53.4073 11.5933 53.7607 12.1067 54.174 12.52C54.6007 12.9333 55.0273 13.24 55.454 13.44C55.894 13.6267 56.2807 13.72 56.614 13.72Z" fill="#4B4C48"/>
<path d="M38.5938 15.1L38.7738 13.46C39.5338 13.46 40.0671 13.3866 40.3737 13.24C40.6804 13.0933 40.8537 12.8333 40.8937 12.46C40.9471 12.0866 40.9604 11.5666 40.9338 10.9L40.5537 0.719971H42.1738L42.5737 10.72C42.6004 11.4266 42.5738 12.0533 42.4938 12.6C42.4271 13.1466 42.2538 13.6066 41.9738 13.98C41.7071 14.3533 41.3004 14.6333 40.7537 14.82C40.2204 15.0066 39.5004 15.1 38.5938 15.1Z" fill="#4B4C48"/>
<path d="M32.5977 15.1L32.7777 13.46C33.5377 13.46 34.071 13.3866 34.3777 13.24C34.6843 13.0933 34.8577 12.8333 34.8977 12.46C34.951 12.0866 34.9643 11.5666 34.9377 10.9L34.5977 0.719971H36.2577L36.5777 10.86C36.6043 11.54 36.711 12.0733 36.8977 12.46C37.0977 12.8333 37.3643 13.0933 37.6977 13.24C38.031 13.3866 38.3977 13.46 38.7977 13.46C39.0777 13.46 39.2777 13.54 39.3977 13.7C39.531 13.8466 39.5977 14.0266 39.5977 14.24C39.5977 14.4533 39.5043 14.6533 39.3177 14.84C39.131 15.0133 38.891 15.1 38.5977 15.1C38.0377 15.1 37.571 15.0133 37.1977 14.84C36.8377 14.6533 36.551 14.42 36.3377 14.14C36.1377 13.8466 36.0043 13.54 35.9377 13.22L36.3577 13.26C36.2243 13.66 36.0043 14 35.6977 14.28C35.4043 14.5466 35.0043 14.7533 34.4977 14.9C33.991 15.0333 33.3577 15.1 32.5977 15.1Z" fill="#4B4C48"/>
<path d="M32.6033 15.1C32.0433 15.1 31.5299 15.0666 31.0633 15C30.5966 14.92 30.1766 14.78 29.8033 14.58C29.4299 14.38 29.1166 14.0933 28.8633 13.72C28.6099 13.3333 28.4166 12.8266 28.2833 12.2L29.4633 11.5C29.6366 12.0333 29.8499 12.44 30.1033 12.72C30.3566 13 30.6966 13.1933 31.1233 13.3C31.5633 13.4066 32.1233 13.46 32.8033 13.46C33.0833 13.46 33.2833 13.54 33.4033 13.7C33.5366 13.8466 33.6033 14.0266 33.6033 14.24C33.6033 14.4533 33.5099 14.6533 33.3233 14.84C33.1366 15.0133 32.8966 15.1 32.6033 15.1ZM19.8633 15.1L20.0433 13.46C20.7366 13.46 21.4166 13.4066 22.0833 13.3C22.7499 13.1933 23.4033 13.04 24.0433 12.84C24.6833 12.64 25.2966 12.4 25.8833 12.12C26.4833 11.8266 27.0499 11.4933 27.5833 11.12C27.2366 10.8133 26.8366 10.5466 26.3833 10.32C25.9299 10.0933 25.4299 9.91996 24.8833 9.79996C24.3499 9.66663 23.7833 9.59996 23.1833 9.59996C22.9699 9.59996 22.7699 9.60663 22.5833 9.61996C22.3966 9.6333 22.2099 9.65996 22.0233 9.69996C21.8366 9.72663 21.6233 9.76663 21.3833 9.81996L21.0633 8.29996C21.4233 8.1933 21.7833 8.11329 22.1433 8.05996C22.5033 7.99329 22.8499 7.95996 23.1833 7.95996C23.8766 7.95996 24.5033 8.04663 25.0633 8.21996C25.6233 8.37996 26.1299 8.57996 26.5833 8.81996C27.0499 9.05996 27.4833 9.29996 27.8833 9.53996C28.2966 9.77996 28.6966 9.98663 29.0833 10.16C29.4699 10.32 29.8699 10.4 30.2833 10.4H30.7033L30.8433 11.84C30.2699 11.84 29.7433 11.92 29.2633 12.08C28.7833 12.24 28.3099 12.4466 27.8433 12.7C27.3899 12.94 26.9099 13.2 26.4033 13.48C25.8966 13.7466 25.3366 14.0066 24.7233 14.26C24.1099 14.5 23.4033 14.7 22.6033 14.86C21.8166 15.02 20.9033 15.1 19.8633 15.1ZM25.0833 18.72C24.8033 18.72 24.5633 18.62 24.3633 18.42C24.1766 18.2333 24.0833 18.0066 24.0833 17.74C24.0833 17.4733 24.1766 17.24 24.3633 17.04C24.5633 16.84 24.8033 16.74 25.0833 16.74C25.3499 16.74 25.5766 16.84 25.7633 17.04C25.9633 17.24 26.0633 17.4733 26.0633 17.74C26.0633 18.0066 25.9633 18.2333 25.7633 18.42C25.5766 18.62 25.3499 18.72 25.0833 18.72Z" fill="#4B4C48"/>
<path d="M15.8666 19.3401C15.0266 19.3401 14.2666 19.1467 13.5866 18.7601C12.9066 18.3734 12.3666 17.7867 11.9666 17.0001C11.5666 16.2267 11.3666 15.2534 11.3666 14.0801C11.3666 13.0001 11.4932 12.0067 11.7466 11.1001C11.9999 10.1934 12.3332 9.41339 12.7466 8.76005C13.1732 8.09339 13.6399 7.58005 14.1466 7.22005C14.6532 6.86005 15.1532 6.68005 15.6466 6.68005C16.0866 6.68005 16.4799 6.80672 16.8266 7.06005C17.1732 7.31339 17.4466 7.66672 17.6466 8.12005C17.8466 8.57339 17.9466 9.11339 17.9466 9.74005C17.9466 10.3001 17.8599 10.8601 17.6866 11.4201C17.5132 11.9801 17.1866 12.4867 16.7066 12.9401C16.2399 13.3934 15.5666 13.7401 14.6866 13.9801L15.9866 12.8801C16.4132 12.9867 16.8399 13.0867 17.2666 13.1801C17.7066 13.2601 18.1532 13.3267 18.6066 13.3801C19.0732 13.4334 19.5599 13.4601 20.0666 13.4601C20.3466 13.4601 20.5466 13.5401 20.6666 13.7001C20.7999 13.8467 20.8666 14.0267 20.8666 14.2401C20.8666 14.4534 20.7732 14.6534 20.5866 14.8401C20.3999 15.0134 20.1599 15.1001 19.8666 15.1001C19.5066 15.1001 19.1199 15.0801 18.7066 15.0401C18.2932 15.0001 17.8799 14.9534 17.4666 14.9001C17.0532 14.8334 16.6599 14.7601 16.2866 14.6801L18.0266 14.6201C18.3599 14.9801 18.5866 15.3667 18.7066 15.7801C18.8399 16.2067 18.8732 16.6267 18.8066 17.0401C18.7532 17.4667 18.5999 17.8534 18.3466 18.2001C18.1066 18.5467 17.7799 18.8201 17.3666 19.0201C16.9532 19.2334 16.4532 19.3401 15.8666 19.3401ZM9.72656 15.1001L9.92656 13.4601C10.2066 13.4601 10.4866 13.4601 10.7666 13.4601C11.0466 13.4601 11.3132 13.4534 11.5666 13.4401L11.6466 14.9201C11.3399 14.9734 11.0199 15.0134 10.6866 15.0401C10.3666 15.0801 10.0466 15.1001 9.72656 15.1001ZM15.9066 17.7001C16.1466 17.7001 16.3799 17.6534 16.6066 17.5601C16.8466 17.4801 17.0399 17.3334 17.1866 17.1201C17.3466 16.9201 17.4266 16.6467 17.4266 16.3001C17.4266 15.9667 17.3399 15.6601 17.1666 15.3801C17.0066 15.1134 16.7199 14.8934 16.3066 14.7201C15.8932 14.5467 15.3066 14.4601 14.5466 14.4601C14.3866 14.4601 14.2066 14.4734 14.0066 14.5001C13.8199 14.5134 13.6266 14.5401 13.4266 14.5801C13.2266 14.6067 13.0199 14.6467 12.8066 14.7001V13.3401C13.3132 13.2734 13.7732 13.1734 14.1866 13.0401C14.6132 12.8934 14.9866 12.6934 15.3066 12.4401C15.6266 12.1867 15.8732 11.8534 16.0466 11.4401C16.2199 11.0267 16.3066 10.5201 16.3066 9.92005C16.3066 9.72005 16.2799 9.49339 16.2266 9.24005C16.1866 8.98672 16.1066 8.77339 15.9866 8.60005C15.8666 8.41339 15.7066 8.32005 15.5066 8.32005C15.3066 8.32005 15.0599 8.45339 14.7666 8.72005C14.4866 8.98672 14.2066 9.36005 13.9266 9.84005C13.6599 10.3201 13.4332 10.8934 13.2466 11.5601C13.0732 12.2134 12.9866 12.9334 12.9866 13.7201C12.9866 14.5867 13.0799 15.2801 13.2666 15.8001C13.4666 16.3334 13.7199 16.7334 14.0266 17.0001C14.3332 17.2801 14.6532 17.4667 14.9866 17.5601C15.3199 17.6534 15.6266 17.7001 15.9066 17.7001Z" fill="#4B4C48"/>
<path d="M9.71998 15.1C8.99998 15.1 8.35998 15 7.79998 14.8C7.25331 14.5867 6.81331 14.2334 6.47998 13.74C6.15998 13.2334 5.97998 12.5334 5.93998 11.64L5.61998 4.68002H7.23998L7.55998 11.28C7.59998 11.9067 7.71331 12.38 7.89998 12.7C8.08664 13.0067 8.34664 13.2134 8.67998 13.32C9.02664 13.4134 9.43997 13.46 9.91998 13.46C10.2 13.46 10.4 13.54 10.52 13.7C10.6533 13.8467 10.72 14.0267 10.72 14.24C10.72 14.4534 10.6266 14.6534 10.44 14.84C10.2533 15.0134 10.0133 15.1 9.71998 15.1ZM6.69998 12.9C5.93998 13.14 5.19998 13.26 4.47998 13.26C3.75998 13.26 3.10664 13.1534 2.51998 12.94C1.93331 12.7267 1.46664 12.42 1.11998 12.02C0.773309 11.6067 0.599976 11.1134 0.599976 10.54C0.599976 9.98002 0.739976 9.45336 1.01998 8.96002C1.31331 8.46669 1.70664 8.02669 2.19998 7.64002C2.70664 7.25336 3.28664 6.93336 3.93998 6.68003C4.60664 6.41336 5.31331 6.23336 6.05998 6.14002L6.33998 7.82002C5.67331 7.84669 5.07998 7.94002 4.55998 8.10002C4.05331 8.24669 3.61998 8.44002 3.25998 8.68002C2.91331 8.92002 2.64664 9.18003 2.45998 9.46002C2.27331 9.74002 2.17998 10.0134 2.17998 10.28C2.17998 10.5734 2.28664 10.8134 2.49998 11C2.71331 11.1867 2.98664 11.3334 3.31998 11.44C3.65331 11.5334 4.01998 11.5934 4.41998 11.62C4.81998 11.6334 5.20664 11.62 5.57998 11.58C5.95331 11.5267 6.27331 11.4534 6.53998 11.36L6.69998 12.9ZM6.27998 2.38002C5.99998 2.38002 5.75998 2.28669 5.55998 2.10002C5.37331 1.90002 5.27998 1.66669 5.27998 1.40002C5.27998 1.13336 5.37331 0.900024 5.55998 0.700024C5.75998 0.500024 5.99998 0.400024 6.27998 0.400024C6.54664 0.400024 6.77331 0.500024 6.95998 0.700024C7.15998 0.900024 7.25998 1.13336 7.25998 1.40002C7.25998 1.66669 7.15998 1.90002 6.95998 2.10002C6.77331 2.28669 6.54664 2.38002 6.27998 2.38002ZM3.53998 2.38002C3.25998 2.38002 3.01998 2.28669 2.81998 2.10002C2.63331 1.90002 2.53998 1.66669 2.53998 1.40002C2.53998 1.13336 2.63331 0.900024 2.81998 0.700024C3.01998 0.500024 3.25998 0.400024 3.53998 0.400024C3.80664 0.400024 4.03331 0.500024 4.21998 0.700024C4.41998 0.900024 4.51998 1.13336 4.51998 1.40002C4.51998 1.66669 4.41998 1.90002 4.21998 2.10002C4.03331 2.28669 3.80664 2.38002 3.53998 2.38002Z" fill="#4B4C48"/>
</svg>
