<svg width="132" height="23" viewBox="0 0 132 23" fill="none" xmlns="http://www.w3.org/2000/svg">
<path d="M126.016 15.1L126.216 13.46C127.002 13.46 127.616 13.4333 128.056 13.38C128.496 13.3133 128.809 13.16 128.996 12.92C129.182 12.6667 129.276 12.2733 129.276 11.74C129.276 11.4067 129.222 11.0133 129.116 10.56C129.009 10.0933 128.869 9.6 128.696 9.08C128.522 8.56 128.336 8.04667 128.136 7.54L129.756 6.94C129.929 7.36667 130.089 7.85334 130.236 8.4C130.396 8.94667 130.529 9.48667 130.636 10.02C130.742 10.5533 130.796 11.02 130.796 11.42C130.796 12.0867 130.702 12.6533 130.516 13.12C130.342 13.5867 130.062 13.9667 129.676 14.26C129.289 14.5533 128.789 14.7667 128.176 14.9C127.576 15.0333 126.856 15.1 126.016 15.1ZM130.376 4.86C130.096 4.86 129.856 4.76667 129.656 4.58C129.469 4.38 129.376 4.14667 129.376 3.88C129.376 3.61334 129.469 3.38 129.656 3.18C129.856 2.98 130.096 2.88 130.376 2.88C130.642 2.88 130.869 2.98 131.056 3.18C131.256 3.38 131.356 3.61334 131.356 3.88C131.356 4.14667 131.256 4.38 131.056 4.58C130.869 4.76667 130.642 4.86 130.376 4.86ZM127.636 4.86C127.356 4.86 127.116 4.76667 126.916 4.58C126.729 4.38 126.636 4.14667 126.636 3.88C126.636 3.61334 126.729 3.38 126.916 3.18C127.116 2.98 127.356 2.88 127.636 2.88C127.902 2.88 128.129 2.98 128.316 3.18C128.516 3.38 128.616 3.61334 128.616 3.88C128.616 4.14667 128.516 4.38 128.316 4.58C128.129 4.76667 127.902 4.86 127.636 4.86Z" fill="#4B4C48"/>
<path d="M116.113 15.1L116.313 13.46C116.647 13.46 116.987 13.46 117.333 13.46C117.693 13.4467 118.047 13.4267 118.393 13.4C118.74 13.3734 119.073 13.34 119.393 13.3C119.713 13.26 120 13.2 120.253 13.12C120.72 12.9734 121.147 12.78 121.533 12.54C121.933 12.3 122.253 12.0067 122.493 11.66C122.747 11.3134 122.873 10.9134 122.873 10.46C122.873 10.1534 122.8 9.84003 122.653 9.52003C122.507 9.1867 122.307 8.9067 122.053 8.68003C121.8 8.45337 121.507 8.34004 121.173 8.34004C120.853 8.34004 120.553 8.4467 120.273 8.66004C120.007 8.87337 119.787 9.15337 119.613 9.50004C119.453 9.83337 119.373 10.18 119.373 10.54C119.373 10.9667 119.48 11.3534 119.693 11.7C119.92 12.0334 120.193 12.32 120.513 12.56C120.833 12.8 121.153 12.9934 121.473 13.14L119.573 13.7C119.36 13.54 119.107 13.32 118.813 13.04C118.533 12.7467 118.28 12.3867 118.053 11.96C117.84 11.5334 117.733 11.0467 117.733 10.5C117.733 9.9667 117.827 9.47337 118.013 9.02003C118.213 8.55337 118.473 8.1467 118.793 7.80003C119.127 7.45337 119.5 7.1867 119.913 7.00004C120.34 6.80003 120.78 6.70004 121.233 6.70004C121.887 6.70004 122.46 6.88003 122.953 7.24004C123.447 7.60003 123.827 8.06003 124.093 8.62004C124.373 9.1667 124.513 9.74004 124.513 10.34C124.513 10.9134 124.407 11.4334 124.193 11.9C123.98 12.3534 123.687 12.76 123.313 13.12C122.953 13.48 122.527 13.7867 122.033 14.04C121.553 14.2934 121.04 14.5 120.493 14.66C120.187 14.7534 119.853 14.8267 119.493 14.88C119.147 14.9334 118.78 14.9734 118.393 15C118.007 15.04 117.62 15.0667 117.233 15.08C116.847 15.0934 116.473 15.1 116.113 15.1ZM126.013 15.1C125.347 15.1 124.653 15.06 123.933 14.98C123.227 14.8867 122.553 14.7734 121.913 14.64C121.287 14.4934 120.767 14.3334 120.353 14.16L121.733 13.16C122.133 13.2134 122.607 13.2667 123.153 13.32C123.7 13.36 124.247 13.3934 124.793 13.42C125.34 13.4467 125.813 13.46 126.213 13.46C126.493 13.46 126.693 13.54 126.813 13.7C126.947 13.8467 127.013 14.0267 127.013 14.24C127.013 14.4534 126.92 14.6534 126.733 14.84C126.547 15.0134 126.307 15.1 126.013 15.1ZM122.453 4.64003C122.173 4.64003 121.933 4.5467 121.733 4.36003C121.547 4.16003 121.453 3.9267 121.453 3.66003C121.453 3.39337 121.547 3.16003 121.733 2.96003C121.933 2.76003 122.173 2.66003 122.453 2.66003C122.72 2.66003 122.947 2.76003 123.133 2.96003C123.333 3.16003 123.433 3.39337 123.433 3.66003C123.433 3.9267 123.333 4.16003 123.133 4.36003C122.947 4.5467 122.72 4.64003 122.453 4.64003ZM119.713 4.64003C119.433 4.64003 119.193 4.5467 118.993 4.36003C118.807 4.16003 118.713 3.9267 118.713 3.66003C118.713 3.39337 118.807 3.16003 118.993 2.96003C119.193 2.76003 119.433 2.66003 119.713 2.66003C119.98 2.66003 120.207 2.76003 120.393 2.96003C120.593 3.16003 120.693 3.39337 120.693 3.66003C120.693 3.9267 120.593 4.16003 120.393 4.36003C120.207 4.5467 119.98 4.64003 119.713 4.64003Z" fill="#4B4C48"/>
<path d="M109.769 13.46C110.435 13.46 110.962 13.3933 111.349 13.26C111.749 13.1267 112.035 12.9333 112.209 12.68C112.395 12.4133 112.489 12.1067 112.489 11.76C112.489 11.4933 112.415 11.1733 112.269 10.8C112.135 10.4267 111.949 10.0133 111.709 9.55999C111.469 9.09333 111.189 8.60666 110.869 8.09999C110.562 7.57999 110.229 7.05333 109.869 6.51999L111.249 5.62C111.769 6.40666 112.222 7.15333 112.609 7.85999C112.995 8.55333 113.322 9.20666 113.589 9.81999C113.855 10.42 114.069 10.9867 114.229 11.52C114.415 12.1067 114.622 12.54 114.849 12.82C115.089 13.1 115.335 13.28 115.589 13.36C115.842 13.4267 116.075 13.46 116.289 13.46C116.569 13.46 116.775 13.54 116.909 13.7C117.042 13.8467 117.109 14.0267 117.109 14.24C117.109 14.4533 117.015 14.6533 116.829 14.84C116.642 15.0133 116.402 15.1 116.109 15.1C115.669 15.1 115.235 15.02 114.809 14.86C114.395 14.6867 114.035 14.4133 113.729 14.04C113.422 13.6533 113.209 13.14 113.089 12.5L113.889 11.86C113.889 12.3933 113.775 12.9133 113.549 13.42C113.322 13.9133 112.909 14.32 112.309 14.64C111.722 14.96 110.875 15.12 109.769 15.12C109.289 15.12 108.822 15.08 108.369 15C107.929 14.92 107.522 14.8067 107.149 14.66C106.775 14.5 106.449 14.3133 106.169 14.1L106.969 12.72C107.235 12.8933 107.609 13.06 108.089 13.22C108.569 13.38 109.129 13.46 109.769 13.46Z" fill="#4B4C48"/>
<path d="M97.2613 22.86C97.0346 21.98 96.8346 21.12 96.6613 20.28C96.5013 19.44 96.3813 18.6667 96.3013 17.96C96.2213 17.2533 96.1813 16.6733 96.1813 16.22C96.1813 15.4067 96.3279 14.7333 96.6213 14.2C96.9146 13.6533 97.3079 13.2333 97.8013 12.94C98.2946 12.6333 98.8413 12.4267 99.4413 12.32C100.055 12.2133 100.681 12.18 101.321 12.22C101.975 12.2467 102.588 12.3267 103.161 12.46C103.201 12.0067 103.175 11.5733 103.081 11.16C103.001 10.7333 102.861 10.36 102.661 10.04C102.475 9.70665 102.235 9.44665 101.941 9.25999C101.648 9.07332 101.315 8.97999 100.941 8.97999C100.608 8.97999 100.295 9.05332 100.001 9.19999C99.7079 9.34665 99.4279 9.57332 99.1613 9.87999C98.9079 10.1733 98.6613 10.54 98.4213 10.98L97.1813 10.3C97.5279 9.57999 97.9079 9.00665 98.3213 8.57999C98.7479 8.15332 99.1946 7.84665 99.6613 7.65999C100.128 7.45999 100.588 7.35999 101.041 7.35999C101.721 7.35999 102.295 7.50665 102.761 7.79998C103.228 8.07998 103.595 8.45332 103.861 8.91999C104.141 9.37332 104.341 9.86665 104.461 10.4C104.595 10.92 104.661 11.42 104.661 11.9C104.661 12.2333 104.621 12.5667 104.541 12.9C104.461 13.2333 104.361 13.5333 104.241 13.8C104.135 14.0667 104.028 14.2733 103.921 14.42C103.201 14.2067 102.528 14.0533 101.901 13.96C101.275 13.8667 100.708 13.84 100.201 13.88C99.7079 13.9067 99.2813 14.0133 98.9213 14.2C98.5613 14.3867 98.2879 14.6533 98.1013 15C97.9146 15.3467 97.8213 15.7867 97.8213 16.32C97.8213 16.8133 97.8613 17.4 97.9413 18.08C98.0213 18.76 98.1346 19.4733 98.2813 20.22C98.4279 20.98 98.6013 21.7267 98.8013 22.46L97.2613 22.86Z" fill="#4B4C48"/>
<path d="M78.3789 15.1L78.5589 13.46C79.2522 13.46 79.9322 13.4066 80.5989 13.3C81.2656 13.1933 81.9189 13.04 82.5589 12.84C83.1989 12.64 83.8122 12.4 84.3989 12.12C84.9989 11.8266 85.5656 11.4933 86.0989 11.12C85.7522 10.8133 85.3522 10.5466 84.8989 10.32C84.4456 10.0933 83.9456 9.91996 83.3989 9.79996C82.8656 9.66663 82.2989 9.59996 81.6989 9.59996C81.4856 9.59996 81.2856 9.60663 81.0989 9.61996C80.9122 9.6333 80.7256 9.65996 80.5389 9.69996C80.3522 9.72663 80.1389 9.76663 79.8989 9.81996L79.5789 8.29996C79.9389 8.1933 80.2989 8.11329 80.6589 8.05996C81.0189 7.99329 81.3656 7.95996 81.6989 7.95996C82.3922 7.95996 83.0189 8.04663 83.5789 8.21996C84.1389 8.37996 84.6456 8.57996 85.0989 8.81996C85.5656 9.05996 85.9989 9.29996 86.3989 9.53996C86.8122 9.77996 87.2122 9.98663 87.5989 10.16C87.9856 10.32 88.3856 10.4 88.7989 10.4H89.2189L89.3589 11.84C88.7856 11.84 88.2589 11.92 87.7789 12.08C87.2989 12.24 86.8256 12.4466 86.3589 12.7C85.9056 12.94 85.4256 13.2 84.9189 13.48C84.4122 13.7466 83.8522 14.0066 83.2389 14.26C82.6256 14.5 81.9189 14.7 81.1189 14.86C80.3322 15.02 79.4189 15.1 78.3789 15.1Z" fill="#4B4C48"/>
<path d="M78.3785 15.1C77.3119 15.1 76.4919 14.98 75.9185 14.74C75.3585 14.5 74.9719 14.1266 74.7585 13.62C74.5452 13.1133 74.4252 12.46 74.3985 11.66L73.9985 0.719971H75.6385L76.0385 11.02C76.0652 11.6733 76.1252 12.18 76.2185 12.54C76.3252 12.8866 76.5519 13.1266 76.8985 13.26C77.2585 13.3933 77.8185 13.46 78.5785 13.46C78.8585 13.46 79.0585 13.54 79.1785 13.7C79.3119 13.8466 79.3785 14.0266 79.3785 14.24C79.3785 14.4533 79.2852 14.6533 79.0985 14.84C78.9119 15.0133 78.6719 15.1 78.3785 15.1Z" fill="#4B4C48"/>
<path d="M67.3633 15.1L67.5433 13.46C68.3033 13.46 68.8366 13.3866 69.1433 13.24C69.4499 13.0933 69.6233 12.8333 69.6633 12.46C69.7166 12.0866 69.7299 11.5666 69.7033 10.9L69.3233 0.719971H70.9433L71.3433 10.72C71.37 11.4266 71.3433 12.0533 71.2633 12.6C71.1966 13.1466 71.0233 13.6066 70.7433 13.98C70.4766 14.3533 70.07 14.6333 69.5233 14.82C68.99 15.0066 68.2699 15.1 67.3633 15.1Z" fill="#4B4C48"/>
<path d="M67.3567 15.1C66.6367 15.1 65.9967 15 65.4367 14.8C64.89 14.5867 64.45 14.2334 64.1167 13.74C63.7967 13.2334 63.6167 12.5334 63.5767 11.64L63.2567 4.68002H64.8767L65.1967 11.28C65.2367 11.9067 65.35 12.38 65.5367 12.7C65.7234 13.0067 65.9834 13.2134 66.3167 13.32C66.6634 13.4134 67.0767 13.46 67.5567 13.46C67.8367 13.46 68.0367 13.54 68.1567 13.7C68.29 13.8467 68.3567 14.0267 68.3567 14.24C68.3567 14.4534 68.2634 14.6534 68.0767 14.84C67.89 15.0134 67.65 15.1 67.3567 15.1ZM64.3367 12.9C63.5767 13.14 62.8367 13.26 62.1167 13.26C61.3967 13.26 60.7434 13.1534 60.1567 12.94C59.57 12.7267 59.1034 12.42 58.7567 12.02C58.41 11.6067 58.2367 11.1134 58.2367 10.54C58.2367 9.98002 58.3767 9.45336 58.6567 8.96002C58.95 8.46669 59.3434 8.02669 59.8367 7.64002C60.3434 7.25336 60.9234 6.93336 61.5767 6.68003C62.2434 6.41336 62.95 6.23336 63.6967 6.14002L63.9767 7.82002C63.31 7.84669 62.7167 7.94002 62.1967 8.10002C61.69 8.24669 61.2567 8.44002 60.8967 8.68002C60.55 8.92002 60.2834 9.18003 60.0967 9.46002C59.91 9.74002 59.8167 10.0134 59.8167 10.28C59.8167 10.5734 59.9234 10.8134 60.1367 11C60.35 11.1867 60.6234 11.3334 60.9567 11.44C61.29 11.5334 61.6567 11.5934 62.0567 11.62C62.4567 11.6334 62.8434 11.62 63.2167 11.58C63.59 11.5267 63.91 11.4534 64.1767 11.36L64.3367 12.9ZM63.9167 2.38002C63.6367 2.38002 63.3967 2.28669 63.1967 2.10002C63.01 1.90002 62.9167 1.66669 62.9167 1.40002C62.9167 1.13336 63.01 0.900024 63.1967 0.700024C63.3967 0.500024 63.6367 0.400024 63.9167 0.400024C64.1834 0.400024 64.41 0.500024 64.5967 0.700024C64.7967 0.900024 64.8967 1.13336 64.8967 1.40002C64.8967 1.66669 64.7967 1.90002 64.5967 2.10002C64.41 2.28669 64.1834 2.38002 63.9167 2.38002ZM61.1767 2.38002C60.8967 2.38002 60.6567 2.28669 60.4567 2.10002C60.27 1.90002 60.1767 1.66669 60.1767 1.40002C60.1767 1.13336 60.27 0.900024 60.4567 0.700024C60.6567 0.500024 60.8967 0.400024 61.1767 0.400024C61.4434 0.400024 61.67 0.500024 61.8567 0.700024C62.0567 0.900024 62.1567 1.13336 62.1567 1.40002C62.1567 1.66669 62.0567 1.90002 61.8567 2.10002C61.67 2.28669 61.4434 2.38002 61.1767 2.38002Z" fill="#4B4C48"/>
<path d="M49.086 15L48.686 0.719971H50.306L50.706 15H49.086Z" fill="#4B4C48"/>
<path d="M42.0508 15.1L42.2308 13.46C42.9908 13.46 43.5241 13.3866 43.8308 13.24C44.1374 13.0933 44.3108 12.8333 44.3508 12.46C44.4041 12.0866 44.4174 11.5666 44.3908 10.9L44.0108 0.719971H45.6308L46.0308 10.72C46.0574 11.4266 46.0308 12.0533 45.9508 12.6C45.8841 13.1466 45.7108 13.6066 45.4308 13.98C45.1641 14.3533 44.7574 14.6333 44.2108 14.82C43.6774 15.0066 42.9574 15.1 42.0508 15.1Z" fill="#4B4C48"/>
<path d="M42.0516 15.1C41.7049 15.1 41.2649 15.0666 40.7316 15C40.2116 14.92 39.6782 14.7866 39.1316 14.6C38.5982 14.4133 38.1449 14.1533 37.7716 13.82L39.4116 13C39.8782 13.1866 40.3582 13.3133 40.8516 13.38C41.3582 13.4333 41.8249 13.46 42.2516 13.46C42.5316 13.46 42.7316 13.54 42.8516 13.7C42.9849 13.8466 43.0516 14.0266 43.0516 14.24C43.0516 14.4533 42.9582 14.6533 42.7716 14.84C42.5849 15.0133 42.3449 15.1 42.0516 15.1ZM27.8516 15.1L28.0516 13.46H32.2316C33.3916 13.46 34.3916 13.4133 35.2316 13.32C36.0849 13.2133 36.7849 13.06 37.3316 12.86C37.8782 12.66 38.2849 12.4066 38.5516 12.1C38.8182 11.78 38.9516 11.4066 38.9516 10.98C38.9516 10.7533 38.8782 10.5066 38.7316 10.24C38.5849 9.9733 38.3582 9.74664 38.0516 9.55997C37.7449 9.35997 37.3382 9.25997 36.8316 9.25997C36.1916 9.25997 35.5516 9.42664 34.9116 9.75997C34.2849 10.0933 33.6849 10.5133 33.1116 11.02C32.5516 11.5133 32.0516 12.02 31.6116 12.54C31.1716 13.06 30.8182 13.5133 30.5516 13.9L28.8116 13.84C29.2382 13.1466 29.7449 12.44 30.3316 11.72C30.9316 10.9866 31.5849 10.3133 32.2916 9.69997C33.0116 9.07331 33.7649 8.5733 34.5516 8.19997C35.3382 7.8133 36.1382 7.61997 36.9516 7.61997C37.6849 7.61997 38.3116 7.7733 38.8316 8.07997C39.3649 8.3733 39.7716 8.7733 40.0516 9.27997C40.3449 9.78664 40.4916 10.36 40.4916 11C40.4916 11.6266 40.2649 12.26 39.8116 12.9C39.3582 13.5266 38.5782 14.02 37.4716 14.38C36.9116 14.5666 36.2716 14.7133 35.5516 14.82C34.8316 14.9266 34.0116 15 33.0916 15.04C32.1716 15.08 31.1249 15.1 29.9516 15.1H27.8516ZM29.7516 13.12L29.3516 0.719971H30.9716L31.3716 11.72L29.7516 13.12Z" fill="#4B4C48"/>
<path d="M21.8555 15.1L22.0355 13.46C22.7955 13.46 23.3288 13.3866 23.6355 13.24C23.9421 13.0933 24.1155 12.8333 24.1555 12.46C24.2088 12.0866 24.2221 11.5666 24.1955 10.9L23.8555 0.719971H25.5155L25.8355 10.86C25.8621 11.54 25.9688 12.0733 26.1555 12.46C26.3555 12.8333 26.6221 13.0933 26.9555 13.24C27.2888 13.3866 27.6555 13.46 28.0555 13.46C28.3355 13.46 28.5355 13.54 28.6555 13.7C28.7888 13.8466 28.8555 14.0266 28.8555 14.24C28.8555 14.4533 28.7621 14.6533 28.5755 14.84C28.3888 15.0133 28.1488 15.1 27.8555 15.1C27.2955 15.1 26.8288 15.0133 26.4555 14.84C26.0955 14.6533 25.8088 14.42 25.5955 14.14C25.3955 13.8466 25.2621 13.54 25.1955 13.22L25.6155 13.26C25.4821 13.66 25.2621 14 24.9555 14.28C24.6621 14.5466 24.2621 14.7533 23.7555 14.9C23.2488 15.0333 22.6155 15.1 21.8555 15.1Z" fill="#4B4C48"/>
<path d="M7.79998 15.42L8.31998 13.78C9.13331 13.78 9.99331 13.7333 10.9 13.64C11.8066 13.5333 12.7066 13.3533 13.6 13.1C14.5066 12.8333 15.3666 12.4733 16.18 12.02C16.9933 11.5666 17.7066 10.9933 18.32 10.3L19.58 11.04C19.46 11.3466 19.38 11.5933 19.34 11.78C19.3 11.9533 19.28 12.1133 19.28 12.26C19.28 12.46 19.3533 12.6533 19.5 12.84C19.6466 13.0133 19.92 13.16 20.32 13.28C20.7333 13.4 21.3133 13.46 22.06 13.46C22.34 13.46 22.54 13.54 22.66 13.7C22.7933 13.8466 22.86 14.0266 22.86 14.24C22.86 14.4533 22.7666 14.6533 22.58 14.84C22.3933 15.0133 22.1533 15.1 21.86 15.1C21.0066 15.1 20.2533 15.0133 19.6 14.84C18.96 14.6533 18.48 14.3666 18.16 13.98C17.8533 13.58 17.7533 13.0666 17.86 12.44L18.22 12.56C17.6866 13.04 17.0466 13.46 16.3 13.82C15.5666 14.1666 14.7466 14.46 13.84 14.7C12.9466 14.94 11.9866 15.12 10.96 15.24C9.94664 15.36 8.89331 15.42 7.79998 15.42ZM7.79998 15.42C6.61331 15.42 5.56664 15.34 4.65998 15.18C3.76664 15.0333 3.01998 14.8 2.41998 14.48C1.81998 14.16 1.36664 13.7466 1.05998 13.24C0.753309 12.72 0.599976 12.0933 0.599976 11.36C0.599976 11.0266 0.626642 10.6866 0.679976 10.34C0.733309 9.97997 0.799976 9.61997 0.879976 9.25997C0.973309 8.89997 1.06664 8.5533 1.15998 8.21997L2.65998 8.59997C2.60664 8.79997 2.54664 9.03997 2.47998 9.31997C2.41331 9.58664 2.35331 9.85997 2.29998 10.14C2.25998 10.42 2.23998 10.6733 2.23998 10.9C2.23998 11.5933 2.41331 12.1533 2.75998 12.58C3.11998 12.9933 3.73998 13.3 4.61998 13.5C5.49998 13.6866 6.73331 13.78 8.31998 13.78L8.71998 14.78L7.79998 15.42ZM9.25998 19.22C8.97998 19.22 8.73998 19.12 8.53998 18.92C8.35331 18.7333 8.25998 18.5066 8.25998 18.24C8.25998 17.9733 8.35331 17.74 8.53998 17.54C8.73998 17.34 8.97998 17.24 9.25998 17.24C9.52664 17.24 9.75331 17.34 9.93998 17.54C10.14 17.74 10.24 17.9733 10.24 18.24C10.24 18.5066 10.14 18.7333 9.93998 18.92C9.75331 19.12 9.52664 19.22 9.25998 19.22Z" fill="#4B4C48"/>
</svg>
