<svg width="132" height="23" viewBox="0 0 132 23" fill="none" xmlns="http://www.w3.org/2000/svg">
<path d="M126.016 15.1009L126.216 13.4609C127.002 13.4609 127.616 13.4342 128.056 13.3809C128.496 13.3142 128.809 13.1609 128.996 12.9209C129.182 12.6675 129.276 12.2742 129.276 11.7409C129.276 11.4075 129.222 11.0142 129.116 10.5609C129.009 10.0942 128.869 9.60086 128.696 9.08086C128.522 8.56086 128.336 8.04753 128.136 7.54086L129.756 6.94086C129.929 7.36753 130.089 7.85419 130.236 8.40086C130.396 8.94753 130.529 9.48753 130.636 10.0209C130.742 10.5542 130.796 11.0209 130.796 11.4209C130.796 12.0875 130.702 12.6542 130.516 13.1209C130.342 13.5875 130.062 13.9675 129.676 14.2609C129.289 14.5542 128.789 14.7675 128.176 14.9009C127.576 15.0342 126.856 15.1009 126.016 15.1009ZM130.376 4.86086C130.096 4.86086 129.856 4.76753 129.656 4.58086C129.469 4.38086 129.376 4.14753 129.376 3.88086C129.376 3.61419 129.469 3.38086 129.656 3.18086C129.856 2.98086 130.096 2.88086 130.376 2.88086C130.642 2.88086 130.869 2.98086 131.056 3.18086C131.256 3.38086 131.356 3.61419 131.356 3.88086C131.356 4.14753 131.256 4.38086 131.056 4.58086C130.869 4.76753 130.642 4.86086 130.376 4.86086ZM127.636 4.86086C127.356 4.86086 127.116 4.76753 126.916 4.58086C126.729 4.38086 126.636 4.14753 126.636 3.88086C126.636 3.61419 126.729 3.38086 126.916 3.18086C127.116 2.98086 127.356 2.88086 127.636 2.88086C127.902 2.88086 128.129 2.98086 128.316 3.18086C128.516 3.38086 128.616 3.61419 128.616 3.88086C128.616 4.14753 128.516 4.38086 128.316 4.58086C128.129 4.76753 127.902 4.86086 127.636 4.86086Z" fill="#4B4C48"/>
<path d="M116.113 15.1002L116.313 13.4602C116.647 13.4602 116.987 13.4602 117.333 13.4602C117.693 13.4468 118.047 13.4268 118.393 13.4002C118.74 13.3735 119.073 13.3402 119.393 13.3002C119.713 13.2602 120 13.2002 120.253 13.1202C120.72 12.9735 121.147 12.7802 121.533 12.5402C121.933 12.3002 122.253 12.0068 122.493 11.6602C122.747 11.3135 122.873 10.9135 122.873 10.4602C122.873 10.1535 122.8 9.84016 122.653 9.52016C122.507 9.18682 122.307 8.90682 122.053 8.68016C121.8 8.45349 121.507 8.34016 121.173 8.34016C120.853 8.34016 120.553 8.44682 120.273 8.66016C120.007 8.87349 119.787 9.15349 119.613 9.50016C119.453 9.83349 119.373 10.1802 119.373 10.5402C119.373 10.9668 119.48 11.3535 119.693 11.7002C119.92 12.0335 120.193 12.3202 120.513 12.5602C120.833 12.8002 121.153 12.9935 121.473 13.1402L119.573 13.7002C119.36 13.5402 119.107 13.3202 118.813 13.0402C118.533 12.7468 118.28 12.3868 118.053 11.9602C117.84 11.5335 117.733 11.0468 117.733 10.5002C117.733 9.96682 117.827 9.47349 118.013 9.02016C118.213 8.55349 118.473 8.14682 118.793 7.80016C119.127 7.45349 119.5 7.18682 119.913 7.00016C120.34 6.80016 120.78 6.70016 121.233 6.70016C121.887 6.70016 122.46 6.88016 122.953 7.24016C123.447 7.60016 123.827 8.06016 124.093 8.62016C124.373 9.16682 124.513 9.74016 124.513 10.3402C124.513 10.9135 124.407 11.4335 124.193 11.9002C123.98 12.3535 123.687 12.7602 123.313 13.1202C122.953 13.4802 122.527 13.7868 122.033 14.0402C121.553 14.2935 121.04 14.5002 120.493 14.6602C120.187 14.7535 119.853 14.8268 119.493 14.8802C119.147 14.9335 118.78 14.9735 118.393 15.0002C118.007 15.0402 117.62 15.0668 117.233 15.0802C116.847 15.0935 116.473 15.1002 116.113 15.1002ZM126.013 15.1002C125.347 15.1002 124.653 15.0602 123.933 14.9802C123.227 14.8868 122.553 14.7735 121.913 14.6402C121.287 14.4935 120.767 14.3335 120.353 14.1602L121.733 13.1602C122.133 13.2135 122.607 13.2668 123.153 13.3202C123.7 13.3602 124.247 13.3935 124.793 13.4202C125.34 13.4468 125.813 13.4602 126.213 13.4602C126.493 13.4602 126.693 13.5402 126.813 13.7002C126.947 13.8468 127.013 14.0268 127.013 14.2402C127.013 14.4535 126.92 14.6535 126.733 14.8402C126.547 15.0135 126.307 15.1002 126.013 15.1002ZM122.453 4.64016C122.173 4.64016 121.933 4.54682 121.733 4.36016C121.547 4.16016 121.453 3.92682 121.453 3.66016C121.453 3.39349 121.547 3.16016 121.733 2.96016C121.933 2.76016 122.173 2.66016 122.453 2.66016C122.72 2.66016 122.947 2.76016 123.133 2.96016C123.333 3.16016 123.433 3.39349 123.433 3.66016C123.433 3.92682 123.333 4.16016 123.133 4.36016C122.947 4.54682 122.72 4.64016 122.453 4.64016ZM119.713 4.64016C119.433 4.64016 119.193 4.54682 118.993 4.36016C118.807 4.16016 118.713 3.92682 118.713 3.66016C118.713 3.39349 118.807 3.16016 118.993 2.96016C119.193 2.76016 119.433 2.66016 119.713 2.66016C119.98 2.66016 120.207 2.76016 120.393 2.96016C120.593 3.16016 120.693 3.39349 120.693 3.66016C120.693 3.92682 120.593 4.16016 120.393 4.36016C120.207 4.54682 119.98 4.64016 119.713 4.64016Z" fill="#4B4C48"/>
<path d="M109.769 13.4601C110.435 13.4601 110.962 13.3935 111.349 13.2601C111.749 13.1268 112.035 12.9335 112.209 12.6801C112.395 12.4135 112.489 12.1068 112.489 11.7601C112.489 11.4935 112.415 11.1735 112.269 10.8001C112.135 10.4268 111.949 10.0135 111.709 9.56012C111.469 9.09345 111.189 8.60678 110.869 8.10012C110.562 7.58012 110.229 7.05345 109.869 6.52012L111.249 5.62012C111.769 6.40678 112.222 7.15345 112.609 7.86012C112.995 8.55345 113.322 9.20678 113.589 9.82012C113.855 10.4201 114.069 10.9868 114.229 11.5201C114.415 12.1068 114.622 12.5401 114.849 12.8201C115.089 13.1001 115.335 13.2801 115.589 13.3601C115.842 13.4268 116.075 13.4601 116.289 13.4601C116.569 13.4601 116.775 13.5401 116.909 13.7001C117.042 13.8468 117.109 14.0268 117.109 14.2401C117.109 14.4535 117.015 14.6535 116.829 14.8401C116.642 15.0135 116.402 15.1001 116.109 15.1001C115.669 15.1001 115.235 15.0201 114.809 14.8601C114.395 14.6868 114.035 14.4135 113.729 14.0401C113.422 13.6535 113.209 13.1401 113.089 12.5001L113.889 11.8601C113.889 12.3935 113.775 12.9135 113.549 13.4201C113.322 13.9135 112.909 14.3201 112.309 14.6401C111.722 14.9601 110.875 15.1201 109.769 15.1201C109.289 15.1201 108.822 15.0801 108.369 15.0001C107.929 14.9201 107.522 14.8068 107.149 14.6601C106.775 14.5001 106.449 14.3135 106.169 14.1001L106.969 12.7201C107.235 12.8934 107.609 13.0601 108.089 13.2201C108.569 13.3801 109.129 13.4601 109.769 13.4601Z" fill="#4B4C48"/>
<path d="M97.2613 22.8604C97.0346 21.9804 96.8346 21.1204 96.6613 20.2804C96.5013 19.4404 96.3813 18.667 96.3013 17.9604C96.2213 17.2537 96.1813 16.6737 96.1813 16.2204C96.1813 15.407 96.3279 14.7337 96.6213 14.2004C96.9146 13.6537 97.3079 13.2337 97.8013 12.9404C98.2946 12.6337 98.8413 12.427 99.4413 12.3204C100.055 12.2137 100.681 12.1804 101.321 12.2204C101.975 12.247 102.588 12.327 103.161 12.4604C103.201 12.007 103.175 11.5737 103.081 11.1604C103.001 10.7337 102.861 10.3604 102.661 10.0404C102.475 9.70702 102.235 9.44702 101.941 9.26035C101.648 9.07369 101.315 8.98035 100.941 8.98035C100.608 8.98035 100.295 9.05368 100.001 9.20035C99.7079 9.34702 99.4279 9.57369 99.1613 9.88035C98.9079 10.1737 98.6613 10.5404 98.4213 10.9804L97.1813 10.3004C97.5279 9.58035 97.9079 9.00702 98.3213 8.58035C98.7479 8.15369 99.1946 7.84702 99.6613 7.66035C100.128 7.46035 100.588 7.36035 101.041 7.36035C101.721 7.36035 102.295 7.50702 102.761 7.80035C103.228 8.08035 103.595 8.45369 103.861 8.92035C104.141 9.37369 104.341 9.86702 104.461 10.4004C104.595 10.9204 104.661 11.4204 104.661 11.9004C104.661 12.2337 104.621 12.567 104.541 12.9004C104.461 13.2337 104.361 13.5337 104.241 13.8004C104.135 14.067 104.028 14.2737 103.921 14.4204C103.201 14.207 102.528 14.0537 101.901 13.9604C101.275 13.867 100.708 13.8404 100.201 13.8804C99.7079 13.907 99.2813 14.0137 98.9213 14.2004C98.5613 14.387 98.2879 14.6537 98.1013 15.0004C97.9146 15.347 97.8213 15.787 97.8213 16.3204C97.8213 16.8137 97.8613 17.4004 97.9413 18.0804C98.0213 18.7604 98.1346 19.4737 98.2813 20.2204C98.4279 20.9804 98.6013 21.727 98.8013 22.4604L97.2613 22.8604Z" fill="#4B4C48"/>
<path d="M78.3789 15.1L78.5589 13.46C79.2522 13.46 79.9322 13.4066 80.5989 13.3C81.2656 13.1933 81.9189 13.04 82.5589 12.84C83.1989 12.64 83.8122 12.4 84.3989 12.12C84.9989 11.8266 85.5656 11.4933 86.0989 11.12C85.7522 10.8133 85.3522 10.5466 84.8989 10.32C84.4456 10.0933 83.9456 9.91996 83.3989 9.79996C82.8656 9.66663 82.2989 9.59996 81.6989 9.59996C81.4856 9.59996 81.2856 9.60663 81.0989 9.61996C80.9122 9.6333 80.7256 9.65996 80.5389 9.69996C80.3522 9.72663 80.1389 9.76663 79.8989 9.81996L79.5789 8.29996C79.9389 8.1933 80.2989 8.11329 80.6589 8.05996C81.0189 7.99329 81.3656 7.95996 81.6989 7.95996C82.3922 7.95996 83.0189 8.04663 83.5789 8.21996C84.1389 8.37996 84.6456 8.57996 85.0989 8.81996C85.5656 9.05996 85.9989 9.29996 86.3989 9.53996C86.8122 9.77996 87.2122 9.98663 87.5989 10.16C87.9856 10.32 88.3856 10.4 88.7989 10.4H89.2189L89.3589 11.84C88.7856 11.84 88.2589 11.92 87.7789 12.08C87.2989 12.24 86.8256 12.4466 86.3589 12.7C85.9056 12.94 85.4256 13.2 84.9189 13.48C84.4122 13.7466 83.8522 14.0066 83.2389 14.26C82.6256 14.5 81.9189 14.7 81.1189 14.86C80.3322 15.02 79.4189 15.1 78.3789 15.1Z" fill="#4B4C48"/>
<path d="M78.3785 15.1007C77.3119 15.1007 76.4919 14.9807 75.9185 14.7407C75.3585 14.5007 74.9719 14.1274 74.7585 13.6207C74.5452 13.114 74.4252 12.4607 74.3985 11.6607L73.9985 0.720703H75.6385L76.0385 11.0207C76.0652 11.674 76.1252 12.1807 76.2185 12.5407C76.3252 12.8874 76.5519 13.1274 76.8985 13.2607C77.2585 13.394 77.8185 13.4607 78.5785 13.4607C78.8585 13.4607 79.0585 13.5407 79.1785 13.7007C79.3119 13.8474 79.3785 14.0274 79.3785 14.2407C79.3785 14.454 79.2852 14.654 79.0985 14.8407C78.9119 15.014 78.6719 15.1007 78.3785 15.1007Z" fill="#4B4C48"/>
<path d="M67.3633 15.1007L67.5433 13.4607C68.3033 13.4607 68.8366 13.3874 69.1433 13.2407C69.4499 13.094 69.6233 12.834 69.6633 12.4607C69.7166 12.0874 69.7299 11.5674 69.7033 10.9007L69.3233 0.720703H70.9433L71.3433 10.7207C71.37 11.4274 71.3433 12.054 71.2633 12.6007C71.1966 13.1474 71.0233 13.6074 70.7433 13.9807C70.4766 14.354 70.07 14.634 69.5233 14.8207C68.99 15.0074 68.2699 15.1007 67.3633 15.1007Z" fill="#4B4C48"/>
<path d="M67.3567 15.1004C66.6367 15.1004 65.9967 15.0004 65.4367 14.8004C64.89 14.5871 64.45 14.2337 64.1167 13.7404C63.7967 13.2337 63.6167 12.5337 63.5767 11.6404L63.2567 4.68039H64.8767L65.1967 11.2804C65.2367 11.9071 65.35 12.3804 65.5367 12.7004C65.7234 13.0071 65.9834 13.2137 66.3167 13.3204C66.6634 13.4137 67.0767 13.4604 67.5567 13.4604C67.8367 13.4604 68.0367 13.5404 68.1567 13.7004C68.29 13.8471 68.3567 14.0271 68.3567 14.2404C68.3567 14.4537 68.2634 14.6537 68.0767 14.8404C67.89 15.0137 67.65 15.1004 67.3567 15.1004ZM64.3367 12.9004C63.5767 13.1404 62.8367 13.2604 62.1167 13.2604C61.3967 13.2604 60.7434 13.1537 60.1567 12.9404C59.57 12.7271 59.1034 12.4204 58.7567 12.0204C58.41 11.6071 58.2367 11.1137 58.2367 10.5404C58.2367 9.98039 58.3767 9.45372 58.6567 8.96039C58.95 8.46706 59.3434 8.02706 59.8367 7.64039C60.3434 7.25372 60.9234 6.93372 61.5767 6.68039C62.2434 6.41372 62.95 6.23372 63.6967 6.14039L63.9767 7.82039C63.31 7.84706 62.7167 7.94039 62.1967 8.10039C61.69 8.24706 61.2567 8.44039 60.8967 8.68039C60.55 8.92039 60.2834 9.18039 60.0967 9.46039C59.91 9.74039 59.8167 10.0137 59.8167 10.2804C59.8167 10.5737 59.9234 10.8137 60.1367 11.0004C60.35 11.1871 60.6234 11.3337 60.9567 11.4404C61.29 11.5337 61.6567 11.5937 62.0567 11.6204C62.4567 11.6337 62.8434 11.6204 63.2167 11.5804C63.59 11.5271 63.91 11.4537 64.1767 11.3604L64.3367 12.9004ZM63.9167 2.38039C63.6367 2.38039 63.3967 2.28706 63.1967 2.10039C63.01 1.90039 62.9167 1.66706 62.9167 1.40039C62.9167 1.13372 63.01 0.90039 63.1967 0.70039C63.3967 0.500391 63.6367 0.400391 63.9167 0.400391C64.1834 0.400391 64.41 0.500391 64.5967 0.70039C64.7967 0.90039 64.8967 1.13372 64.8967 1.40039C64.8967 1.66706 64.7967 1.90039 64.5967 2.10039C64.41 2.28706 64.1834 2.38039 63.9167 2.38039ZM61.1767 2.38039C60.8967 2.38039 60.6567 2.28706 60.4567 2.10039C60.27 1.90039 60.1767 1.66706 60.1767 1.40039C60.1767 1.13372 60.27 0.90039 60.4567 0.70039C60.6567 0.500391 60.8967 0.400391 61.1767 0.400391C61.4434 0.400391 61.67 0.500391 61.8567 0.70039C62.0567 0.90039 62.1567 1.13372 62.1567 1.40039C62.1567 1.66706 62.0567 1.90039 61.8567 2.10039C61.67 2.28706 61.4434 2.38039 61.1767 2.38039Z" fill="#4B4C48"/>
<path d="M49.086 15.0007L48.686 0.720703H50.306L50.706 15.0007H49.086Z" fill="#4B4C48"/>
<path d="M42.0508 15.1007L42.2308 13.4607C42.9908 13.4607 43.5241 13.3874 43.8308 13.2407C44.1374 13.094 44.3108 12.834 44.3508 12.4607C44.4041 12.0874 44.4174 11.5674 44.3908 10.9007L44.0108 0.720703H45.6308L46.0308 10.7207C46.0574 11.4274 46.0308 12.054 45.9508 12.6007C45.8841 13.1474 45.7108 13.6074 45.4308 13.9807C45.1641 14.354 44.7574 14.634 44.2108 14.8207C43.6774 15.0074 42.9574 15.1007 42.0508 15.1007Z" fill="#4B4C48"/>
<path d="M42.0516 15.1007C41.7049 15.1007 41.2649 15.0674 40.7316 15.0007C40.2116 14.9207 39.6782 14.7874 39.1316 14.6007C38.5982 14.414 38.1449 14.154 37.7716 13.8207L39.4116 13.0007C39.8782 13.1874 40.3582 13.314 40.8516 13.3807C41.3582 13.434 41.8249 13.4607 42.2516 13.4607C42.5316 13.4607 42.7316 13.5407 42.8516 13.7007C42.9849 13.8474 43.0516 14.0274 43.0516 14.2407C43.0516 14.454 42.9582 14.654 42.7716 14.8407C42.5849 15.014 42.3449 15.1007 42.0516 15.1007ZM27.8516 15.1007L28.0516 13.4607H32.2316C33.3916 13.4607 34.3916 13.414 35.2316 13.3207C36.0849 13.214 36.7849 13.0607 37.3316 12.8607C37.8782 12.6607 38.2849 12.4074 38.5516 12.1007C38.8182 11.7807 38.9516 11.4074 38.9516 10.9807C38.9516 10.754 38.8782 10.5074 38.7316 10.2407C38.5849 9.97404 38.3582 9.74737 38.0516 9.5607C37.7449 9.3607 37.3382 9.2607 36.8316 9.2607C36.1916 9.2607 35.5516 9.42737 34.9116 9.7607C34.2849 10.094 33.6849 10.514 33.1116 11.0207C32.5516 11.514 32.0516 12.0207 31.6116 12.5407C31.1716 13.0607 30.8182 13.514 30.5516 13.9007L28.8116 13.8407C29.2382 13.1474 29.7449 12.4407 30.3316 11.7207C30.9316 10.9874 31.5849 10.314 32.2916 9.7007C33.0116 9.07404 33.7649 8.57404 34.5516 8.2007C35.3382 7.81404 36.1382 7.6207 36.9516 7.6207C37.6849 7.6207 38.3116 7.77404 38.8316 8.0807C39.3649 8.37404 39.7716 8.77404 40.0516 9.2807C40.3449 9.78737 40.4916 10.3607 40.4916 11.0007C40.4916 11.6274 40.2649 12.2607 39.8116 12.9007C39.3582 13.5274 38.5782 14.0207 37.4716 14.3807C36.9116 14.5674 36.2716 14.714 35.5516 14.8207C34.8316 14.9274 34.0116 15.0007 33.0916 15.0407C32.1716 15.0807 31.1249 15.1007 29.9516 15.1007H27.8516ZM29.7516 13.1207L29.3516 0.720703H30.9716L31.3716 11.7207L29.7516 13.1207Z" fill="#4B4C48"/>
<path d="M21.8555 15.1007L22.0355 13.4607C22.7955 13.4607 23.3288 13.3874 23.6355 13.2407C23.9421 13.094 24.1155 12.834 24.1555 12.4607C24.2088 12.0874 24.2221 11.5674 24.1955 10.9007L23.8555 0.720703H25.5155L25.8355 10.8607C25.8621 11.5407 25.9688 12.074 26.1555 12.4607C26.3555 12.834 26.6221 13.094 26.9555 13.2407C27.2888 13.3874 27.6555 13.4607 28.0555 13.4607C28.3355 13.4607 28.5355 13.5407 28.6555 13.7007C28.7888 13.8474 28.8555 14.0274 28.8555 14.2407C28.8555 14.454 28.7621 14.654 28.5755 14.8407C28.3888 15.014 28.1488 15.1007 27.8555 15.1007C27.2955 15.1007 26.8288 15.014 26.4555 14.8407C26.0955 14.654 25.8088 14.4207 25.5955 14.1407C25.3955 13.8474 25.2621 13.5407 25.1955 13.2207L25.6155 13.2607C25.4821 13.6607 25.2621 14.0007 24.9555 14.2807C24.6621 14.5474 24.2621 14.754 23.7555 14.9007C23.2488 15.034 22.6155 15.1007 21.8555 15.1007Z" fill="#4B4C48"/>
<path d="M7.79998 15.4207L8.31998 13.7807C9.13331 13.7807 9.99331 13.734 10.9 13.6407C11.8066 13.534 12.7066 13.354 13.6 13.1007C14.5066 12.834 15.3666 12.474 16.18 12.0207C16.9933 11.5674 17.7066 10.994 18.32 10.3007L19.58 11.0407C19.46 11.3474 19.38 11.594 19.34 11.7807C19.3 11.954 19.28 12.114 19.28 12.2607C19.28 12.4607 19.3533 12.654 19.5 12.8407C19.6466 13.014 19.92 13.1607 20.32 13.2807C20.7333 13.4007 21.3133 13.4607 22.06 13.4607C22.34 13.4607 22.54 13.5407 22.66 13.7007C22.7933 13.8474 22.86 14.0274 22.86 14.2407C22.86 14.454 22.7666 14.654 22.58 14.8407C22.3933 15.014 22.1533 15.1007 21.86 15.1007C21.0066 15.1007 20.2533 15.014 19.6 14.8407C18.96 14.654 18.48 14.3674 18.16 13.9807C17.8533 13.5807 17.7533 13.0674 17.86 12.4407L18.22 12.5607C17.6866 13.0407 17.0466 13.4607 16.3 13.8207C15.5666 14.1674 14.7466 14.4607 13.84 14.7007C12.9466 14.9407 11.9866 15.1207 10.96 15.2407C9.94664 15.3607 8.89331 15.4207 7.79998 15.4207ZM7.79998 15.4207C6.61331 15.4207 5.56664 15.3407 4.65998 15.1807C3.76664 15.034 3.01998 14.8007 2.41998 14.4807C1.81998 14.1607 1.36664 13.7474 1.05998 13.2407C0.753309 12.7207 0.599976 12.094 0.599976 11.3607C0.599976 11.0274 0.626642 10.6874 0.679976 10.3407C0.733309 9.9807 0.799976 9.6207 0.879976 9.2607C0.973309 8.9007 1.06664 8.55404 1.15998 8.2207L2.65998 8.6007C2.60664 8.8007 2.54664 9.0407 2.47998 9.3207C2.41331 9.58737 2.35331 9.8607 2.29998 10.1407C2.25998 10.4207 2.23998 10.674 2.23998 10.9007C2.23998 11.594 2.41331 12.154 2.75998 12.5807C3.11998 12.994 3.73998 13.3007 4.61998 13.5007C5.49998 13.6874 6.73331 13.7807 8.31998 13.7807L8.71998 14.7807L7.79998 15.4207ZM9.25998 19.2207C8.97998 19.2207 8.73998 19.1207 8.53998 18.9207C8.35331 18.734 8.25998 18.5074 8.25998 18.2407C8.25998 17.974 8.35331 17.7407 8.53998 17.5407C8.73998 17.3407 8.97998 17.2407 9.25998 17.2407C9.52664 17.2407 9.75331 17.3407 9.93998 17.5407C10.14 17.7407 10.24 17.974 10.24 18.2407C10.24 18.5074 10.14 18.734 9.93998 18.9207C9.75331 19.1207 9.52664 19.2207 9.25998 19.2207Z" fill="#4B4C48"/>
</svg>
