<svg width="119" height="20" viewBox="0 0 119 20" fill="none" xmlns="http://www.w3.org/2000/svg">
<path d="M109.98 15.1L110.18 13.46H112.06C112.847 13.46 113.467 13.42 113.92 13.34C114.387 13.2467 114.727 13.1333 114.94 13C115.167 12.8533 115.314 12.7 115.38 12.54C115.46 12.3667 115.5 12.1933 115.5 12.02C115.5 11.7133 115.38 11.3333 115.14 10.88C114.914 10.4267 114.44 9.83999 113.72 9.11999C113.347 8.74665 112.974 8.40665 112.6 8.09999C112.227 7.77999 111.88 7.49999 111.56 7.25998C111.254 7.00665 111.007 6.79332 110.82 6.61998C110.634 6.44665 110.54 6.31332 110.54 6.21999C110.54 6.01998 110.554 5.82665 110.58 5.63999C110.62 5.45332 110.667 5.27999 110.72 5.11999C110.787 4.95999 110.867 4.83332 110.96 4.73999C111.227 4.45999 111.567 4.17998 111.98 3.89999C112.407 3.61998 112.9 3.32665 113.46 3.01999C114.034 2.71332 114.674 2.38665 115.38 2.03999C116.1 1.67999 116.887 1.28665 117.74 0.859985L118.42 2.33999C117.354 2.84665 116.46 3.27998 115.74 3.63999C115.034 3.98665 114.434 4.29999 113.94 4.57999C113.447 4.84665 113.014 5.09999 112.64 5.33999C112.267 5.57999 111.887 5.84665 111.5 6.13999L111.8 5.37998C112.64 6.04665 113.38 6.67332 114.02 7.25998C114.674 7.84665 115.22 8.41332 115.66 8.95999C116.1 9.49332 116.434 10.02 116.66 10.54C116.887 11.06 117 11.5867 117 12.12C117 12.4133 116.947 12.7333 116.84 13.08C116.734 13.4267 116.507 13.7533 116.16 14.06C115.814 14.3667 115.294 14.62 114.6 14.82C113.907 15.0067 112.974 15.1 111.8 15.1H109.98Z" fill="#4B4C48"/>
<path d="M92.9883 15.1L93.1883 13.46C93.6149 13.46 93.9616 13.4333 94.2283 13.38C94.4949 13.3133 94.7149 13.16 94.8883 12.92C95.0749 12.6667 95.2483 12.2733 95.4083 11.74C95.5683 11.2067 95.755 10.46 95.9683 9.5L97.4683 9.92C97.3883 10.2533 97.2949 10.6533 97.1883 11.12C97.0816 11.5867 97.0283 12.0133 97.0283 12.4C97.0283 12.6133 97.0816 12.8 97.1883 12.96C97.2949 13.12 97.4749 13.2467 97.7283 13.34C97.9949 13.42 98.3483 13.46 98.7883 13.46C99.1883 13.46 99.5149 13.4267 99.7683 13.36C100.022 13.2933 100.228 13.1333 100.388 12.88C100.562 12.6267 100.715 12.22 100.848 11.66C100.982 11.1 101.122 10.3333 101.268 9.36L102.788 9.64C102.748 9.88 102.702 10.1733 102.648 10.52C102.595 10.8667 102.542 11.2133 102.488 11.56C102.448 11.8933 102.428 12.1733 102.428 12.4C102.428 12.5867 102.468 12.7667 102.548 12.94C102.642 13.1 102.815 13.2267 103.068 13.32C103.335 13.4133 103.728 13.46 104.248 13.46C104.915 13.46 105.395 13.32 105.688 13.04C105.995 12.76 106.148 12.3333 106.148 11.76C106.148 11.4533 106.142 11.1333 106.128 10.8C106.115 10.4533 106.088 10.0733 106.048 9.66C106.022 9.23333 105.975 8.74666 105.908 8.2L107.368 8.1C107.448 9.18 107.535 10.0667 107.628 10.76C107.735 11.4533 107.882 12 108.068 12.4C108.268 12.7867 108.535 13.06 108.868 13.22C109.202 13.38 109.642 13.46 110.188 13.46C110.468 13.46 110.668 13.54 110.788 13.7C110.922 13.8467 110.988 14.0267 110.988 14.24C110.988 14.4533 110.895 14.6533 110.708 14.84C110.522 15.0133 110.282 15.1 109.988 15.1C109.535 15.1 109.128 15.04 108.768 14.92C108.422 14.7867 108.115 14.6133 107.848 14.4C107.595 14.1733 107.382 13.92 107.208 13.64C107.048 13.3467 106.935 13.04 106.868 12.72L107.228 12.84C107.082 13.44 106.848 13.9067 106.528 14.24C106.222 14.56 105.855 14.7867 105.428 14.92C105.002 15.04 104.548 15.1 104.068 15.1C103.482 15.1 103.002 15.0267 102.628 14.88C102.255 14.7333 101.962 14.5133 101.748 14.22C101.548 13.9133 101.415 13.5267 101.348 13.06H102.028C101.775 13.6333 101.508 14.0667 101.228 14.36C100.948 14.6533 100.602 14.8533 100.188 14.96C99.7749 15.0533 99.2283 15.1 98.5483 15.1C98.2149 15.1 97.855 15.0467 97.4683 14.94C97.095 14.8333 96.7683 14.6267 96.4883 14.32C96.2083 14 96.0416 13.5267 95.9883 12.9L96.5883 12.78C96.3616 13.46 96.0816 13.9667 95.7483 14.3C95.4283 14.62 95.0416 14.8333 94.5883 14.94C94.1349 15.0467 93.6016 15.1 92.9883 15.1ZM101.608 4.1C101.328 4.1 101.088 4.00666 100.888 3.82C100.702 3.62 100.608 3.38666 100.608 3.12C100.608 2.85333 100.702 2.62 100.888 2.42C101.088 2.22 101.328 2.12 101.608 2.12C101.875 2.12 102.102 2.22 102.288 2.42C102.488 2.62 102.588 2.85333 102.588 3.12C102.588 3.38666 102.488 3.62 102.288 3.82C102.102 4.00666 101.875 4.1 101.608 4.1ZM100.248 6.3C99.9683 6.3 99.7283 6.20666 99.5283 6.02C99.3416 5.82 99.2483 5.58666 99.2483 5.32C99.2483 5.05333 99.3416 4.82 99.5283 4.62C99.7283 4.42 99.9683 4.32 100.248 4.32C100.515 4.32 100.742 4.42 100.928 4.62C101.128 4.82 101.228 5.05333 101.228 5.32C101.228 5.58666 101.128 5.82 100.928 6.02C100.742 6.20666 100.515 6.3 100.248 6.3ZM102.968 6.3C102.688 6.3 102.448 6.20666 102.248 6.02C102.062 5.82 101.968 5.58666 101.968 5.32C101.968 5.05333 102.062 4.82 102.248 4.62C102.448 4.42 102.688 4.32 102.968 4.32C103.235 4.32 103.462 4.42 103.648 4.62C103.848 4.82 103.948 5.05333 103.948 5.32C103.948 5.58666 103.848 5.82 103.648 6.02C103.462 6.20666 103.235 6.3 102.968 6.3Z" fill="#4B4C48"/>
<path d="M78.8351 15.4199L79.3551 13.7799C80.3418 13.7799 81.2551 13.7599 82.0951 13.7199C82.9351 13.6799 83.6951 13.6266 84.3751 13.5599C85.0551 13.4932 85.6351 13.4266 86.1151 13.3599C86.6085 13.2799 86.9818 13.1999 87.2351 13.1199C87.7018 12.9732 88.1285 12.7866 88.5151 12.5599C88.9151 12.3332 89.2351 12.0532 89.4751 11.7199C89.7285 11.3732 89.8551 10.9732 89.8551 10.5199C89.8551 10.2932 89.8085 10.0532 89.7151 9.79991C89.6351 9.54658 89.5151 9.31325 89.3551 9.09991C89.2085 8.87325 89.0285 8.69325 88.8151 8.55991C88.6151 8.41325 88.3951 8.33991 88.1551 8.33991C87.8351 8.33991 87.5351 8.45325 87.2551 8.67991C86.9885 8.90658 86.7685 9.19325 86.5951 9.53991C86.4351 9.88658 86.3551 10.2399 86.3551 10.5999C86.3551 11.0266 86.4618 11.3999 86.6751 11.7199C86.9018 12.0266 87.1751 12.2932 87.4951 12.5199C87.8151 12.7332 88.1351 12.9132 88.4551 13.0599L86.5551 13.6999C86.3418 13.5399 86.0885 13.3199 85.7951 13.0399C85.5151 12.7599 85.2618 12.4132 85.0351 11.9999C84.8218 11.5866 84.7151 11.1066 84.7151 10.5599C84.7151 10.0266 84.8085 9.52658 84.9951 9.05991C85.1818 8.59325 85.4418 8.18658 85.7751 7.83991C86.1085 7.47991 86.4818 7.19991 86.8951 6.99991C87.3218 6.79991 87.7618 6.69991 88.2151 6.69991C88.8685 6.69991 89.4418 6.88658 89.9351 7.25991C90.4285 7.61991 90.8085 8.08658 91.0751 8.65991C91.3551 9.21991 91.4951 9.79991 91.4951 10.3999C91.4951 10.9732 91.3885 11.4866 91.1751 11.9399C90.9618 12.3932 90.6685 12.7932 90.2951 13.1399C89.9351 13.4866 89.5085 13.7866 89.0151 14.0399C88.5351 14.2932 88.0218 14.4999 87.4751 14.6599C87.1685 14.7532 86.7285 14.8466 86.1551 14.9399C85.5818 15.0199 84.9085 15.0932 84.1351 15.1599C83.3618 15.2399 82.5218 15.2999 81.6151 15.3399C80.7218 15.3932 79.7951 15.4199 78.8351 15.4199ZM92.9951 15.0999C92.3285 15.0999 91.6618 15.0666 90.9951 14.9999C90.3285 14.9199 89.6818 14.8132 89.0551 14.6799C88.4418 14.5332 87.8685 14.3599 87.3351 14.1599L88.7151 13.1999C89.1151 13.2532 89.5885 13.2999 90.1351 13.3399C90.6818 13.3799 91.2285 13.4132 91.7751 13.4399C92.3218 13.4532 92.7951 13.4599 93.1951 13.4599C93.4751 13.4599 93.6751 13.5399 93.7951 13.6999C93.9285 13.8466 93.9951 14.0266 93.9951 14.2399C93.9951 14.4532 93.9018 14.6532 93.7151 14.8399C93.5285 15.0132 93.2885 15.0999 92.9951 15.0999ZM78.8351 15.4199C77.6485 15.4199 76.6018 15.3399 75.6951 15.1799C74.8018 15.0332 74.0551 14.7999 73.4551 14.4799C72.8551 14.1599 72.4018 13.7466 72.0951 13.2399C71.7885 12.7199 71.6351 12.0932 71.6351 11.3599C71.6351 11.0266 71.6618 10.6866 71.7151 10.3399C71.7685 9.97991 71.8351 9.61991 71.9151 9.25991C72.0085 8.89991 72.1018 8.55325 72.1951 8.21991L73.6951 8.59991C73.6418 8.79991 73.5818 9.03991 73.5151 9.31991C73.4485 9.58658 73.3885 9.85991 73.3351 10.1399C73.2951 10.4199 73.2751 10.6732 73.2751 10.8999C73.2751 11.5932 73.4485 12.1532 73.7951 12.5799C74.1551 12.9932 74.7751 13.2999 75.6551 13.4999C76.5351 13.6866 77.7685 13.7799 79.3551 13.7799L79.7551 14.7799L78.8351 15.4199ZM88.0351 4.63991C87.7551 4.63991 87.5151 4.54658 87.3151 4.35991C87.1285 4.15991 87.0351 3.92658 87.0351 3.65991C87.0351 3.39325 87.1285 3.15991 87.3151 2.95991C87.5151 2.75991 87.7551 2.65991 88.0351 2.65991C88.3018 2.65991 88.5285 2.75991 88.7151 2.95991C88.9151 3.15991 89.0151 3.39325 89.0151 3.65991C89.0151 3.92658 88.9151 4.15991 88.7151 4.35991C88.5285 4.54658 88.3018 4.63991 88.0351 4.63991Z" fill="#4B4C48"/>
<path d="M62.4845 15L62.0845 0.719971H63.7045L64.1045 15H62.4845Z" fill="#4B4C48"/>
<path d="M55.4492 15.1L55.6292 13.46C56.3892 13.46 56.9226 13.3866 57.2292 13.24C57.5359 13.0933 57.7092 12.8333 57.7492 12.46C57.8026 12.0866 57.8159 11.5666 57.7892 10.9L57.4092 0.719971H59.0292L59.4292 10.72C59.4559 11.4266 59.4292 12.0533 59.3492 12.6C59.2826 13.1466 59.1092 13.6066 58.8292 13.98C58.5626 14.3533 58.1559 14.6333 57.6092 14.82C57.0759 15.0066 56.3559 15.1 55.4492 15.1Z" fill="#4B4C48"/>
<path d="M49.1046 13.46C49.7713 13.46 50.298 13.3933 50.6846 13.26C51.0846 13.1267 51.3713 12.9333 51.5446 12.68C51.7313 12.4133 51.8246 12.1067 51.8246 11.76C51.8246 11.4933 51.7513 11.1733 51.6046 10.8C51.4713 10.4267 51.2846 10.0133 51.0446 9.55999C50.8046 9.09333 50.5246 8.60666 50.2046 8.09999C49.898 7.57999 49.5646 7.05333 49.2046 6.51999L50.5846 5.62C51.1046 6.40666 51.558 7.15333 51.9446 7.85999C52.3313 8.55333 52.658 9.20666 52.9246 9.81999C53.1913 10.42 53.4046 10.9867 53.5646 11.52C53.7513 12.1067 53.958 12.54 54.1846 12.82C54.4246 13.1 54.6713 13.28 54.9246 13.36C55.178 13.4267 55.4113 13.46 55.6246 13.46C55.9046 13.46 56.1113 13.54 56.2446 13.7C56.378 13.8467 56.4446 14.0267 56.4446 14.24C56.4446 14.4533 56.3513 14.6533 56.1646 14.84C55.978 15.0133 55.738 15.1 55.4446 15.1C55.0046 15.1 54.5713 15.02 54.1446 14.86C53.7313 14.6867 53.3713 14.4133 53.0646 14.04C52.758 13.6533 52.5446 13.14 52.4246 12.5L53.2246 11.86C53.2246 12.3933 53.1113 12.9133 52.8846 13.42C52.658 13.9133 52.2446 14.32 51.6446 14.64C51.058 14.96 50.2113 15.12 49.1046 15.12C48.6246 15.12 48.158 15.08 47.7046 15C47.2646 14.92 46.858 14.8067 46.4846 14.66C46.1113 14.5 45.7846 14.3133 45.5046 14.1L46.3046 12.72C46.5713 12.8933 46.9446 13.06 47.4246 13.22C47.9046 13.38 48.4646 13.46 49.1046 13.46Z" fill="#4B4C48"/>
<path d="M37.5409 19.6L36.9609 18.08C38.3076 17.6533 39.3409 17.14 40.0609 16.54C40.7943 15.9533 41.2943 15.34 41.5609 14.7C41.8409 14.06 41.9809 13.4466 41.9809 12.86C41.9809 12.4866 41.9409 12.1266 41.8609 11.78C41.7809 11.4333 41.6409 11.04 41.4409 10.6C41.2409 10.16 40.9609 9.6133 40.6009 8.95997L42.0609 8.21997C42.5676 9.08664 42.9276 9.90664 43.1409 10.68C43.3676 11.4533 43.4809 12.1333 43.4809 12.72C43.4809 13.56 43.3409 14.32 43.0609 15C42.7943 15.68 42.4343 16.28 41.9809 16.8C41.5409 17.3333 41.0543 17.7866 40.5209 18.16C40.0009 18.5333 39.4743 18.84 38.9409 19.08C38.4209 19.32 37.9543 19.4933 37.5409 19.6Z" fill="#4B4C48"/>
<path d="M25.6836 15.1L25.8636 13.46C26.5569 13.46 27.2369 13.4066 27.9036 13.3C28.5703 13.1933 29.2236 13.04 29.8636 12.84C30.5036 12.64 31.1169 12.4 31.7036 12.12C32.3036 11.8266 32.8703 11.4933 33.4036 11.12C33.0569 10.8133 32.6569 10.5466 32.2036 10.32C31.7503 10.0933 31.2503 9.91996 30.7036 9.79996C30.1703 9.66663 29.6036 9.59996 29.0036 9.59996C28.7903 9.59996 28.5903 9.60663 28.4036 9.61996C28.2169 9.6333 28.0303 9.65996 27.8436 9.69996C27.6569 9.72663 27.4436 9.76663 27.2036 9.81996L26.8836 8.29996C27.2436 8.1933 27.6036 8.11329 27.9636 8.05996C28.3236 7.99329 28.6703 7.95996 29.0036 7.95996C29.6969 7.95996 30.3236 8.04663 30.8836 8.21996C31.4436 8.37996 31.9503 8.57996 32.4036 8.81996C32.8703 9.05996 33.3036 9.29996 33.7036 9.53996C34.1169 9.77996 34.5169 9.98663 34.9036 10.16C35.2903 10.32 35.6903 10.4 36.1036 10.4H36.5236L36.6636 11.84C36.0903 11.84 35.5636 11.92 35.0836 12.08C34.6036 12.24 34.1303 12.4466 33.6636 12.7C33.2103 12.94 32.7303 13.2 32.2236 13.48C31.7169 13.7466 31.1569 14.0066 30.5436 14.26C29.9303 14.5 29.2236 14.7 28.4236 14.86C27.6369 15.02 26.7236 15.1 25.6836 15.1ZM31.2636 18.72C30.9836 18.72 30.7436 18.62 30.5436 18.42C30.3569 18.2333 30.2636 18.0066 30.2636 17.74C30.2636 17.4733 30.3569 17.24 30.5436 17.04C30.7436 16.84 30.9836 16.74 31.2636 16.74C31.5303 16.74 31.7569 16.84 31.9436 17.04C32.1436 17.24 32.2436 17.4733 32.2436 17.74C32.2436 18.0066 32.1436 18.2333 31.9436 18.42C31.7569 18.62 31.5303 18.72 31.2636 18.72Z" fill="#4B4C48"/>
<path d="M25.6832 15.1C24.6166 15.1 23.7966 14.98 23.2232 14.74C22.6632 14.5 22.2766 14.1266 22.0632 13.62C21.8499 13.1133 21.7299 12.46 21.7032 11.66L21.3032 0.719971H22.9432L23.3432 11.02C23.3699 11.6733 23.4299 12.18 23.5232 12.54C23.6299 12.8866 23.8566 13.1266 24.2032 13.26C24.5632 13.3933 25.1232 13.46 25.8832 13.46C26.1632 13.46 26.3632 13.54 26.4832 13.7C26.6166 13.8466 26.6832 14.0266 26.6832 14.24C26.6832 14.4533 26.5899 14.6533 26.4032 14.84C26.2166 15.0133 25.9766 15.1 25.6832 15.1Z" fill="#4B4C48"/>
<path d="M7.79998 15.42L8.31998 13.78C9.87998 13.78 11.22 13.74 12.34 13.66C13.4733 13.58 14.4 13.4533 15.12 13.28C15.8533 13.0933 16.3933 12.8467 16.74 12.54C17.1 12.22 17.28 11.8333 17.28 11.38C17.28 10.8733 17.1866 10.2867 17 9.62C16.8133 8.95333 16.5733 8.24 16.28 7.48L17.82 6.94C17.9933 7.36667 18.1533 7.82667 18.3 8.32C18.46 8.8 18.5933 9.28 18.7 9.76C18.8066 10.2267 18.86 10.66 18.86 11.06C18.86 11.8467 18.68 12.52 18.32 13.08C17.96 13.6267 17.36 14.0733 16.52 14.42C15.68 14.7667 14.5466 15.02 13.12 15.18C11.7066 15.34 9.93331 15.42 7.79998 15.42ZM7.79998 15.42C6.61331 15.42 5.56664 15.34 4.65998 15.18C3.76664 15.0333 3.01998 14.8 2.41998 14.48C1.81998 14.16 1.36664 13.7467 1.05998 13.24C0.753309 12.72 0.599976 12.0933 0.599976 11.36C0.599976 11.0267 0.626642 10.6867 0.679976 10.34C0.733309 9.98 0.799976 9.62 0.879976 9.26C0.973309 8.9 1.06664 8.55333 1.15998 8.22L2.65998 8.6C2.60664 8.8 2.54664 9.04 2.47998 9.32C2.41331 9.58667 2.35331 9.86 2.29998 10.14C2.25998 10.42 2.23998 10.6733 2.23998 10.9C2.23998 11.5933 2.41331 12.1533 2.75998 12.58C3.11998 12.9933 3.73998 13.3 4.61998 13.5C5.49998 13.6867 6.73331 13.78 8.31998 13.78L8.71998 14.78L7.79998 15.42ZM11.14 6.98C10.86 6.98 10.62 6.88667 10.42 6.7C10.2333 6.5 10.14 6.26667 10.14 6C10.14 5.73333 10.2333 5.5 10.42 5.3C10.62 5.1 10.86 5 11.14 5C11.4066 5 11.6333 5.1 11.82 5.3C12.02 5.5 12.12 5.73333 12.12 6C12.12 6.26667 12.02 6.5 11.82 6.7C11.6333 6.88667 11.4066 6.98 11.14 6.98ZM8.39998 6.98C8.11998 6.98 7.87998 6.88667 7.67998 6.7C7.49331 6.5 7.39998 6.26667 7.39998 6C7.39998 5.73333 7.49331 5.5 7.67998 5.3C7.87998 5.1 8.11998 5 8.39998 5C8.66664 5 8.89331 5.1 9.07998 5.3C9.27998 5.5 9.37998 5.73333 9.37998 6C9.37998 6.26667 9.27998 6.5 9.07998 6.7C8.89331 6.88667 8.66664 6.98 8.39998 6.98Z" fill="#4B4C48"/>
</svg>
