<svg width="116" height="23" viewBox="0 0 116 23" fill="none" xmlns="http://www.w3.org/2000/svg">
<path d="M109.766 15.1L109.966 13.46C110.752 13.46 111.366 13.4333 111.806 13.38C112.246 13.3133 112.559 13.16 112.746 12.92C112.932 12.6667 113.026 12.2733 113.026 11.74C113.026 11.4067 112.972 11.0133 112.866 10.56C112.759 10.0933 112.619 9.6 112.446 9.08C112.272 8.56 112.086 8.04667 111.886 7.54L113.506 6.94C113.679 7.36667 113.839 7.85334 113.986 8.4C114.146 8.94667 114.279 9.48667 114.386 10.02C114.492 10.5533 114.546 11.02 114.546 11.42C114.546 12.0867 114.452 12.6533 114.266 13.12C114.092 13.5867 113.812 13.9667 113.426 14.26C113.039 14.5533 112.539 14.7667 111.926 14.9C111.326 15.0333 110.606 15.1 109.766 15.1ZM114.126 4.86C113.846 4.86 113.606 4.76667 113.406 4.58C113.219 4.38 113.126 4.14667 113.126 3.88C113.126 3.61334 113.219 3.38 113.406 3.18C113.606 2.98 113.846 2.88 114.126 2.88C114.392 2.88 114.619 2.98 114.806 3.18C115.006 3.38 115.106 3.61334 115.106 3.88C115.106 4.14667 115.006 4.38 114.806 4.58C114.619 4.76667 114.392 4.86 114.126 4.86ZM111.386 4.86C111.106 4.86 110.866 4.76667 110.666 4.58C110.479 4.38 110.386 4.14667 110.386 3.88C110.386 3.61334 110.479 3.38 110.666 3.18C110.866 2.98 111.106 2.88 111.386 2.88C111.652 2.88 111.879 2.98 112.066 3.18C112.266 3.38 112.366 3.61334 112.366 3.88C112.366 4.14667 112.266 4.38 112.066 4.58C111.879 4.76667 111.652 4.86 111.386 4.86Z" fill="#4B4C48"/>
<path d="M92.7734 15.1L92.9734 13.46C93.4001 13.46 93.7468 13.4333 94.0134 13.38C94.2801 13.3133 94.5001 13.16 94.6734 12.92C94.8601 12.6666 95.0334 12.2733 95.1934 11.74C95.3534 11.2066 95.5401 10.46 95.7534 9.49998L97.2534 9.91998C97.1734 10.2533 97.0801 10.6533 96.9734 11.12C96.8668 11.5866 96.8134 12.0133 96.8134 12.4C96.8134 12.6133 96.8668 12.8 96.9734 12.96C97.0801 13.12 97.2601 13.2466 97.5134 13.34C97.7801 13.42 98.1334 13.46 98.5734 13.46C98.9734 13.46 99.3001 13.4266 99.5534 13.36C99.8068 13.2933 100.013 13.1333 100.173 12.88C100.347 12.6266 100.5 12.22 100.633 11.66C100.767 11.1 100.907 10.3333 101.053 9.35998L102.573 9.63998C102.533 9.87998 102.487 10.1733 102.433 10.52C102.38 10.8666 102.327 11.2133 102.273 11.56C102.233 11.8933 102.213 12.1733 102.213 12.4C102.213 12.5866 102.253 12.7666 102.333 12.94C102.427 13.1 102.6 13.2266 102.853 13.32C103.12 13.4133 103.513 13.46 104.033 13.46C104.7 13.46 105.18 13.32 105.473 13.04C105.78 12.76 105.933 12.3333 105.933 11.76C105.933 11.4533 105.927 11.1333 105.913 10.8C105.9 10.4533 105.873 10.0733 105.833 9.65998C105.807 9.23331 105.76 8.74664 105.693 8.19998L107.153 8.09998C107.233 9.17998 107.32 10.0666 107.413 10.76C107.52 11.4533 107.667 12 107.853 12.4C108.053 12.7866 108.32 13.06 108.653 13.22C108.987 13.38 109.427 13.46 109.973 13.46C110.253 13.46 110.453 13.54 110.573 13.7C110.707 13.8466 110.773 14.0266 110.773 14.24C110.773 14.4533 110.68 14.6533 110.493 14.84C110.307 15.0133 110.067 15.1 109.773 15.1C109.32 15.1 108.913 15.04 108.553 14.92C108.207 14.7866 107.9 14.6133 107.633 14.4C107.38 14.1733 107.167 13.92 106.993 13.64C106.833 13.3466 106.72 13.04 106.653 12.72L107.013 12.84C106.867 13.44 106.633 13.9066 106.313 14.24C106.007 14.56 105.64 14.7866 105.213 14.92C104.787 15.04 104.333 15.1 103.853 15.1C103.267 15.1 102.787 15.0266 102.413 14.88C102.04 14.7333 101.747 14.5133 101.533 14.22C101.333 13.9133 101.2 13.5266 101.133 13.06H101.813C101.56 13.6333 101.293 14.0666 101.013 14.36C100.733 14.6533 100.387 14.8533 99.9734 14.96C99.5601 15.0533 99.0134 15.1 98.3334 15.1C98.0001 15.1 97.6401 15.0466 97.2534 14.94C96.8801 14.8333 96.5534 14.6266 96.2734 14.32C95.9934 14 95.8268 13.5266 95.7734 12.9L96.3734 12.78C96.1468 13.46 95.8668 13.9666 95.5334 14.3C95.2134 14.62 94.8268 14.8333 94.3734 14.94C93.9201 15.0466 93.3868 15.1 92.7734 15.1Z" fill="#4B4C48"/>
<path d="M92.7791 15.1C92.2191 15.1 91.7057 15.0666 91.2391 15C90.7724 14.92 90.3524 14.78 89.9791 14.58C89.6057 14.38 89.2924 14.0933 89.0391 13.72C88.7857 13.3333 88.5924 12.8266 88.4591 12.2L89.6391 11.5C89.8124 12.0333 90.0257 12.44 90.2791 12.72C90.5324 13 90.8724 13.1933 91.2991 13.3C91.7391 13.4066 92.2991 13.46 92.9791 13.46C93.2591 13.46 93.4591 13.54 93.5791 13.7C93.7124 13.8466 93.7791 14.0266 93.7791 14.24C93.7791 14.4533 93.6857 14.6533 93.4991 14.84C93.3124 15.0133 93.0724 15.1 92.7791 15.1ZM80.0391 15.1L80.2191 13.46C80.9124 13.46 81.5924 13.4066 82.2591 13.3C82.9257 13.1933 83.5791 13.04 84.2191 12.84C84.8591 12.64 85.4724 12.4 86.0591 12.12C86.6591 11.8266 87.2257 11.4933 87.7591 11.12C87.4124 10.8133 87.0124 10.5466 86.5591 10.32C86.1057 10.0933 85.6057 9.91996 85.0591 9.79996C84.5257 9.66663 83.9591 9.59996 83.3591 9.59996C83.1457 9.59996 82.9457 9.60663 82.7591 9.61996C82.5724 9.6333 82.3857 9.65996 82.1991 9.69996C82.0124 9.72663 81.7991 9.76663 81.5591 9.81996L81.2391 8.29996C81.5991 8.1933 81.9591 8.11329 82.3191 8.05996C82.6791 7.99329 83.0257 7.95996 83.3591 7.95996C84.0524 7.95996 84.6791 8.04663 85.2391 8.21996C85.7991 8.37996 86.3057 8.57996 86.7591 8.81996C87.2257 9.05996 87.6591 9.29996 88.0591 9.53996C88.4724 9.77996 88.8724 9.98663 89.2591 10.16C89.6457 10.32 90.0457 10.4 90.4591 10.4H90.8791L91.0191 11.84C90.4457 11.84 89.9191 11.92 89.4391 12.08C88.9591 12.24 88.4857 12.4466 88.0191 12.7C87.5657 12.94 87.0857 13.2 86.5791 13.48C86.0724 13.7466 85.5124 14.0066 84.8991 14.26C84.2857 14.5 83.5791 14.7 82.7791 14.86C81.9924 15.02 81.0791 15.1 80.0391 15.1ZM85.2591 18.72C84.9791 18.72 84.7391 18.62 84.5391 18.42C84.3524 18.2333 84.2591 18.0066 84.2591 17.74C84.2591 17.4733 84.3524 17.24 84.5391 17.04C84.7391 16.84 84.9791 16.74 85.2591 16.74C85.5257 16.74 85.7524 16.84 85.9391 17.04C86.1391 17.24 86.2391 17.4733 86.2391 17.74C86.2391 18.0066 86.1391 18.2333 85.9391 18.42C85.7524 18.62 85.5257 18.72 85.2591 18.72Z" fill="#4B4C48"/>
<path d="M72.5781 15.1001L72.7781 13.4601C73.4448 13.4601 73.9648 13.4134 74.3381 13.3201C74.7115 13.2134 74.9915 13.0201 75.1781 12.7401C75.3781 12.4468 75.5381 12.0268 75.6581 11.4801C75.7781 10.9334 75.9248 10.2201 76.0981 9.34009L77.6581 9.64009C77.6048 9.88009 77.5448 10.1468 77.4781 10.4401C77.4115 10.7334 77.3515 11.0268 77.2981 11.3201C77.2581 11.6001 77.2381 11.8468 77.2381 12.0601C77.2381 12.2601 77.2515 12.4468 77.2781 12.6201C77.3048 12.7934 77.4048 12.9401 77.5781 13.0601C77.7515 13.1801 78.0448 13.2801 78.4581 13.3601C78.8715 13.4268 79.4648 13.4601 80.2381 13.4601C80.5181 13.4601 80.7181 13.5401 80.8381 13.7001C80.9715 13.8468 81.0381 14.0268 81.0381 14.2401C81.0381 14.4534 80.9448 14.6534 80.7581 14.8401C80.5715 15.0134 80.3315 15.1001 80.0381 15.1001C79.2248 15.1001 78.5781 15.0601 78.0981 14.9801C77.6181 14.8868 77.2515 14.7534 76.9981 14.5801C76.7581 14.4068 76.5848 14.1934 76.4781 13.9401C76.3848 13.6734 76.3115 13.3668 76.2581 13.0201L76.8581 13.0601C76.6448 13.4868 76.4115 13.8334 76.1581 14.1001C75.9181 14.3668 75.6381 14.5734 75.3181 14.7201C74.9981 14.8668 74.6115 14.9668 74.1581 15.0201C73.7181 15.0734 73.1915 15.1001 72.5781 15.1001ZM77.6181 18.8801C77.3381 18.8801 77.0981 18.7801 76.8981 18.5801C76.7115 18.3934 76.6181 18.1668 76.6181 17.9001C76.6181 17.6334 76.7115 17.4001 76.8981 17.2001C77.0981 17.0001 77.3381 16.9001 77.6181 16.9001C77.8848 16.9001 78.1115 17.0001 78.2981 17.2001C78.4981 17.4001 78.5981 17.6334 78.5981 17.9001C78.5981 18.1668 78.4981 18.3934 78.2981 18.5801C78.1115 18.7801 77.8848 18.8801 77.6181 18.8801ZM74.8781 18.8801C74.5981 18.8801 74.3581 18.7801 74.1581 18.5801C73.9715 18.3934 73.8781 18.1668 73.8781 17.9001C73.8781 17.6334 73.9715 17.4001 74.1581 17.2001C74.3581 17.0001 74.5981 16.9001 74.8781 16.9001C75.1448 16.9001 75.3715 17.0001 75.5581 17.2001C75.7581 17.4001 75.8581 17.6334 75.8581 17.9001C75.8581 18.1668 75.7581 18.3934 75.5581 18.5801C75.3715 18.7801 75.1448 18.8801 74.8781 18.8801Z" fill="#4B4C48"/>
<path d="M58.5687 15.02C58.5687 14.7 58.5954 14.36 58.6487 14C58.7154 13.6266 58.8087 13.2333 58.9287 12.82C59.0621 12.3933 59.2221 11.9466 59.4087 11.48L60.8487 12.04C60.7154 12.4133 60.5954 12.7666 60.4887 13.1C60.3954 13.4333 60.3221 13.7466 60.2687 14.04C60.2287 14.3333 60.2087 14.6133 60.2087 14.88C60.2087 15.56 60.3887 16.1333 60.7487 16.6C61.1087 17.0666 61.5754 17.4133 62.1487 17.64C62.7354 17.88 63.3621 18 64.0287 18C65.3354 18 66.3554 17.7666 67.0887 17.3C67.8221 16.8466 68.3354 16.24 68.6287 15.48C68.9221 14.7333 69.0487 13.9133 69.0087 13.02L68.5687 0.719971H70.2287L70.5487 10.86C70.5754 11.54 70.6821 12.0733 70.8687 12.46C71.0687 12.8333 71.3354 13.0933 71.6687 13.24C72.0021 13.3866 72.3687 13.46 72.7687 13.46C73.0487 13.46 73.2487 13.54 73.3687 13.7C73.5021 13.8466 73.5687 14.0266 73.5687 14.24C73.5687 14.4533 73.4754 14.6533 73.2887 14.84C73.1021 15.0133 72.8621 15.1 72.5687 15.1C72.1554 15.1 71.8021 15.0466 71.5087 14.94C71.2154 14.82 70.9754 14.6733 70.7887 14.5C70.6021 14.3133 70.4554 14.1066 70.3487 13.88C70.2421 13.64 70.1621 13.4 70.1087 13.16L70.6687 13.72C70.6154 14.4266 70.4621 15.1266 70.2087 15.82C69.9687 16.5266 69.5954 17.1666 69.0887 17.74C68.5821 18.3133 67.9021 18.7733 67.0487 19.12C66.2087 19.4666 65.1687 19.64 63.9287 19.64C63.2354 19.64 62.5621 19.5333 61.9087 19.32C61.2687 19.12 60.6954 18.82 60.1887 18.42C59.6954 18.02 59.3021 17.5333 59.0087 16.96C58.7154 16.4 58.5687 15.7533 58.5687 15.02Z" fill="#4B4C48"/>
<path d="M49.4181 15L49.0181 0.719971H50.6381L51.0381 15H49.4181Z" fill="#4B4C48"/>
<path d="M42.3828 15.1L42.5628 13.46C43.3228 13.46 43.8561 13.3866 44.1628 13.24C44.4695 13.0933 44.6428 12.8333 44.6828 12.46C44.7361 12.0866 44.7495 11.5666 44.7228 10.9L44.3428 0.719971H45.9628L46.3628 10.72C46.3895 11.4266 46.3628 12.0533 46.2828 12.6C46.2161 13.1466 46.0428 13.6066 45.7628 13.98C45.4961 14.3533 45.0895 14.6333 44.5428 14.82C44.0095 15.0066 43.2895 15.1 42.3828 15.1Z" fill="#4B4C48"/>
<path d="M42.3884 15.0999C41.8284 15.0999 41.3151 15.0666 40.8484 14.9999C40.3818 14.9199 39.9618 14.7799 39.5884 14.5799C39.2151 14.3799 38.9018 14.0933 38.6484 13.7199C38.3951 13.3333 38.2018 12.8266 38.0684 12.1999L39.2484 11.4999C39.4218 12.0333 39.6351 12.4399 39.8884 12.7199C40.1418 12.9999 40.4818 13.1933 40.9084 13.2999C41.3484 13.4066 41.9084 13.4599 42.5884 13.4599C42.8684 13.4599 43.0684 13.5399 43.1884 13.6999C43.3218 13.8466 43.3884 14.0266 43.3884 14.2399C43.3884 14.4533 43.2951 14.6533 43.1084 14.8399C42.9218 15.0133 42.6818 15.0999 42.3884 15.0999ZM29.6484 15.0999L29.8284 13.4599C30.5218 13.4599 31.2018 13.4066 31.8684 13.2999C32.5351 13.1933 33.1884 13.0399 33.8284 12.8399C34.4684 12.6399 35.0818 12.3999 35.6684 12.1199C36.2684 11.8266 36.8351 11.4933 37.3684 11.1199C37.0218 10.8133 36.6218 10.5466 36.1684 10.3199C35.7151 10.0933 35.2151 9.91992 34.6684 9.79992C34.1351 9.66659 33.5684 9.59992 32.9684 9.59992C32.7551 9.59992 32.5551 9.60659 32.3684 9.61992C32.1818 9.63326 31.9951 9.65992 31.8084 9.69992C31.6218 9.72659 31.4084 9.76659 31.1684 9.81992L30.8484 8.29992C31.2084 8.19326 31.5684 8.11325 31.9284 8.05992C32.2884 7.99325 32.6351 7.95992 32.9684 7.95992C33.6618 7.95992 34.2884 8.04659 34.8484 8.21992C35.4084 8.37992 35.9151 8.57992 36.3684 8.81992C36.8351 9.05992 37.2684 9.29992 37.6684 9.53992C38.0818 9.77992 38.4818 9.98659 38.8684 10.1599C39.2551 10.3199 39.6551 10.3999 40.0684 10.3999H40.4884L40.6284 11.8399C40.0551 11.8399 39.5284 11.9199 39.0484 12.0799C38.5684 12.2399 38.0951 12.4466 37.6284 12.6999C37.1751 12.9399 36.6951 13.1999 36.1884 13.4799C35.6818 13.7466 35.1218 14.0066 34.5084 14.2599C33.8951 14.4999 33.1884 14.6999 32.3884 14.8599C31.6018 15.0199 30.6884 15.0999 29.6484 15.0999ZM32.7884 5.89992C32.5084 5.89992 32.2684 5.80659 32.0684 5.61992C31.8818 5.41992 31.7884 5.18659 31.7884 4.91992C31.7884 4.65326 31.8818 4.41992 32.0684 4.21992C32.2684 4.01992 32.5084 3.91992 32.7884 3.91992C33.0551 3.91992 33.2818 4.01992 33.4684 4.21992C33.6684 4.41992 33.7684 4.65326 33.7684 4.91992C33.7684 5.18659 33.6684 5.41992 33.4684 5.61992C33.2818 5.80659 33.0551 5.89992 32.7884 5.89992Z" fill="#4B4C48"/>
<path d="M21.7987 19.64L21.2188 18.12C22.1921 17.8 22.9988 17.4333 23.6388 17.02C24.2921 16.6066 24.8054 16.1666 25.1788 15.7C25.5654 15.2333 25.8388 14.76 25.9988 14.28C26.1588 13.7866 26.2388 13.3133 26.2388 12.86C26.2388 12.2066 26.0921 11.5466 25.7987 10.88C25.5188 10.2 25.2054 9.55997 24.8587 8.95997L26.3188 8.21997C26.5721 8.68664 26.7921 9.14664 26.9788 9.59997C27.1788 10.0533 27.3521 10.48 27.4988 10.88C27.6588 11.28 27.7854 11.6466 27.8787 11.98C28.0654 12.5533 28.3054 12.9466 28.5988 13.16C28.9054 13.36 29.3188 13.46 29.8388 13.46C30.1188 13.46 30.3188 13.54 30.4388 13.7C30.5721 13.8466 30.6388 14.0266 30.6388 14.24C30.6388 14.4533 30.5454 14.6533 30.3587 14.84C30.1721 15.0133 29.9321 15.1 29.6388 15.1C29.0521 15.1 28.5721 15 28.1987 14.8C27.8387 14.5866 27.5654 14.3133 27.3787 13.98C27.1921 13.6333 27.0654 13.2733 26.9988 12.9L27.6388 13.26C27.6388 14.14 27.4387 14.94 27.0387 15.66C26.6521 16.3933 26.1521 17.0266 25.5387 17.56C24.9254 18.1066 24.2854 18.5533 23.6187 18.9C22.9521 19.2466 22.3454 19.4933 21.7987 19.64Z" fill="#4B4C48"/>
<path d="M13.9335 19.6L13.5735 17.96C14.3735 17.8533 15.1068 17.7 15.7735 17.5C16.4535 17.3133 17.0335 17.04 17.5135 16.68C18.0068 16.32 18.3868 15.8467 18.6535 15.26C18.9202 14.6733 19.0535 13.94 19.0535 13.06C19.0535 12.6467 19.0135 12.2533 18.9335 11.88C18.8535 11.4933 18.7335 11.1533 18.5735 10.86C18.4135 10.5667 18.2202 10.3333 17.9935 10.16C17.7802 9.98668 17.5335 9.90001 17.2535 9.90001C16.9468 9.90001 16.6668 10.02 16.4135 10.26C16.1735 10.4867 15.9802 10.78 15.8335 11.14C15.7002 11.5 15.6335 11.86 15.6335 12.22C15.6335 12.5 15.6868 12.7467 15.7935 12.96C15.9135 13.16 16.1068 13.3133 16.3735 13.42C16.6402 13.5267 16.9868 13.58 17.4135 13.58C17.8002 13.58 18.1868 13.54 18.5735 13.46C18.9735 13.38 19.3135 13.2733 19.5935 13.14L19.6735 14.54C19.3535 14.7667 18.9735 14.9267 18.5335 15.02C18.1068 15.1133 17.6735 15.16 17.2335 15.16C16.7268 15.16 16.2735 15.1067 15.8735 15C15.4868 14.8933 15.1535 14.74 14.8735 14.54C14.6068 14.3267 14.4002 14.06 14.2535 13.74C14.1202 13.42 14.0535 13.0467 14.0535 12.62C14.0535 12.1133 14.1335 11.6067 14.2935 11.1C14.4535 10.58 14.6802 10.1067 14.9735 9.68001C15.2668 9.25334 15.6202 8.91334 16.0335 8.66001C16.4468 8.39334 16.9068 8.26001 17.4135 8.26001C17.9468 8.26001 18.4135 8.40001 18.8135 8.68001C19.2135 8.94668 19.5468 9.31334 19.8135 9.78001C20.0802 10.2467 20.2802 10.7733 20.4135 11.36C20.5468 11.9467 20.6135 12.5533 20.6135 13.18C20.6135 14.42 20.3602 15.4867 19.8535 16.38C19.3602 17.2867 18.6135 18.0067 17.6135 18.54C16.6268 19.0733 15.4002 19.4267 13.9335 19.6Z" fill="#4B4C48"/>
<path d="M6.99995 17.2799C6.71995 17.2799 6.47995 17.1799 6.27995 16.9799C6.09329 16.7933 5.99995 16.5666 5.99995 16.2999C5.99995 16.0333 6.09329 15.7999 6.27995 15.5999C6.47995 15.3999 6.71995 15.2999 6.99995 15.2999C7.26662 15.2999 7.49329 15.3999 7.67995 15.5999C7.87995 15.7999 7.97995 16.0333 7.97995 16.2999C7.97995 16.5666 7.87995 16.7933 7.67995 16.9799C7.49329 17.1799 7.26662 17.2799 6.99995 17.2799ZM7.19995 22.8799C6.26662 22.8799 5.37329 22.7733 4.51995 22.5599C3.67995 22.3466 2.93328 22.0133 2.27995 21.5599C1.63995 21.1199 1.13328 20.5599 0.759951 19.8799C0.386618 19.1999 0.199951 18.3999 0.199951 17.4799C0.199951 16.7066 0.313285 15.9666 0.539951 15.2599C0.766618 14.5666 1.09328 13.9133 1.51995 13.2999C1.95995 12.6733 2.49328 12.0999 3.11995 11.5799C3.74662 11.0599 4.45995 10.5999 5.25995 10.1999C6.05995 9.7866 6.93329 9.43993 7.87995 9.15993L7.65995 9.41993C7.31328 9.31326 6.95995 9.19993 6.59995 9.07993C6.23995 8.9466 5.86662 8.8266 5.47995 8.71993C5.09329 8.59993 4.67995 8.5066 4.23995 8.43993C3.79995 8.37326 3.32662 8.33993 2.81995 8.33993C2.41995 8.33993 2.06662 8.37326 1.75995 8.43993C1.46662 8.5066 1.18662 8.57326 0.919951 8.63993L0.639951 7.15993C0.986618 7.01326 1.37328 6.89993 1.79995 6.81993C2.23995 6.7266 2.67995 6.67993 3.11995 6.67993C3.73328 6.67993 4.27995 6.73993 4.75995 6.85993C5.23995 6.9666 5.69328 7.09993 6.11995 7.25993C6.55995 7.41993 7.01995 7.5866 7.49995 7.75993C7.97995 7.91993 8.51328 8.05993 9.09995 8.17993C9.69995 8.2866 10.4066 8.3466 11.22 8.35993H11.4L11.44 9.99993C10.8 9.99993 10.12 10.0733 9.39995 10.2199C8.67995 10.3666 7.95995 10.5799 7.23995 10.8599C6.53329 11.1399 5.85328 11.4866 5.19995 11.8999C4.54662 12.3133 3.96662 12.7933 3.45995 13.3399C2.96662 13.8733 2.57328 14.4666 2.27995 15.1199C1.98662 15.7866 1.83995 16.5066 1.83995 17.2799C1.83995 17.9733 1.98662 18.5666 2.27995 19.0599C2.57328 19.5666 2.97328 19.9799 3.47995 20.2999C3.99995 20.6199 4.59329 20.8533 5.25995 20.9999C5.93995 21.1466 6.65329 21.2199 7.39995 21.2199C8.05329 21.2199 8.71995 21.1466 9.39995 20.9999C10.0933 20.8666 10.7666 20.6733 11.42 20.4199L11.98 21.7799C11.2066 22.1533 10.4133 22.4266 9.59995 22.5999C8.78662 22.7866 7.98662 22.8799 7.19995 22.8799Z" fill="#4B4C48"/>
</svg>
