<svg width="138" height="19" viewBox="0 0 138 19" fill="none" xmlns="http://www.w3.org/2000/svg">
<path d="M127.759 14.3801L127.959 12.7401C128.333 12.7401 128.646 12.6601 128.899 12.5001C129.153 12.3401 129.399 12.0735 129.639 11.7001C129.879 11.3268 130.139 10.8268 130.419 10.2001C130.806 9.34678 131.186 8.70012 131.559 8.26012C131.946 7.82012 132.326 7.52012 132.699 7.36012C133.086 7.20012 133.466 7.12012 133.839 7.12012C134.293 7.12012 134.713 7.24012 135.099 7.48012C135.486 7.70678 135.826 8.01345 136.119 8.40012C136.413 8.78678 136.639 9.21345 136.799 9.68012C136.973 10.1335 137.059 10.5868 137.059 11.0401C137.059 11.8401 136.919 12.4801 136.639 12.9601C136.359 13.4268 135.999 13.7668 135.559 13.9801C135.133 14.1801 134.686 14.2801 134.219 14.2801C133.806 14.2801 133.273 14.2001 132.619 14.0401C131.979 13.8801 131.166 13.4734 130.179 12.8201L130.959 11.5601C131.613 11.9735 132.199 12.2601 132.719 12.4201C133.253 12.5668 133.693 12.6401 134.039 12.6401C134.426 12.6401 134.733 12.5868 134.959 12.4801C135.186 12.3601 135.353 12.1935 135.459 11.9801C135.566 11.7668 135.619 11.5268 135.619 11.2601C135.619 10.8734 135.526 10.4868 135.339 10.1001C135.153 9.71345 134.913 9.39345 134.619 9.14012C134.339 8.88678 134.039 8.76012 133.719 8.76012C133.479 8.76012 133.246 8.82678 133.019 8.96012C132.793 9.09345 132.559 9.34012 132.319 9.70012C132.079 10.0601 131.806 10.5801 131.499 11.2601C131.179 11.9801 130.873 12.5535 130.579 12.9801C130.299 13.3935 130.013 13.7001 129.719 13.9001C129.426 14.1001 129.119 14.2268 128.799 14.2801C128.493 14.3468 128.146 14.3801 127.759 14.3801Z" fill="black"/>
<path d="M119.91 18.92L119.33 17.4C120.303 17.08 121.11 16.7133 121.75 16.3C122.403 15.8867 122.916 15.4467 123.29 14.98C123.676 14.5133 123.95 14.04 124.11 13.56C124.27 13.0667 124.35 12.5933 124.35 12.14C124.35 11.4867 124.203 10.8267 123.91 10.16C123.63 9.48 123.316 8.84 122.97 8.24L124.43 7.5C124.683 7.96667 124.903 8.42667 125.09 8.88C125.29 9.33333 125.463 9.76 125.61 10.16C125.77 10.56 125.896 10.9267 125.99 11.26C126.176 11.8333 126.416 12.2267 126.71 12.44C127.016 12.64 127.43 12.74 127.95 12.74C128.23 12.74 128.43 12.82 128.55 12.98C128.683 13.1267 128.75 13.3067 128.75 13.52C128.75 13.7333 128.656 13.9333 128.47 14.12C128.283 14.2933 128.043 14.38 127.75 14.38C127.163 14.38 126.683 14.28 126.31 14.08C125.95 13.8667 125.676 13.5933 125.49 13.26C125.303 12.9133 125.176 12.5533 125.11 12.18L125.75 12.54C125.75 13.42 125.55 14.22 125.15 14.94C124.763 15.6733 124.263 16.3067 123.65 16.84C123.036 17.3867 122.396 17.8333 121.73 18.18C121.063 18.5267 120.456 18.7733 119.91 18.92Z" fill="black"/>
<path d="M108.853 14.38L109.033 12.74C109.726 12.74 110.406 12.6867 111.073 12.58C111.74 12.4733 112.393 12.32 113.033 12.12C113.673 11.92 114.286 11.68 114.873 11.4C115.473 11.1067 116.04 10.7733 116.573 10.4C116.226 10.0933 115.826 9.82666 115.373 9.59999C114.92 9.37332 114.42 9.19999 113.873 9.07999C113.34 8.94666 112.773 8.87999 112.173 8.87999C111.96 8.87999 111.76 8.88666 111.573 8.89999C111.386 8.91332 111.2 8.93999 111.013 8.97999C110.826 9.00666 110.613 9.04666 110.373 9.09999L110.053 7.57999C110.413 7.47332 110.773 7.39332 111.133 7.33999C111.493 7.27332 111.84 7.23999 112.173 7.23999C112.866 7.23999 113.493 7.32666 114.053 7.49999C114.613 7.65999 115.12 7.85999 115.573 8.09999C116.04 8.33999 116.473 8.57999 116.873 8.81999C117.286 9.05999 117.686 9.26666 118.073 9.43999C118.46 9.59999 118.86 9.67999 119.273 9.67999H119.693L119.833 11.12C119.26 11.12 118.733 11.2 118.253 11.36C117.773 11.52 117.3 11.7267 116.833 11.98C116.38 12.22 115.9 12.48 115.393 12.76C114.886 13.0267 114.326 13.2867 113.713 13.54C113.1 13.78 112.393 13.98 111.593 14.14C110.806 14.3 109.893 14.38 108.853 14.38Z" fill="black"/>
<path d="M101.998 14.3801L102.198 12.7401C102.758 12.7401 103.198 12.6935 103.518 12.6001C103.838 12.4935 104.078 12.3001 104.238 12.0201C104.411 11.7268 104.558 11.3068 104.678 10.7601C104.798 10.2135 104.944 9.50012 105.118 8.62012L106.678 8.92012C106.624 9.16012 106.564 9.42679 106.498 9.72012C106.431 10.0135 106.371 10.3068 106.318 10.6001C106.278 10.8801 106.258 11.1268 106.258 11.3401C106.258 11.6068 106.318 11.8468 106.438 12.0601C106.558 12.2735 106.818 12.4401 107.218 12.5601C107.618 12.6801 108.231 12.7401 109.058 12.7401C109.338 12.7401 109.538 12.8201 109.658 12.9801C109.791 13.1268 109.858 13.3068 109.858 13.5201C109.858 13.7335 109.764 13.9335 109.578 14.1201C109.391 14.2935 109.151 14.3801 108.858 14.3801C107.991 14.3801 107.311 14.3068 106.818 14.1601C106.324 14.0001 105.964 13.7668 105.738 13.4601C105.511 13.1401 105.358 12.7535 105.278 12.3001L105.878 12.3401C105.664 12.7668 105.431 13.1135 105.178 13.3801C104.938 13.6468 104.671 13.8535 104.378 14.0001C104.084 14.1468 103.744 14.2468 103.358 14.3001C102.971 14.3535 102.518 14.3801 101.998 14.3801ZM105.398 18.1001C105.118 18.1001 104.878 18.0001 104.678 17.8001C104.491 17.6135 104.398 17.3868 104.398 17.1201C104.398 16.8535 104.491 16.6201 104.678 16.4201C104.878 16.2201 105.118 16.1201 105.398 16.1201C105.664 16.1201 105.891 16.2201 106.078 16.4201C106.278 16.6201 106.378 16.8535 106.378 17.1201C106.378 17.3868 106.278 17.6135 106.078 17.8001C105.891 18.0001 105.664 18.1001 105.398 18.1001Z" fill="black"/>
<path d="M101.997 14.38C100.931 14.38 100.111 14.26 99.5374 14.02C98.9774 13.78 98.5907 13.4067 98.3774 12.9C98.164 12.3933 98.044 11.74 98.0174 10.94L97.6174 0H99.2574L99.6574 10.3C99.684 10.9533 99.744 11.46 99.8374 11.82C99.944 12.1667 100.171 12.4067 100.517 12.54C100.877 12.6733 101.437 12.74 102.197 12.74C102.477 12.74 102.677 12.82 102.797 12.98C102.931 13.1267 102.997 13.3067 102.997 13.52C102.997 13.7333 102.904 13.9333 102.717 14.12C102.531 14.2933 102.291 14.38 101.997 14.38Z" fill="black"/>
<path d="M82.9175 18.88L82.3375 17.36C83.6842 16.9333 84.7175 16.42 85.4375 15.82C86.1709 15.2333 86.6709 14.62 86.9375 13.98C87.2175 13.34 87.3575 12.7267 87.3575 12.14C87.3575 11.7667 87.3175 11.4067 87.2375 11.06C87.1575 10.7133 87.0175 10.32 86.8175 9.88C86.6175 9.44 86.3375 8.89333 85.9775 8.24L87.4375 7.5C87.9442 8.36667 88.3042 9.18667 88.5175 9.96C88.7442 10.7333 88.8575 11.4133 88.8575 12C88.8575 12.84 88.7175 13.6 88.4375 14.28C88.1709 14.96 87.8109 15.56 87.3575 16.08C86.9175 16.6133 86.4309 17.0667 85.8975 17.44C85.3775 17.8133 84.8509 18.12 84.3175 18.36C83.7975 18.6 83.3309 18.7733 82.9175 18.88Z" fill="black"/>
<path d="M75.0522 18.8801L74.6922 17.2401C75.4922 17.1334 76.2255 16.9801 76.8922 16.7801C77.5722 16.5935 78.1522 16.3201 78.6322 15.9601C79.1255 15.6001 79.5055 15.1268 79.7722 14.5401C80.0389 13.9535 80.1722 13.2201 80.1722 12.3401C80.1722 11.9268 80.1322 11.5335 80.0522 11.1601C79.9722 10.7735 79.8522 10.4335 79.6922 10.1401C79.5322 9.84679 79.3389 9.61345 79.1122 9.44012C78.8989 9.26678 78.6522 9.18012 78.3722 9.18012C78.0655 9.18012 77.7855 9.30012 77.5322 9.54012C77.2922 9.76678 77.0989 10.0601 76.9522 10.4201C76.8189 10.7801 76.7522 11.1401 76.7522 11.5001C76.7522 11.7801 76.8055 12.0268 76.9122 12.2401C77.0322 12.4401 77.2255 12.5935 77.4922 12.7001C77.7589 12.8068 78.1055 12.8601 78.5322 12.8601C78.9189 12.8601 79.3055 12.8201 79.6922 12.7401C80.0922 12.6601 80.4322 12.5535 80.7122 12.4201L80.7922 13.8201C80.4722 14.0468 80.0922 14.2068 79.6522 14.3001C79.2255 14.3935 78.7922 14.4401 78.3522 14.4401C77.8455 14.4401 77.3922 14.3868 76.9922 14.2801C76.6055 14.1735 76.2722 14.0201 75.9922 13.8201C75.7255 13.6068 75.5189 13.3401 75.3722 13.0201C75.2389 12.7001 75.1722 12.3268 75.1722 11.9001C75.1722 11.3935 75.2522 10.8868 75.4122 10.3801C75.5722 9.86012 75.7989 9.38678 76.0922 8.96012C76.3855 8.53345 76.7389 8.19345 77.1522 7.94012C77.5655 7.67345 78.0255 7.54012 78.5322 7.54012C79.0655 7.54012 79.5322 7.68012 79.9322 7.96012C80.3322 8.22678 80.6655 8.59345 80.9322 9.06012C81.1989 9.52678 81.3989 10.0535 81.5322 10.6401C81.6655 11.2268 81.7322 11.8335 81.7322 12.4601C81.7322 13.7001 81.4789 14.7668 80.9722 15.6601C80.4789 16.5668 79.7322 17.2868 78.7322 17.8201C77.7455 18.3535 76.5189 18.7068 75.0522 18.8801ZM76.7322 5.34012L76.4922 4.26012C76.8389 4.18012 77.1189 4.11345 77.3322 4.06012C77.5455 4.00678 77.7855 3.94678 78.0522 3.88012L77.9522 4.30012C77.6055 4.19345 77.2722 3.96678 76.9522 3.62012C76.6455 3.27345 76.4922 2.88012 76.4922 2.44012C76.4922 2.04012 76.5855 1.70678 76.7722 1.44012C76.9722 1.16012 77.2255 0.95345 77.5322 0.820117C77.8522 0.686784 78.1922 0.620117 78.5522 0.620117C78.6989 0.620117 78.8522 0.633451 79.0122 0.660117C79.1855 0.686784 79.3455 0.726785 79.4922 0.780118L79.3322 1.78012C79.1989 1.75345 79.0722 1.72678 78.9522 1.70012C78.8322 1.67345 78.6989 1.66012 78.5522 1.66012C78.2455 1.66012 78.0055 1.72678 77.8322 1.86012C77.6589 1.98012 77.5722 2.15345 77.5722 2.38012C77.5722 2.66012 77.6589 2.90012 77.8322 3.10012C78.0189 3.30012 78.2255 3.46012 78.4522 3.58012C78.6922 3.68678 78.8855 3.74012 79.0322 3.74012L78.2122 3.82012C78.5722 3.72678 78.9055 3.63345 79.2122 3.54012C79.5322 3.43345 79.8189 3.33345 80.0722 3.24012L80.3922 4.26012C80.0722 4.38012 79.6922 4.50678 79.2522 4.64012C78.8255 4.77345 78.3922 4.90012 77.9522 5.02012C77.5122 5.14012 77.1055 5.24678 76.7322 5.34012Z" fill="black"/>
<path d="M59.2969 14.2999C59.2969 13.9799 59.3235 13.6399 59.3769 13.2799C59.4435 12.9066 59.5369 12.5132 59.6569 12.0999C59.7902 11.6732 59.9502 11.2266 60.1369 10.7599L61.5769 11.3199C61.4435 11.6932 61.3235 12.0466 61.2169 12.3799C61.1235 12.7132 61.0502 13.0266 60.9969 13.3199C60.9569 13.6132 60.9369 13.8932 60.9369 14.1599C60.9369 14.6799 61.0435 15.1332 61.2569 15.5199C61.4835 15.9066 61.7969 16.2266 62.1969 16.4799C62.5969 16.7466 63.0635 16.9466 63.5969 17.0799C64.1302 17.2132 64.7035 17.2799 65.3169 17.2799C66.2769 17.2799 67.1169 17.1732 67.8369 16.9599C68.5569 16.7599 69.1569 16.4999 69.6369 16.1799C70.1169 15.8599 70.4702 15.5266 70.6969 15.1799C70.9369 14.8332 71.0569 14.5266 71.0569 14.2599C71.0569 14.0732 70.9435 13.9066 70.7169 13.7599C70.4902 13.6132 70.1969 13.4732 69.8369 13.3399C69.4769 13.2066 69.0969 13.0666 68.6969 12.9199C68.2969 12.7599 67.9169 12.5732 67.5569 12.3599C67.1969 12.1466 66.9035 11.8932 66.6769 11.5999C66.4502 11.2932 66.3369 10.9332 66.3369 10.5199C66.3369 9.97324 66.4702 9.43324 66.7369 8.8999C67.0169 8.35324 67.3902 7.85324 67.8569 7.3999C68.3369 6.94657 68.8702 6.58657 69.4569 6.3199C70.0435 6.0399 70.6502 5.8999 71.2769 5.8999C71.8369 5.8999 72.3169 5.9799 72.7169 6.1399C73.1169 6.28657 73.4035 6.42657 73.5769 6.5599L72.9169 7.9799C72.6902 7.87324 72.4369 7.77324 72.1569 7.6799C71.8769 7.58657 71.5835 7.5399 71.2769 7.5399C70.8902 7.5399 70.4969 7.6199 70.0969 7.7799C69.7102 7.9399 69.3502 8.15324 69.0169 8.4199C68.6969 8.68657 68.4369 8.9799 68.2369 9.2999C68.0369 9.6199 67.9369 9.9399 67.9369 10.2599C67.9369 10.4866 68.0502 10.6932 68.2769 10.8799C68.5169 11.0666 68.8235 11.2399 69.1969 11.3999C69.5702 11.5599 69.9635 11.7266 70.3769 11.8999C70.8035 12.0599 71.2035 12.2399 71.5769 12.4399C71.9502 12.6266 72.2502 12.8466 72.4769 13.0999C72.7169 13.3532 72.8369 13.6532 72.8369 13.9999C72.8369 14.4932 72.6702 15.0266 72.3369 15.5999C72.0035 16.1732 71.5102 16.7066 70.8569 17.1999C70.2035 17.7066 69.4035 18.1199 68.4569 18.4399C67.5235 18.7599 66.4435 18.9199 65.2169 18.9199C64.3769 18.9199 63.5969 18.8266 62.8769 18.6399C62.1702 18.4532 61.5435 18.1666 60.9969 17.7799C60.4635 17.4066 60.0435 16.9266 59.7369 16.3399C59.4435 15.7666 59.2969 15.0866 59.2969 14.2999Z" fill="black"/>
<path d="M45.4371 18.88L44.8571 17.36C46.2037 16.9333 47.2371 16.42 47.9571 15.82C48.6904 15.2333 49.1904 14.62 49.4571 13.98C49.7371 13.34 49.8771 12.7267 49.8771 12.14C49.8771 11.7667 49.8371 11.4067 49.7571 11.06C49.6771 10.7133 49.5371 10.32 49.3371 9.88C49.1371 9.44 48.8571 8.89333 48.4971 8.24L49.9571 7.5C50.4637 8.36667 50.8237 9.18667 51.0371 9.96C51.2637 10.7333 51.3771 11.4133 51.3771 12C51.3771 12.84 51.2371 13.6 50.9571 14.28C50.6904 14.96 50.3304 15.56 49.8771 16.08C49.4371 16.6133 48.9504 17.0667 48.4171 17.44C47.8971 17.8133 47.3704 18.12 46.8371 18.36C46.3171 18.6 45.8504 18.7733 45.4371 18.88Z" fill="black"/>
<path d="M36.9706 14.6401C35.7973 14.6401 34.8107 14.5934 34.0107 14.5001C33.224 14.4201 32.584 14.2934 32.0906 14.1201C31.5973 13.9468 31.224 13.7268 30.9706 13.4601C30.7173 13.1934 30.544 12.8734 30.4506 12.5001L30.9107 12.3401C30.5773 12.9801 30.2173 13.4468 29.8307 13.7401C29.444 14.0201 29.0373 14.2001 28.6106 14.2801C28.1973 14.3468 27.7573 14.3801 27.2906 14.3801L27.4907 12.7401C27.9573 12.7401 28.3373 12.6734 28.6306 12.5401C28.9373 12.4068 29.184 12.1868 29.3706 11.8801C29.5706 11.5734 29.744 11.1668 29.8906 10.6601C30.0373 10.1534 30.1973 9.52677 30.3706 8.78011L31.8307 9.16011C31.7507 9.46678 31.6773 9.76011 31.6106 10.0401C31.544 10.3201 31.4906 10.5668 31.4506 10.7801C31.424 10.9801 31.4106 11.1401 31.4106 11.2601C31.4106 11.5801 31.484 11.8534 31.6306 12.0801C31.7773 12.2934 32.0573 12.4734 32.4706 12.6201C32.884 12.7534 33.4773 12.8534 34.2506 12.9201C35.0373 12.9734 36.064 13.0001 37.3307 13.0001C38.2107 13.0001 38.9973 12.9468 39.6907 12.8401C40.384 12.7334 40.964 12.5734 41.4306 12.3601C41.9106 12.1334 42.2773 11.8601 42.5307 11.5401C42.784 11.2201 42.9106 10.8534 42.9106 10.4401C42.9106 10.1468 42.8373 9.86011 42.6907 9.58011C42.544 9.28677 42.3173 9.04011 42.0107 8.84011C41.704 8.64011 41.2973 8.54011 40.7906 8.54011C40.1507 8.54011 39.5107 8.70677 38.8707 9.04011C38.244 9.37344 37.644 9.79344 37.0706 10.3001C36.5106 10.7934 36.0106 11.3001 35.5706 11.8201C35.1306 12.3401 34.7773 12.7934 34.5107 13.1801L32.7706 13.1201C33.1973 12.4268 33.704 11.7201 34.2906 11.0001C34.8906 10.2668 35.544 9.59344 36.2506 8.98011C36.9706 8.35344 37.724 7.85344 38.5107 7.48011C39.2973 7.09344 40.0973 6.90011 40.9107 6.90011C41.644 6.90011 42.2706 7.05344 42.7906 7.36011C43.324 7.65344 43.7307 8.05344 44.0107 8.56011C44.304 9.06677 44.4506 9.64011 44.4506 10.2801C44.4506 11.0668 44.2173 11.7934 43.7506 12.4601C43.2973 13.1134 42.524 13.6401 41.4306 14.0401C40.3373 14.4401 38.8506 14.6401 36.9706 14.6401ZM40.3307 4.84011C40.0507 4.84011 39.8106 4.74677 39.6106 4.56011C39.424 4.36011 39.3307 4.12677 39.3307 3.86011C39.3307 3.59344 39.424 3.36011 39.6106 3.16011C39.8106 2.96011 40.0507 2.86011 40.3307 2.86011C40.5973 2.86011 40.824 2.96011 41.0107 3.16011C41.2107 3.36011 41.3106 3.59344 41.3106 3.86011C41.3106 4.12677 41.2107 4.36011 41.0107 4.56011C40.824 4.74677 40.5973 4.84011 40.3307 4.84011Z" fill="black"/>
<path d="M19.017 18.88L18.657 17.24C19.457 17.1334 20.1904 16.98 20.857 16.78C21.537 16.5934 22.117 16.32 22.597 15.96C23.0904 15.6 23.4704 15.1267 23.737 14.54C24.0037 13.9534 24.137 13.22 24.137 12.34C24.137 11.4334 23.9704 10.68 23.637 10.08C23.3037 9.48004 22.8704 9.18004 22.337 9.18004C22.057 9.18004 21.797 9.2867 21.557 9.50004C21.317 9.71337 21.117 10 20.957 10.36C20.8104 10.72 20.737 11.1134 20.737 11.54C20.737 11.78 20.7904 11.98 20.897 12.14C21.0037 12.2867 21.157 12.4067 21.357 12.5C21.5704 12.58 21.837 12.64 22.157 12.68C22.477 12.72 22.8504 12.74 23.277 12.74H27.497C27.777 12.74 27.977 12.82 28.097 12.98C28.2304 13.1267 28.297 13.3067 28.297 13.52C28.297 13.7334 28.2037 13.9334 28.017 14.12C27.8304 14.2934 27.5904 14.38 27.297 14.38H22.517C21.917 14.38 21.357 14.2934 20.837 14.12C20.3304 13.9467 19.917 13.68 19.597 13.32C19.2904 12.9467 19.137 12.46 19.137 11.86C19.137 11.3 19.2237 10.7667 19.397 10.26C19.5704 9.74004 19.8037 9.28004 20.097 8.88004C20.4037 8.4667 20.757 8.14004 21.157 7.90004C21.5704 7.66004 22.017 7.54004 22.497 7.54004C23.1104 7.54004 23.657 7.72004 24.137 8.08004C24.617 8.44004 24.997 8.98671 25.277 9.72004C25.557 10.44 25.697 11.3534 25.697 12.46C25.697 13.7 25.4437 14.7667 24.937 15.66C24.4437 16.5667 23.697 17.2867 22.697 17.82C21.7104 18.3534 20.4837 18.7067 19.017 18.88Z" fill="black"/>
<path d="M14.9314 14.28L14.5314 0H16.1514L16.5514 14.28H14.9314Z" fill="black"/>
<path d="M0 14.3001C0 13.9801 0.0266667 13.6401 0.08 13.2801C0.146667 12.9068 0.24 12.5134 0.36 12.1001C0.493333 11.6734 0.653333 11.2268 0.84 10.7601L2.28 11.3201C2.14667 11.6934 2.02667 12.0468 1.92 12.3801C1.82667 12.7134 1.75333 13.0268 1.7 13.3201C1.66 13.6134 1.64 13.8934 1.64 14.1601C1.64 14.8534 1.82 15.4268 2.18 15.8801C2.54 16.3334 3.03333 16.6734 3.66 16.9001C4.28667 17.1268 4.99333 17.2401 5.78 17.2401C6.67333 17.2401 7.42 17.1201 8.02 16.8801C8.63333 16.6401 9.12 16.3201 9.48 15.9201C9.84 15.5334 10.0933 15.1001 10.24 14.6201C10.4 14.1401 10.48 13.6668 10.48 13.2001C10.48 12.6934 10.38 12.0801 10.18 11.3601C9.99333 10.6401 9.64 9.74675 9.12 8.68009L10.62 7.92009C10.8867 8.42675 11.1267 8.96009 11.34 9.52009C11.5667 10.0668 11.7467 10.6334 11.88 11.2201C12.0267 11.7934 12.1 12.3801 12.1 12.9801C12.1 13.5001 12.0333 14.0334 11.9 14.5801C11.78 15.1268 11.5733 15.6534 11.28 16.1601C10.9867 16.6801 10.5933 17.1401 10.1 17.5401C9.62 17.9534 9.02 18.2801 8.3 18.5201C7.59333 18.7601 6.74667 18.8801 5.76 18.8801C4.98667 18.8801 4.24667 18.7868 3.54 18.6001C2.84667 18.4268 2.23333 18.1534 1.7 17.7801C1.18 17.4068 0.766667 16.9334 0.46 16.3601C0.153333 15.7868 0 15.1001 0 14.3001ZM6.04 6.32009C5.76 6.32009 5.52 6.22675 5.32 6.04009C5.13333 5.84009 5.04 5.60675 5.04 5.34009C5.04 5.07342 5.13333 4.84009 5.32 4.64009C5.52 4.44009 5.76 4.34009 6.04 4.34009C6.30667 4.34009 6.53333 4.44009 6.72 4.64009C6.92 4.84009 7.02 5.07342 7.02 5.34009C7.02 5.60675 6.92 5.84009 6.72 6.04009C6.53333 6.22675 6.30667 6.32009 6.04 6.32009Z" fill="black"/>
</svg>
