<svg width="138" height="20" viewBox="0 0 138 20" fill="none" xmlns="http://www.w3.org/2000/svg">
<path d="M128.359 15.0998L128.559 13.4598C128.933 13.4598 129.246 13.3798 129.499 13.2198C129.753 13.0598 129.999 12.7932 130.239 12.4198C130.479 12.0465 130.739 11.5465 131.019 10.9198C131.406 10.0665 131.786 9.41984 132.159 8.97984C132.546 8.53984 132.926 8.23984 133.299 8.07984C133.686 7.91984 134.066 7.83984 134.439 7.83984C134.893 7.83984 135.313 7.95984 135.699 8.19984C136.086 8.42651 136.426 8.73318 136.719 9.11984C137.013 9.50651 137.239 9.93318 137.399 10.3998C137.573 10.8532 137.659 11.3065 137.659 11.7598C137.659 12.5598 137.519 13.1998 137.239 13.6798C136.959 14.1465 136.599 14.4865 136.159 14.6998C135.733 14.8998 135.286 14.9998 134.819 14.9998C134.406 14.9998 133.873 14.9198 133.219 14.7598C132.579 14.5998 131.766 14.1932 130.779 13.5398L131.559 12.2798C132.213 12.6932 132.799 12.9798 133.319 13.1398C133.853 13.2865 134.293 13.3598 134.639 13.3598C135.026 13.3598 135.333 13.3065 135.559 13.1998C135.786 13.0798 135.953 12.9132 136.059 12.6998C136.166 12.4865 136.219 12.2465 136.219 11.9798C136.219 11.5932 136.126 11.2065 135.939 10.8198C135.753 10.4332 135.513 10.1132 135.219 9.85984C134.939 9.60651 134.639 9.47984 134.319 9.47984C134.079 9.47984 133.846 9.54651 133.619 9.67984C133.393 9.81318 133.159 10.0598 132.919 10.4198C132.679 10.7798 132.406 11.2998 132.099 11.9798C131.779 12.6998 131.473 13.2732 131.179 13.6998C130.899 14.1132 130.613 14.4198 130.319 14.6198C130.026 14.8198 129.719 14.9465 129.399 14.9998C129.093 15.0665 128.746 15.0998 128.359 15.0998Z" fill="black"/>
<path d="M120.51 19.6397L119.93 18.1197C120.903 17.7997 121.71 17.4331 122.35 17.0197C123.003 16.6064 123.516 16.1664 123.89 15.6997C124.276 15.2331 124.55 14.7597 124.71 14.2797C124.87 13.7864 124.95 13.3131 124.95 12.8597C124.95 12.2064 124.803 11.5464 124.51 10.8797C124.23 10.1997 123.916 9.55973 123.57 8.95973L125.03 8.21973C125.283 8.68639 125.503 9.14639 125.69 9.59973C125.89 10.0531 126.063 10.4797 126.21 10.8797C126.37 11.2797 126.496 11.6464 126.59 11.9797C126.776 12.5531 127.016 12.9464 127.31 13.1597C127.616 13.3597 128.03 13.4597 128.55 13.4597C128.83 13.4597 129.03 13.5397 129.15 13.6997C129.283 13.8464 129.35 14.0264 129.35 14.2397C129.35 14.4531 129.256 14.6531 129.07 14.8397C128.883 15.0131 128.643 15.0997 128.35 15.0997C127.763 15.0997 127.283 14.9997 126.91 14.7997C126.55 14.5864 126.276 14.3131 126.09 13.9797C125.903 13.6331 125.776 13.2731 125.71 12.8997L126.35 13.2597C126.35 14.1397 126.15 14.9397 125.75 15.6597C125.363 16.3931 124.863 17.0264 124.25 17.5597C123.636 18.1064 122.996 18.5531 122.33 18.8997C121.663 19.2464 121.056 19.4931 120.51 19.6397Z" fill="black"/>
<path d="M109.453 15.1L109.633 13.46C110.326 13.46 111.006 13.4066 111.673 13.3C112.34 13.1933 112.993 13.04 113.633 12.84C114.273 12.64 114.886 12.4 115.473 12.12C116.073 11.8266 116.64 11.4933 117.173 11.12C116.826 10.8133 116.426 10.5466 115.973 10.32C115.52 10.0933 115.02 9.91996 114.473 9.79996C113.94 9.66663 113.373 9.59996 112.773 9.59996C112.56 9.59996 112.36 9.60663 112.173 9.61996C111.986 9.6333 111.8 9.65996 111.613 9.69996C111.426 9.72663 111.213 9.76663 110.973 9.81996L110.653 8.29996C111.013 8.1933 111.373 8.11329 111.733 8.05996C112.093 7.99329 112.44 7.95996 112.773 7.95996C113.466 7.95996 114.093 8.04663 114.653 8.21996C115.213 8.37996 115.72 8.57996 116.173 8.81996C116.64 9.05996 117.073 9.29996 117.473 9.53996C117.886 9.77996 118.286 9.98663 118.673 10.16C119.06 10.32 119.46 10.4 119.873 10.4H120.293L120.433 11.84C119.86 11.84 119.333 11.92 118.853 12.08C118.373 12.24 117.9 12.4466 117.433 12.7C116.98 12.94 116.5 13.2 115.993 13.48C115.486 13.7466 114.926 14.0066 114.313 14.26C113.7 14.5 112.993 14.7 112.193 14.86C111.406 15.02 110.493 15.1 109.453 15.1Z" fill="black"/>
<path d="M102.598 15.0998L102.798 13.4598C103.358 13.4598 103.798 13.4132 104.118 13.3198C104.438 13.2132 104.678 13.0198 104.838 12.7398C105.011 12.4465 105.158 12.0265 105.278 11.4798C105.398 10.9332 105.544 10.2198 105.718 9.33984L107.278 9.63984C107.224 9.87984 107.164 10.1465 107.098 10.4398C107.031 10.7332 106.971 11.0265 106.918 11.3198C106.878 11.5998 106.858 11.8465 106.858 12.0598C106.858 12.3265 106.918 12.5665 107.038 12.7798C107.158 12.9932 107.418 13.1598 107.818 13.2798C108.218 13.3998 108.831 13.4598 109.658 13.4598C109.938 13.4598 110.138 13.5398 110.258 13.6998C110.391 13.8465 110.458 14.0265 110.458 14.2398C110.458 14.4532 110.364 14.6532 110.178 14.8398C109.991 15.0132 109.751 15.0998 109.458 15.0998C108.591 15.0998 107.911 15.0265 107.418 14.8798C106.924 14.7198 106.564 14.4865 106.338 14.1798C106.111 13.8598 105.958 13.4732 105.878 13.0198L106.478 13.0598C106.264 13.4865 106.031 13.8332 105.778 14.0998C105.538 14.3665 105.271 14.5732 104.978 14.7198C104.684 14.8665 104.344 14.9665 103.958 15.0198C103.571 15.0732 103.118 15.0998 102.598 15.0998ZM105.998 18.8198C105.718 18.8198 105.478 18.7198 105.278 18.5198C105.091 18.3332 104.998 18.1065 104.998 17.8398C104.998 17.5732 105.091 17.3398 105.278 17.1398C105.478 16.9398 105.718 16.8398 105.998 16.8398C106.264 16.8398 106.491 16.9398 106.678 17.1398C106.878 17.3398 106.978 17.5732 106.978 17.8398C106.978 18.1065 106.878 18.3332 106.678 18.5198C106.491 18.7198 106.264 18.8198 105.998 18.8198Z" fill="black"/>
<path d="M102.597 15.0997C101.531 15.0997 100.711 14.9797 100.137 14.7397C99.5773 14.4997 99.1907 14.1264 98.9773 13.6197C98.764 13.1131 98.644 12.4597 98.6173 11.6597L98.2173 0.719727H99.8573L100.257 11.0197C100.284 11.6731 100.344 12.1797 100.437 12.5397C100.544 12.8864 100.771 13.1264 101.117 13.2597C101.477 13.3931 102.037 13.4597 102.797 13.4597C103.077 13.4597 103.277 13.5397 103.397 13.6997C103.531 13.8464 103.597 14.0264 103.597 14.2397C103.597 14.4531 103.504 14.6531 103.317 14.8397C103.131 15.0131 102.891 15.0997 102.597 15.0997Z" fill="black"/>
<path d="M83.5175 19.5997L82.9375 18.0797C84.2842 17.6531 85.3175 17.1397 86.0375 16.5397C86.7708 15.9531 87.2708 15.3397 87.5375 14.6997C87.8175 14.0597 87.9575 13.4464 87.9575 12.8597C87.9575 12.4864 87.9175 12.1264 87.8375 11.7797C87.7575 11.4331 87.6175 11.0397 87.4175 10.5997C87.2175 10.1597 86.9375 9.61306 86.5775 8.95973L88.0375 8.21973C88.5442 9.08639 88.9042 9.90639 89.1175 10.6797C89.3442 11.4531 89.4575 12.1331 89.4575 12.7197C89.4575 13.5597 89.3175 14.3197 89.0375 14.9997C88.7708 15.6797 88.4108 16.2797 87.9575 16.7997C87.5175 17.3331 87.0308 17.7864 86.4975 18.1597C85.9775 18.5331 85.4508 18.8397 84.9175 19.0797C84.3975 19.3197 83.9308 19.4931 83.5175 19.5997Z" fill="black"/>
<path d="M75.6522 19.5998L75.2922 17.9598C76.0922 17.8532 76.8255 17.6998 77.4922 17.4998C78.1722 17.3132 78.7522 17.0398 79.2322 16.6798C79.7255 16.3198 80.1055 15.8465 80.3722 15.2598C80.6388 14.6732 80.7722 13.9398 80.7722 13.0598C80.7722 12.6465 80.7322 12.2532 80.6522 11.8798C80.5722 11.4932 80.4522 11.1532 80.2922 10.8598C80.1322 10.5665 79.9388 10.3332 79.7122 10.1598C79.4988 9.98651 79.2522 9.89984 78.9722 9.89984C78.6655 9.89984 78.3855 10.0198 78.1322 10.2598C77.8922 10.4865 77.6988 10.7798 77.5522 11.1398C77.4188 11.4998 77.3522 11.8598 77.3522 12.2198C77.3522 12.4998 77.4055 12.7465 77.5122 12.9598C77.6322 13.1598 77.8255 13.3132 78.0922 13.4198C78.3588 13.5265 78.7055 13.5798 79.1322 13.5798C79.5188 13.5798 79.9055 13.5398 80.2922 13.4598C80.6922 13.3798 81.0322 13.2732 81.3122 13.1398L81.3922 14.5398C81.0722 14.7665 80.6922 14.9265 80.2522 15.0198C79.8255 15.1132 79.3922 15.1598 78.9522 15.1598C78.4455 15.1598 77.9922 15.1065 77.5922 14.9998C77.2055 14.8932 76.8722 14.7398 76.5922 14.5398C76.3255 14.3265 76.1188 14.0598 75.9722 13.7398C75.8388 13.4198 75.7722 13.0465 75.7722 12.6198C75.7722 12.1132 75.8522 11.6065 76.0122 11.0998C76.1722 10.5798 76.3988 10.1065 76.6922 9.67984C76.9855 9.25318 77.3388 8.91318 77.7522 8.65984C78.1655 8.39318 78.6255 8.25984 79.1322 8.25984C79.6655 8.25984 80.1322 8.39984 80.5322 8.67984C80.9322 8.94651 81.2655 9.31318 81.5322 9.77984C81.7988 10.2465 81.9988 10.7732 82.1322 11.3598C82.2655 11.9465 82.3322 12.5532 82.3322 13.1798C82.3322 14.4198 82.0788 15.4865 81.5722 16.3798C81.0788 17.2865 80.3322 18.0065 79.3322 18.5398C78.3455 19.0732 77.1188 19.4265 75.6522 19.5998ZM77.3322 6.05984L77.0922 4.97984C77.4388 4.89984 77.7188 4.83318 77.9322 4.77984C78.1455 4.72651 78.3855 4.66651 78.6522 4.59984L78.5522 5.01984C78.2055 4.91318 77.8722 4.68651 77.5522 4.33984C77.2455 3.99318 77.0922 3.59984 77.0922 3.15984C77.0922 2.75984 77.1855 2.42651 77.3722 2.15984C77.5722 1.87984 77.8255 1.67318 78.1322 1.53984C78.4522 1.40651 78.7922 1.33984 79.1522 1.33984C79.2988 1.33984 79.4522 1.35318 79.6122 1.37984C79.7855 1.40651 79.9455 1.44651 80.0922 1.49984L79.9322 2.49984C79.7988 2.47318 79.6722 2.44651 79.5522 2.41984C79.4322 2.39318 79.2988 2.37984 79.1522 2.37984C78.8455 2.37984 78.6055 2.44651 78.4322 2.57984C78.2588 2.69984 78.1722 2.87318 78.1722 3.09984C78.1722 3.37984 78.2588 3.61984 78.4322 3.81984C78.6188 4.01984 78.8255 4.17984 79.0522 4.29984C79.2922 4.40651 79.4855 4.45984 79.6322 4.45984L78.8122 4.53984C79.1722 4.44651 79.5055 4.35318 79.8122 4.25984C80.1322 4.15318 80.4188 4.05318 80.6722 3.95984L80.9922 4.97984C80.6722 5.09984 80.2922 5.22651 79.8522 5.35984C79.4255 5.49318 78.9922 5.61984 78.5522 5.73984C78.1122 5.85984 77.7055 5.96651 77.3322 6.05984Z" fill="black"/>
<path d="M59.8969 15.0201C59.8969 14.7001 59.9235 14.3601 59.9769 14.0001C60.0435 13.6268 60.1369 13.2335 60.2569 12.8201C60.3902 12.3935 60.5502 11.9468 60.7369 11.4801L62.1769 12.0401C62.0435 12.4135 61.9235 12.7668 61.8169 13.1001C61.7235 13.4335 61.6502 13.7468 61.5969 14.0401C61.5569 14.3335 61.5369 14.6135 61.5369 14.8801C61.5369 15.4001 61.6435 15.8535 61.8569 16.2401C62.0835 16.6268 62.3969 16.9468 62.7969 17.2001C63.1969 17.4668 63.6635 17.6668 64.1969 17.8001C64.7302 17.9335 65.3035 18.0001 65.9169 18.0001C66.8769 18.0001 67.7169 17.8935 68.4369 17.6801C69.1569 17.4801 69.7569 17.2201 70.2369 16.9001C70.7169 16.5801 71.0702 16.2468 71.2969 15.9001C71.5369 15.5535 71.6569 15.2468 71.6569 14.9801C71.6569 14.7935 71.5435 14.6268 71.3168 14.4801C71.0902 14.3335 70.7969 14.1935 70.4369 14.0601C70.0769 13.9268 69.6969 13.7868 69.2969 13.6401C68.8969 13.4801 68.5169 13.2935 68.1569 13.0801C67.7969 12.8668 67.5035 12.6135 67.2769 12.3201C67.0502 12.0135 66.9369 11.6535 66.9369 11.2401C66.9369 10.6935 67.0702 10.1535 67.3369 9.62012C67.6169 9.07345 67.9902 8.57345 68.4569 8.12012C68.9369 7.66678 69.4702 7.30678 70.0569 7.04012C70.6435 6.76012 71.2502 6.62012 71.8769 6.62012C72.4369 6.62012 72.9169 6.70012 73.3169 6.86012C73.7169 7.00678 74.0035 7.14678 74.1768 7.28012L73.5169 8.70012C73.2902 8.59345 73.0369 8.49345 72.7569 8.40012C72.4769 8.30678 72.1835 8.26012 71.8769 8.26012C71.4902 8.26012 71.0969 8.34012 70.6969 8.50012C70.3102 8.66012 69.9502 8.87345 69.6169 9.14012C69.2969 9.40678 69.0369 9.70012 68.8369 10.0201C68.6369 10.3401 68.5368 10.6601 68.5368 10.9801C68.5368 11.2068 68.6502 11.4135 68.8769 11.6001C69.1169 11.7868 69.4235 11.9601 69.7969 12.1201C70.1702 12.2801 70.5635 12.4468 70.9769 12.6201C71.4035 12.7801 71.8035 12.9601 72.1769 13.1601C72.5502 13.3468 72.8502 13.5668 73.0769 13.8201C73.3169 14.0735 73.4369 14.3735 73.4369 14.7201C73.4369 15.2135 73.2702 15.7468 72.9369 16.3201C72.6035 16.8935 72.1102 17.4268 71.4569 17.9201C70.8035 18.4268 70.0035 18.8401 69.0569 19.1601C68.1235 19.4801 67.0435 19.6401 65.8168 19.6401C64.9768 19.6401 64.1969 19.5468 63.4769 19.3601C62.7702 19.1735 62.1435 18.8868 61.5969 18.5001C61.0635 18.1268 60.6435 17.6468 60.3369 17.0601C60.0435 16.4868 59.8969 15.8068 59.8969 15.0201Z" fill="black"/>
<path d="M46.037 19.5997L45.457 18.0797C46.8037 17.6531 47.837 17.1397 48.557 16.5397C49.2904 15.9531 49.7904 15.3397 50.057 14.6997C50.337 14.0597 50.477 13.4464 50.477 12.8597C50.477 12.4864 50.437 12.1264 50.357 11.7797C50.277 11.4331 50.137 11.0397 49.937 10.5997C49.737 10.1597 49.457 9.61306 49.097 8.95973L50.557 8.21973C51.0637 9.08639 51.4237 9.90639 51.637 10.6797C51.8637 11.4531 51.977 12.1331 51.977 12.7197C51.977 13.5597 51.837 14.3197 51.557 14.9997C51.2904 15.6797 50.9304 16.2797 50.477 16.7997C50.037 17.3331 49.5504 17.7864 49.017 18.1597C48.497 18.5331 47.9704 18.8397 47.437 19.0797C46.917 19.3197 46.4504 19.4931 46.037 19.5997Z" fill="black"/>
<path d="M37.5706 15.3601C36.3973 15.3601 35.4106 15.3134 34.6106 15.2201C33.824 15.1401 33.184 15.0134 32.6906 14.8401C32.1973 14.6667 31.824 14.4467 31.5706 14.1801C31.3173 13.9134 31.144 13.5934 31.0506 13.2201L31.5106 13.0601C31.1773 13.7001 30.8173 14.1667 30.4306 14.4601C30.044 14.7401 29.6373 14.9201 29.2106 15.0001C28.7973 15.0667 28.3573 15.1001 27.8906 15.1001L28.0906 13.4601C28.5573 13.4601 28.9373 13.3934 29.2306 13.2601C29.5373 13.1267 29.784 12.9067 29.9706 12.6001C30.1706 12.2934 30.344 11.8867 30.4906 11.3801C30.6373 10.8734 30.7973 10.2467 30.9706 9.50008L32.4306 9.88008C32.3506 10.1867 32.2773 10.4801 32.2106 10.7601C32.144 11.0401 32.0906 11.2867 32.0506 11.5001C32.024 11.7001 32.0106 11.8601 32.0106 11.9801C32.0106 12.3001 32.084 12.5734 32.2306 12.8001C32.3773 13.0134 32.6573 13.1934 33.0706 13.3401C33.484 13.4734 34.0773 13.5734 34.8506 13.6401C35.6373 13.6934 36.664 13.7201 37.9306 13.7201C38.8106 13.7201 39.5973 13.6667 40.2906 13.5601C40.984 13.4534 41.564 13.2934 42.0306 13.0801C42.5106 12.8534 42.8773 12.5801 43.1306 12.2601C43.384 11.9401 43.5106 11.5734 43.5106 11.1601C43.5106 10.8667 43.4373 10.5801 43.2906 10.3001C43.144 10.0067 42.9173 9.76008 42.6106 9.56008C42.304 9.36008 41.8973 9.26008 41.3906 9.26008C40.7506 9.26008 40.1106 9.42675 39.4706 9.76008C38.844 10.0934 38.244 10.5134 37.6706 11.0201C37.1106 11.5134 36.6106 12.0201 36.1706 12.5401C35.7306 13.0601 35.3773 13.5134 35.1106 13.9001L33.3706 13.8401C33.7973 13.1467 34.304 12.4401 34.8906 11.7201C35.4906 10.9867 36.144 10.3134 36.8506 9.70008C37.5706 9.07341 38.324 8.57341 39.1106 8.20008C39.8973 7.81341 40.6973 7.62008 41.5106 7.62008C42.244 7.62008 42.8706 7.77341 43.3906 8.08008C43.924 8.37341 44.3306 8.77341 44.6106 9.28008C44.904 9.78675 45.0506 10.3601 45.0506 11.0001C45.0506 11.7867 44.8173 12.5134 44.3506 13.1801C43.8973 13.8334 43.124 14.3601 42.0306 14.7601C40.9373 15.1601 39.4506 15.3601 37.5706 15.3601ZM40.9306 5.56008C40.6506 5.56008 40.4106 5.46675 40.2106 5.28008C40.024 5.08008 39.9306 4.84675 39.9306 4.58008C39.9306 4.31341 40.024 4.08008 40.2106 3.88008C40.4106 3.68008 40.6506 3.58008 40.9306 3.58008C41.1973 3.58008 41.424 3.68008 41.6106 3.88008C41.8106 4.08008 41.9106 4.31341 41.9106 4.58008C41.9106 4.84675 41.8106 5.08008 41.6106 5.28008C41.424 5.46675 41.1973 5.56008 40.9306 5.56008Z" fill="black"/>
<path d="M19.617 19.5998L19.257 17.9598C20.057 17.8531 20.7904 17.6998 21.457 17.4998C22.137 17.3131 22.717 17.0398 23.197 16.6798C23.6904 16.3198 24.0704 15.8464 24.337 15.2598C24.6037 14.6731 24.737 13.9398 24.737 13.0598C24.737 12.1531 24.5704 11.3998 24.237 10.7998C23.9037 10.1998 23.4704 9.89977 22.937 9.89977C22.657 9.89977 22.397 10.0064 22.157 10.2198C21.917 10.4331 21.717 10.7198 21.557 11.0798C21.4104 11.4398 21.337 11.8331 21.337 12.2598C21.337 12.4998 21.3904 12.6998 21.497 12.8598C21.6037 13.0064 21.757 13.1264 21.957 13.2198C22.1704 13.2998 22.437 13.3598 22.757 13.3998C23.077 13.4398 23.4504 13.4598 23.877 13.4598H28.097C28.377 13.4598 28.577 13.5398 28.697 13.6998C28.8304 13.8464 28.897 14.0264 28.897 14.2398C28.897 14.4531 28.8037 14.6531 28.617 14.8398C28.4304 15.0131 28.1904 15.0998 27.897 15.0998H23.117C22.517 15.0998 21.957 15.0131 21.437 14.8398C20.9304 14.6664 20.517 14.3998 20.197 14.0398C19.8904 13.6664 19.737 13.1798 19.737 12.5798C19.737 12.0198 19.8237 11.4864 19.997 10.9798C20.1704 10.4598 20.4037 9.99976 20.697 9.59976C21.0037 9.18643 21.357 8.85976 21.757 8.61977C22.1704 8.37977 22.617 8.25977 23.097 8.25977C23.7104 8.25977 24.257 8.43977 24.737 8.79977C25.217 9.15977 25.597 9.70643 25.877 10.4398C26.157 11.1598 26.297 12.0731 26.297 13.1798C26.297 14.4198 26.0437 15.4864 25.537 16.3798C25.0437 17.2864 24.297 18.0064 23.297 18.5398C22.3104 19.0731 21.0837 19.4264 19.617 19.5998Z" fill="black"/>
<path d="M15.5314 14.9997L15.1314 0.719727H16.7514L17.1514 14.9997H15.5314Z" fill="black"/>
<path d="M0.599976 15.0196C0.599976 14.6996 0.626642 14.3596 0.679976 13.9996C0.746642 13.6262 0.839976 13.2329 0.959976 12.8196C1.09331 12.3929 1.25331 11.9462 1.43998 11.4796L2.87998 12.0396C2.74664 12.4129 2.62664 12.7662 2.51998 13.0996C2.42664 13.4329 2.35331 13.7462 2.29998 14.0396C2.25998 14.3329 2.23998 14.6129 2.23998 14.8796C2.23998 15.5729 2.41998 16.1462 2.77998 16.5996C3.13998 17.0529 3.63331 17.3929 4.25998 17.6196C4.88664 17.8462 5.59331 17.9596 6.37998 17.9596C7.27331 17.9596 8.01998 17.8396 8.61998 17.5996C9.23331 17.3596 9.71998 17.0396 10.08 16.6396C10.44 16.2529 10.6933 15.8196 10.84 15.3396C11 14.8596 11.08 14.3862 11.08 13.9196C11.08 13.4129 10.98 12.7996 10.78 12.0796C10.5933 11.3596 10.24 10.4662 9.71998 9.39957L11.22 8.63957C11.4866 9.14624 11.7266 9.67957 11.94 10.2396C12.1666 10.7862 12.3466 11.3529 12.48 11.9396C12.6266 12.5129 12.7 13.0996 12.7 13.6996C12.7 14.2196 12.6333 14.7529 12.5 15.2996C12.38 15.8462 12.1733 16.3729 11.88 16.8796C11.5866 17.3996 11.1933 17.8596 10.7 18.2596C10.22 18.6729 9.61998 18.9996 8.89998 19.2396C8.19331 19.4796 7.34664 19.5996 6.35998 19.5996C5.58664 19.5996 4.84664 19.5062 4.13998 19.3196C3.44664 19.1462 2.83331 18.8729 2.29998 18.4996C1.77998 18.1262 1.36664 17.6529 1.05998 17.0796C0.753309 16.5062 0.599976 15.8196 0.599976 15.0196ZM6.63998 7.03957C6.35998 7.03957 6.11998 6.94624 5.91998 6.75957C5.73331 6.55957 5.63998 6.32624 5.63998 6.05957C5.63998 5.7929 5.73331 5.55957 5.91998 5.35957C6.11998 5.15957 6.35998 5.05957 6.63998 5.05957C6.90664 5.05957 7.13331 5.15957 7.31998 5.35957C7.51998 5.55957 7.61998 5.7929 7.61998 6.05957C7.61998 6.32624 7.51998 6.55957 7.31998 6.75957C7.13331 6.94624 6.90664 7.03957 6.63998 7.03957Z" fill="black"/>
</svg>
