<svg width="310" height="123" viewBox="0 0 310 123" fill="none" xmlns="http://www.w3.org/2000/svg">
<path d="M0.213937 105.936C0.119515 105.294 0.0555885 104.642 0.0236752 103.982L1.02251 103.933C1.00756 103.624 1 103.313 1 103V102.012H0V100.036H1V98.0595H0V96.0833H1V94.1071H0V92.1309H1V90.1547H0V88.1785H1V86.2024H0V84.2262H1V82.25H0V80.2738H1V78.2976H0V76.3214H1V74.3452H0V72.369H1V70.3928H0V68.4167H1V66.4405H0V64.4643H1V62.4881H0V60.5119H1V58.5357H0V56.5595H1V54.5833H0V52.6071H1V50.631H0V48.6548H1V46.6786H0V44.7024H1V42.7262H0V40.75H1V38.7738H0V36.7976H1V34.8214H0V32.8452H1V30.8691H0V28.8929H1V26.9167H0V24.9405H1V22.9643H0V20.9881H1V20C1 19.6869 1.00756 19.3757 1.02251 19.0665L0.0236752 19.0182C0.0555885 18.358 0.119515 17.7062 0.213937 17.0643L1.20329 17.2098C1.29449 16.5899 1.41561 15.9797 1.56514 15.3809L0.59493 15.1387C0.754474 14.4998 0.944744 13.873 1.16408 13.2601L2.10561 13.597C2.31598 13.0092 2.55453 12.4347 2.81964 11.8751L1.91594 11.447C2.19709 10.8536 2.50659 10.2762 2.84269 9.71663L3.69994 10.2315C4.02078 9.69739 4.36716 9.18025 4.73742 8.68182L3.93467 8.0855C4.32541 7.55949 4.74138 7.05333 5.18078 6.56882L5.92154 7.24059C6.33948 6.77974 6.77973 6.33948 7.24059 5.92154L6.56881 5.18079C7.05333 4.74139 7.55949 4.32542 8.0855 3.93467L8.68182 4.73742C9.18025 4.36716 9.69738 4.02078 10.2315 3.69994L9.71663 2.84269C10.2762 2.50659 10.8535 2.19709 11.447 1.91594L11.8751 2.81964C12.4347 2.55453 13.0092 2.31598 13.597 2.10561L13.2601 1.16408C13.873 0.944745 14.4998 0.754474 15.1387 0.594931L15.3809 1.56514C15.9797 1.41561 16.5898 1.29449 17.2098 1.20329L17.0643 0.213937C17.7062 0.119515 18.358 0.0555885 19.0182 0.0236752L19.0665 1.02251C19.3757 1.00756 19.6869 1 20 1H20.993V0H22.9783V1H24.9636V0H26.9489V1H28.9342V0H30.9195V1H32.9048V0H34.89V1H36.8753V0H38.8606V1H40.8459V0H42.8312V1H44.8165V0H46.8018V1H48.7871V0H50.7724V1H52.7577V0H54.743V1H56.7282V0H58.7135V1H60.6988V0H62.6841V1H64.6694V0H66.6547V1H68.64V0H70.6253V1H72.6106V0H74.5958V1H76.5811V0H78.5664V1H80.5517V0H82.537V1H84.5223V0H86.5076V1H88.4929V0H90.4782V1H92.4635V0H94.4488V1H96.4341V0H98.4193V1H100.405V0H102.39V1H104.375V0H106.361V1H108.346V0H110.331V1H112.316V0H114.302V1H116.287V0H118.272V1H120.258V0H122.243V1H124.228V0H126.213V1H128.199V0H130.184V1H132.169V0H134.155V1H136.14V0H138.125V1H140.11V0H142.096V1H144.081V0H146.066V1H148.052V0H150.037V1H152.022V0H154.007V1H155.993V0H157.978V1H159.963V0H161.949V1H163.934V0H165.919V1H167.905V0H169.89V1H171.875V0H173.86V1H175.846V0H177.831V1H179.816V0H181.802V1H183.787V0H185.772V1H187.757V0H189.743V1H191.728V0H193.713V1H195.699V0H197.684V1H199.669V0H201.654V1H203.64V0H205.625V1H207.61V0H209.596V1H211.581V0H213.566V1H215.551V0H217.537V1H219.522V0H221.507V1H223.493V0H225.478V1H227.463V0H229.449V1H231.434V0H233.419V1H235.404V0H237.39V1H239.375V0H241.36V1H243.346V0H245.331V1H247.316V0H249.301V1H251.287V0H253.272V1H255.257V0H257.243V1H259.228V0H261.213V1H263.199V0H265.184V1H267.169V0H269.154V1H271.14V0H273.125V1H275.11V0H277.096V1H279.081V0H281.066V1H283.051V0H285.037V1H287.022V0H289.007V1H290C290.313 1 290.624 1.00756 290.933 1.02251L290.982 0.0236747C291.642 0.0555879 292.294 0.119515 292.936 0.213938L292.79 1.20329C293.41 1.29449 294.02 1.41561 294.619 1.56514L294.861 0.594929C295.5 0.754472 296.127 0.944743 296.74 1.16408L296.403 2.10561C296.991 2.31598 297.565 2.55453 298.125 2.81964L298.553 1.91594C299.146 2.19709 299.724 2.50659 300.283 2.84269L299.768 3.69994C300.303 4.02078 300.82 4.36716 301.318 4.73742L301.914 3.93467C302.44 4.32541 302.947 4.74138 303.431 5.18078L302.759 5.92154C303.22 6.33948 303.661 6.77974 304.078 7.24059L304.819 6.56881C305.259 7.05333 305.675 7.55949 306.065 8.0855L305.263 8.68182C305.633 9.18025 305.979 9.69738 306.3 10.2315L307.157 9.71663C307.493 10.2762 307.803 10.8535 308.084 11.447L307.18 11.8751C307.445 12.4347 307.684 13.0092 307.894 13.597L308.836 13.2601C309.055 13.873 309.246 14.4998 309.405 15.1387L308.435 15.3809C308.584 15.9797 308.706 16.5898 308.797 17.2098L309.786 17.0643C309.88 17.7062 309.944 18.358 309.976 19.0182L308.977 19.0665C308.992 19.3757 309 19.6869 309 20V20.9881H310V22.9643H309V24.9405H310V26.9167H309V28.8929H310V30.8691H309V32.8453H310V34.8215H309V36.7976H310V38.7738H309V40.75H310V42.7262H309V44.7024H310V46.6786H309V48.6548H310V50.631H309V52.6072H310V54.5833H309V56.5595H310V58.5357H309V60.5119H310V62.4881H309V64.4643H310V66.4405H309V68.4167H310V70.3929H309V72.369H310V74.3452H309V76.3214H310V78.2976H309V80.2738H310V82.25H309V84.2262H310V86.2024H309V88.1786H310V90.1548H309V92.131H310V94.1071H309V96.0833H310V98.0595H309V100.036H310V102.012H309V103C309 103.313 308.992 103.624 308.977 103.933L309.976 103.982C309.944 104.642 309.88 105.294 309.786 105.936L308.797 105.79C308.706 106.41 308.584 107.02 308.435 107.619L309.405 107.861C309.246 108.5 309.055 109.127 308.836 109.74L307.894 109.403C307.684 109.991 307.445 110.565 307.18 111.125L308.084 111.553C307.803 112.146 307.493 112.724 307.157 113.283L306.3 112.768C305.979 113.303 305.633 113.82 305.263 114.318L306.065 114.915C305.675 115.441 305.259 115.947 304.819 116.431L304.078 115.759C303.661 116.22 303.22 116.661 302.759 117.078L303.431 117.819C302.947 118.259 302.44 118.675 301.914 119.065L301.318 118.263C300.82 118.633 300.303 118.979 299.768 119.3L300.283 120.157C299.724 120.493 299.146 120.803 298.553 121.084L298.125 120.18C297.565 120.445 296.991 120.684 296.403 120.894L296.74 121.836C296.127 122.055 295.5 122.246 294.861 122.405L294.619 121.435C294.02 121.584 293.41 121.706 292.79 121.797L292.936 122.786C292.294 122.88 291.642 122.944 290.982 122.976L290.933 121.977C290.624 121.992 290.313 122 290 122H289.007V123H287.022V122H285.036V123H283.051V122H281.066V123H279.081V122H277.095V123H275.11V122H273.125V123H271.139V122H269.154V123H267.169V122H265.184V123H263.198V122H261.213V123H259.228V122H257.242V123H255.257V122H253.272V123H251.286V122H249.301V123H247.316V122H245.331V123H243.345V122H241.36V123H239.375V122H237.389V123H235.404V122H233.419V123H231.434V122H229.448V123H227.463V122H225.478V123H223.492V122H221.507V123H219.522V122H217.537V123H215.551V122H213.566V123H211.581V122H209.595V123H207.61V122H205.625V123H203.639V122H201.654V123H199.669V122H197.684V123H195.698V122H193.713V123H191.728V122H189.742V123H187.757V122H185.772V123H183.787V122H181.801V123H179.816V122H177.831V123H175.845V122H173.86V123H171.875V122H169.89V123H167.904V122H165.919V123H163.934V122H161.948V123H159.963V122H157.978V123H155.993V122H154.007V123H152.022V122H150.037V123H148.051V122H146.066V123H144.081V122H142.095V123H140.11V122H138.125V123H136.14V122H134.154V123H132.169V122H130.184V123H128.198V122H126.213V123H124.228V122H122.243V123H120.257V122H118.272V123H116.287V122H114.301V123H112.316V122H110.331V123H108.346V122H106.36V123H104.375V122H102.39V123H100.404V122H98.4191V123H96.4338V122H94.4485V123H92.4632V122H90.4779V123H88.4926V122H86.5074V123H84.5221V122H82.5368V123H80.5515V122H78.5662V123H76.5809V122H74.5956V123H72.6103V122H70.625V123H68.6397V122H66.6544V123H64.6691V122H62.6838V123H60.6985V122H58.7132V123H56.7279V122H54.7426V123H52.7574V122H50.7721V123H48.7868V122H46.8015V123H44.8162V122H42.8309V123H40.8456V122H38.8603V123H36.875V122H34.8897V123H32.9044V122H30.9191V123H28.9338V122H26.9485V123H24.9632V122H22.9779V123H20.9926V122H20C19.6869 122 19.3757 121.992 19.0665 121.977L19.0182 122.976C18.358 122.944 17.7062 122.88 17.0643 122.786L17.2098 121.797C16.5899 121.706 15.9797 121.584 15.3809 121.435L15.1387 122.405C14.4998 122.246 13.873 122.055 13.2601 121.836L13.597 120.894C13.0092 120.684 12.4347 120.445 11.8751 120.18L11.447 121.084C10.8535 120.803 10.2762 120.493 9.71663 120.157L10.2315 119.3C9.69738 118.979 9.18025 118.633 8.68182 118.263L8.0855 119.065C7.55949 118.675 7.05333 118.259 6.56881 117.819L7.24059 117.078C6.77974 116.661 6.33948 116.22 5.92154 115.759L5.18078 116.431C4.74138 115.947 4.32542 115.441 3.93467 114.915L4.73742 114.318C4.36716 113.82 4.02078 113.303 3.69994 112.768L2.84269 113.283C2.50659 112.724 2.19709 112.146 1.91594 111.553L2.81964 111.125C2.55453 110.565 2.31598 109.991 2.10561 109.403L1.16408 109.74C0.944745 109.127 0.754475 108.5 0.594931 107.861L1.56514 107.619C1.41561 107.02 1.29449 106.41 1.20329 105.79L0.213937 105.936Z" fill="#D9D9D9" fill-opacity="0.26" stroke="#4B4C48" stroke-width="2" stroke-dasharray="2 2"/>
</svg>
